{"glyphs":{":":{"x_min":0,"x_max":181,"ha":181,"o":"m 16 102 l 16 93 q 17 88 22 74 q 27 60 29 55 q 29 53 34 46 q 39 39 41 37 q 43 35 48 30 q 52 26 53 25 q 55 23 64 18 q 74 14 78 12 q 81 10 88 8 q 95 6 97 6 q 98 6 105 8 q 112 10 115 12 q 117 13 122 16 q 128 18 134 21 q 140 24 145 27 q 150 30 152 31 q 153 31 156 34 q 158 36 158 37 q 161 42 166 51 q 171 60 171 62 q 171 63 172 75 q 172 87 172 93 q 172 96 172 108 q 171 120 171 124 q 169 126 165 130 q 161 135 156 140 q 151 145 146 149 q 142 153 140 154 q 138 155 132 158 q 126 160 120 163 q 113 166 106 169 q 100 172 97 173 l 88 173 l 78 173 q 76 173 66 170 q 56 168 53 167 q 51 166 46 164 q 42 162 41 161 q 40 160 36 153 q 31 146 29 142 q 16 122 16 102 z m 9 487 q 9 481 10 470 q 10 458 10 458 q 10 456 15 446 q 20 437 22 433 l 35 420 q 37 419 46 414 q 55 410 59 408 q 62 406 69 404 q 76 402 78 402 q 79 402 84 402 q 89 401 91 401 q 93 401 98 402 q 102 402 103 402 q 105 402 112 407 q 119 412 121 414 q 125 417 134 426 q 144 436 146 439 q 147 440 149 444 q 151 449 152 451 q 154 455 156 462 q 158 469 158 470 q 159 471 159 478 q 159 486 159 490 q 159 493 159 499 q 159 506 158 507 q 158 510 153 520 q 148 529 146 532 q 144 534 140 539 q 135 544 130 549 q 125 554 120 558 q 116 562 115 563 q 113 564 104 566 q 95 568 90 569 l 75 569 l 59 569 q 58 569 54 566 q 49 564 47 563 q 45 561 40 556 q 36 552 31 548 q 26 543 22 538 q 17 534 16 532 q 14 530 12 526 q 10 521 10 519 q 10 518 10 506 q 9 493 9 487 z"},"$":{"x_min":0,"x_max":532,"ha":532,"o":"m 250 -12 q 265 -23 274 -40 q 284 -58 294 -73 q 296 -76 300 -82 q 303 -88 307 -94 q 311 -100 314 -104 q 317 -109 318 -110 l 337 -129 q 339 -130 343 -132 q 347 -135 349 -135 l 361 -135 l 374 -135 q 375 -135 380 -132 q 384 -130 386 -129 q 388 -127 392 -123 q 397 -119 398 -117 q 400 -115 402 -110 q 404 -106 405 -104 l 405 -89 l 405 -73 q 405 -72 404 -68 q 403 -63 402 -58 q 400 -53 399 -48 q 398 -44 398 -43 l 398 -21 l 398 1 q 400 2 404 4 q 409 6 411 7 q 412 7 416 9 q 421 11 426 13 q 432 15 436 16 q 441 18 442 19 q 443 20 448 24 q 453 29 459 35 q 465 41 470 47 q 476 53 479 56 q 482 60 492 72 q 501 84 503 87 q 505 89 510 98 q 514 107 516 112 q 517 115 520 122 q 522 129 522 130 l 522 157 q 522 177 520 196 q 517 216 509 235 q 507 240 500 254 q 493 267 491 272 q 489 275 484 282 q 480 289 479 290 q 477 292 473 296 q 469 301 464 306 q 459 310 454 314 q 450 319 448 321 q 446 323 441 327 q 436 331 431 335 q 426 339 422 342 q 418 345 417 346 q 414 348 404 354 q 393 359 382 364 q 370 370 359 376 q 348 381 343 383 q 342 383 334 386 q 326 389 316 393 q 305 397 294 401 q 282 405 275 408 q 273 409 266 411 q 259 413 257 414 q 255 414 248 416 q 242 418 235 420 q 228 422 222 424 q 215 426 213 426 q 212 427 207 430 q 202 432 196 435 q 190 438 184 440 q 179 443 176 445 q 174 447 167 451 q 160 455 158 457 q 155 460 150 464 q 145 469 140 474 q 135 479 131 483 q 127 487 127 488 q 127 488 126 492 q 126 497 126 499 q 126 501 126 506 q 127 512 127 512 q 127 514 130 518 q 132 523 133 525 q 135 527 140 532 q 144 536 146 537 q 148 539 158 544 q 167 548 170 549 q 175 551 189 556 q 203 560 207 562 q 211 563 224 566 q 236 568 238 568 q 240 568 253 568 q 266 569 272 569 q 278 569 288 568 q 299 568 300 568 q 301 568 308 565 q 314 562 322 559 q 329 556 335 553 q 341 550 343 549 l 356 549 l 368 549 q 369 550 376 557 q 383 564 386 568 q 388 570 390 574 q 392 578 392 580 q 392 581 392 584 q 393 587 393 589 q 393 600 389 610 q 385 621 380 630 q 378 633 374 638 q 371 644 367 650 q 363 656 360 660 q 356 665 355 667 q 353 669 349 674 q 345 678 343 679 q 341 680 334 682 q 327 685 324 685 q 320 686 310 687 q 299 688 288 689 q 276 690 265 690 q 254 691 250 691 l 238 704 q 238 707 237 714 q 236 721 235 728 q 234 736 233 743 q 232 750 232 753 q 232 755 230 760 q 227 764 226 765 q 224 767 220 772 q 215 777 210 782 q 205 787 200 791 q 196 795 195 796 q 193 798 184 802 q 174 807 170 808 q 170 809 166 809 q 163 809 161 809 q 159 809 155 809 q 152 809 152 808 q 150 808 146 806 q 141 804 139 802 l 121 784 q 119 780 114 770 q 109 761 109 759 q 108 758 108 747 q 108 737 108 732 q 108 726 108 715 q 108 705 109 704 q 109 702 110 698 q 112 693 114 688 q 117 683 119 678 q 121 674 121 673 l 121 670 l 121 667 q 120 665 116 660 q 111 656 109 654 q 108 654 104 652 q 100 650 96 648 q 92 646 88 644 q 85 642 84 642 q 81 640 74 636 q 67 631 65 630 q 62 627 56 620 q 49 614 42 607 q 35 600 29 594 q 23 588 22 586 q 20 584 16 574 q 11 565 10 562 q 10 557 10 542 q 9 527 9 522 q 9 518 9 511 q 9 505 10 498 q 10 492 10 487 q 10 482 10 482 q 10 480 12 473 q 14 466 16 463 q 17 461 24 450 q 31 438 35 432 q 37 429 42 422 q 46 415 47 414 q 50 411 56 404 q 63 397 70 390 q 76 384 82 378 q 88 372 90 371 q 92 369 106 360 q 120 351 127 346 q 129 345 134 342 q 138 340 139 340 q 144 338 162 332 q 180 325 201 318 q 222 311 240 304 q 258 298 263 297 q 267 295 276 292 q 284 288 294 284 q 304 281 312 277 q 321 273 324 272 q 331 269 345 262 q 359 254 361 253 q 362 252 366 248 q 371 244 376 240 q 381 235 386 230 q 390 225 392 223 q 394 221 396 216 q 398 212 398 210 q 399 210 399 203 q 399 196 399 192 q 399 188 399 181 q 399 174 398 173 q 398 171 396 167 q 394 163 392 161 q 390 159 385 154 q 380 148 374 142 q 368 136 362 131 q 357 126 355 124 q 355 123 350 121 q 345 119 343 118 q 340 116 333 114 q 326 112 324 112 q 322 112 314 111 q 306 110 296 108 q 287 107 278 106 q 268 105 263 105 l 253 105 l 244 105 q 240 106 228 108 q 216 110 213 112 q 212 112 208 114 q 205 115 200 117 q 195 119 190 121 q 186 123 183 124 q 166 132 150 144 q 135 156 121 167 q 119 168 114 172 q 109 177 102 182 q 96 188 90 192 q 85 197 84 198 q 82 200 75 204 q 68 208 65 210 q 63 212 58 214 q 54 216 53 216 q 53 217 48 217 q 43 217 41 217 q 38 217 33 217 q 29 217 28 216 q 28 216 26 214 q 23 212 22 210 q 21 208 18 204 q 16 199 16 198 l 16 179 l 16 161 q 16 160 18 155 q 19 150 21 144 q 23 138 25 132 q 27 127 28 124 q 30 119 34 110 q 39 101 41 99 l 78 62 q 81 59 93 50 q 105 40 109 38 q 110 36 122 29 q 134 22 139 19 q 147 14 154 12 q 162 9 170 7 q 174 6 186 3 q 197 0 210 -3 q 223 -6 234 -8 q 245 -11 250 -12 z"},"?":{"x_min":0,"x_max":532,"ha":532,"o":"m 213 83 l 213 67 q 214 66 216 62 q 218 57 220 55 q 222 52 228 46 q 233 41 239 35 q 245 29 250 24 q 255 19 257 18 q 259 17 266 14 q 273 12 275 12 q 276 12 287 12 q 298 11 303 11 q 308 11 319 12 q 330 12 331 12 q 332 12 336 14 q 341 16 343 18 l 368 43 q 369 45 372 49 q 374 53 374 55 l 374 74 l 374 92 q 374 93 372 98 q 369 102 368 104 q 366 107 362 114 q 357 121 355 123 q 354 124 352 126 q 350 129 349 129 q 347 130 342 133 q 337 136 332 139 q 327 142 323 144 q 319 147 318 148 q 316 149 306 151 q 297 153 294 154 l 272 154 l 250 154 q 249 154 244 152 q 240 149 238 148 q 237 147 235 145 q 233 143 232 141 q 230 139 226 130 q 222 120 220 117 q 218 114 216 107 q 214 100 213 98 z m 207 357 l 207 314 q 208 307 210 293 q 212 279 213 277 q 215 274 221 268 q 227 261 234 254 q 241 248 248 242 q 254 236 257 234 q 259 234 266 234 q 273 233 275 233 q 279 233 286 234 q 293 234 294 234 q 296 235 306 240 q 315 244 318 246 q 321 248 328 256 q 335 263 337 265 q 338 267 340 277 q 342 287 343 289 q 344 293 346 300 q 349 307 349 308 q 352 312 362 322 q 371 331 374 333 q 376 334 384 338 q 392 341 402 345 q 411 349 419 352 q 427 356 429 357 q 431 359 436 361 q 441 363 442 363 q 445 365 454 372 q 464 380 466 382 q 469 384 479 394 q 489 404 491 407 q 492 408 494 412 q 497 415 500 418 q 503 422 506 426 q 508 429 509 431 q 511 433 513 438 q 515 442 516 444 q 517 447 519 459 q 521 471 522 474 l 522 487 l 522 499 q 522 502 520 510 q 518 518 516 528 q 514 538 512 547 q 510 556 509 561 q 509 564 507 570 q 505 577 503 584 q 501 590 500 596 q 498 602 497 604 q 495 608 491 618 q 487 627 485 629 q 482 632 476 638 q 470 645 463 652 q 456 658 450 664 q 444 670 442 672 q 441 672 434 676 q 428 680 419 684 q 410 689 401 694 q 392 700 386 703 q 382 705 372 710 q 363 714 361 715 q 358 716 352 718 q 345 721 337 724 q 329 727 322 730 q 315 732 312 733 q 308 735 298 738 q 289 740 287 740 l 241 740 l 195 740 q 170 717 148 692 q 125 667 102 641 q 101 639 94 630 q 87 621 84 616 q 82 614 78 607 q 74 600 72 598 q 71 597 68 592 q 66 588 62 582 q 59 577 56 572 q 54 568 53 567 q 52 565 48 560 q 43 555 38 548 q 32 542 28 536 q 23 531 22 530 q 20 527 15 520 q 10 513 10 511 q 10 511 10 506 q 9 500 9 497 q 9 494 10 488 q 10 482 10 481 q 10 478 12 468 q 15 458 16 456 q 17 454 22 447 q 26 440 28 437 q 30 435 38 428 q 45 421 47 419 q 49 417 54 415 q 58 413 59 413 q 60 413 68 412 q 76 412 81 412 q 86 412 94 412 q 102 413 102 413 q 103 413 108 415 q 113 417 115 419 q 117 421 124 425 q 131 429 133 431 q 135 432 137 434 q 139 437 139 437 q 140 440 146 451 q 152 462 158 474 q 164 487 170 498 q 175 508 176 511 q 178 514 185 526 q 192 537 195 542 q 197 545 200 550 q 204 556 208 562 q 212 568 216 573 q 219 578 220 579 q 226 587 234 593 q 242 599 250 604 q 252 606 257 608 q 262 610 263 610 q 263 610 269 610 q 275 611 278 611 q 281 611 287 610 q 293 610 294 610 q 295 610 302 608 q 309 606 312 604 q 316 602 323 600 q 330 597 337 594 q 344 591 349 588 q 354 586 355 585 q 357 584 364 577 q 371 570 374 567 l 380 555 q 381 551 384 540 q 386 528 386 524 l 386 514 l 386 505 q 386 504 384 500 q 382 495 380 493 q 378 491 374 486 q 370 482 368 481 q 365 479 356 474 q 346 470 343 468 q 341 467 330 465 q 320 463 318 462 q 313 460 296 456 q 280 452 275 450 q 272 449 265 446 q 258 444 257 444 q 253 442 244 438 q 234 433 232 431 q 231 431 229 429 q 227 427 226 425 q 224 423 216 413 q 209 403 207 400 z"},"<":{"x_min":0,"x_max":360,"ha":360,"o":"m 9 340 q 9 335 10 326 q 10 316 10 315 q 10 313 12 306 q 15 298 16 296 q 18 294 22 287 q 27 280 29 278 q 31 274 38 267 q 45 260 47 259 q 48 258 54 256 q 59 253 66 250 q 72 247 78 244 q 83 242 84 241 q 85 241 90 237 q 95 233 102 228 q 109 223 116 218 q 123 213 127 210 q 128 209 132 206 q 136 204 140 200 q 144 197 148 194 q 151 192 152 191 q 158 187 174 176 q 190 166 208 154 q 226 142 242 132 q 257 121 263 117 q 265 117 272 116 q 280 116 282 116 q 286 116 293 116 q 300 117 300 117 q 305 118 319 125 q 333 132 337 136 q 339 138 344 145 q 349 152 350 154 l 350 171 l 350 191 q 349 195 347 204 q 345 214 344 216 q 342 218 335 225 q 328 232 325 234 q 321 237 304 248 q 288 259 270 272 q 251 284 234 295 q 218 306 214 309 q 212 310 208 314 q 203 318 198 323 q 193 328 188 332 q 184 337 183 339 l 183 343 l 183 346 l 195 358 q 196 359 201 362 q 206 365 212 369 q 218 373 224 377 q 229 381 232 383 q 233 384 238 386 q 242 389 248 392 q 253 395 258 398 q 262 400 263 401 q 267 403 276 410 q 286 418 288 420 q 293 424 302 433 q 311 442 313 444 q 314 446 316 454 q 319 461 319 463 l 319 488 l 319 512 q 300 534 276 549 q 274 551 270 553 q 265 555 263 556 l 251 556 l 239 556 q 237 555 232 553 q 228 551 226 549 q 225 548 220 544 q 215 540 209 536 q 203 531 198 526 q 192 521 189 519 q 187 517 179 510 q 171 502 162 494 q 152 486 144 478 q 136 471 134 469 q 133 468 129 466 q 125 463 121 460 q 117 457 114 454 q 110 452 109 451 q 107 449 98 442 q 88 434 78 426 q 67 418 58 410 q 49 403 47 401 q 46 400 42 398 q 39 395 35 392 q 31 389 27 386 q 23 384 22 383 q 21 382 19 380 q 17 377 16 376 q 14 374 12 370 q 10 365 10 364 q 10 363 10 354 q 9 345 9 340 z"},"'":{"x_min":0,"x_max":181,"ha":181,"o":"m 9 612 q 9 607 10 597 q 10 587 10 587 q 10 586 12 579 q 14 572 17 563 q 20 554 24 545 q 27 536 29 531 q 29 529 31 524 q 33 520 35 518 q 37 516 42 509 q 46 502 47 500 q 49 497 56 490 q 64 483 66 481 q 69 479 78 474 q 88 470 90 469 q 91 469 97 468 q 103 468 106 468 q 109 468 115 468 q 121 469 121 469 q 123 470 132 474 q 142 479 146 481 q 148 483 152 488 q 157 492 158 494 q 159 495 162 500 q 164 504 165 506 q 166 508 168 516 q 170 523 171 525 l 171 528 l 171 531 q 170 534 168 546 q 166 557 165 562 q 164 564 162 574 q 159 585 158 587 q 158 588 157 596 q 156 603 155 611 q 154 619 153 626 q 152 634 152 636 q 151 638 146 648 q 142 658 140 661 q 138 663 130 670 q 123 677 121 679 q 118 681 112 684 q 107 687 101 690 q 95 693 90 696 q 85 698 84 698 q 83 698 75 698 q 67 699 63 699 q 60 699 52 698 q 43 698 41 698 q 39 696 34 692 q 30 687 29 685 q 27 683 22 676 q 17 669 16 667 q 15 664 12 654 q 10 645 10 642 q 10 641 10 630 q 9 618 9 612 z"},"=":{"x_min":0,"x_max":427,"ha":427,"o":"m 9 271 q 9 266 10 256 q 10 247 10 246 q 10 245 12 240 q 14 236 16 234 l 41 209 l 53 203 q 57 202 66 201 q 74 200 83 199 q 92 198 100 198 q 107 197 109 197 l 337 203 q 339 203 351 206 q 363 208 368 209 l 380 215 l 411 246 q 412 247 414 252 q 416 257 417 259 l 417 261 l 417 265 q 415 271 413 283 q 411 295 411 296 q 409 299 400 308 q 390 318 386 320 q 384 322 374 324 q 365 326 361 326 l 41 326 q 40 326 35 324 q 30 322 28 320 q 26 319 22 314 q 18 310 16 308 q 14 306 12 302 q 10 297 10 296 q 10 295 10 286 q 9 276 9 271 z m 40 442 q 40 437 40 428 q 41 420 41 419 q 41 416 43 409 q 45 402 47 400 q 48 399 52 395 q 56 391 61 386 q 66 381 70 376 q 75 372 78 370 q 80 368 84 366 q 88 364 90 363 l 109 363 l 133 363 q 143 363 163 364 q 183 365 204 366 q 224 368 241 369 q 258 370 263 370 q 264 370 269 370 q 274 371 280 372 q 286 373 292 374 q 297 375 300 376 q 303 377 310 379 q 317 381 318 382 q 324 387 336 398 q 347 410 349 413 q 349 413 350 419 q 350 425 350 429 q 350 433 350 441 q 349 449 349 450 q 349 451 347 456 q 345 460 343 462 l 324 481 q 323 481 318 484 q 314 486 312 487 q 310 488 303 490 q 296 492 294 493 q 290 494 276 496 q 262 498 257 499 l 251 499 l 244 499 q 229 499 205 498 q 181 497 158 496 q 134 495 116 494 q 98 493 96 493 q 91 492 77 490 q 63 488 59 487 l 53 481 q 51 477 46 470 q 41 463 41 462 q 41 461 40 454 q 40 447 40 442 z"},"a":{"x_min":0,"x_max":434,"ha":434,"o":"m 273 62 q 273 62 274 62 q 275 61 276 61 q 277 60 282 56 q 286 53 291 49 q 296 45 300 42 q 305 38 306 37 q 309 35 314 32 q 320 29 326 26 q 332 23 337 20 q 342 18 344 18 q 344 18 350 18 q 356 17 359 17 q 362 17 368 18 q 374 18 374 18 q 377 19 386 24 q 396 28 399 30 q 402 32 409 40 q 416 47 418 49 q 419 51 421 58 q 423 65 424 67 l 424 77 q 424 100 411 118 q 398 135 387 154 q 385 158 378 173 q 370 188 361 206 q 352 223 344 240 q 335 257 331 265 q 330 267 328 273 q 325 279 322 286 q 319 292 316 298 q 314 305 313 308 q 312 310 310 318 q 307 325 306 327 q 305 329 298 338 q 291 347 288 352 l 276 364 q 273 366 264 370 q 254 375 251 376 q 248 378 238 380 q 229 382 226 382 q 226 383 221 383 q 216 383 214 383 q 212 383 207 383 q 202 383 201 382 q 199 382 190 380 q 181 378 177 376 q 172 374 164 372 q 155 369 146 366 q 137 363 130 360 q 122 358 121 358 q 118 356 109 352 q 100 348 90 343 q 81 338 72 334 q 63 329 59 327 q 57 325 48 318 q 39 312 35 308 q 33 306 28 302 q 23 297 22 296 q 20 292 15 282 q 10 273 10 271 q 10 270 10 258 q 9 246 9 240 q 9 234 10 222 q 10 211 10 209 q 10 206 12 198 q 15 191 18 182 q 21 173 24 165 q 27 157 29 154 q 31 149 40 136 q 49 122 53 117 q 55 115 62 108 q 68 101 76 93 q 84 85 92 78 q 99 70 103 67 q 105 65 112 60 q 119 56 121 55 q 127 53 141 48 q 155 43 158 43 q 159 43 172 42 q 184 42 190 42 q 197 42 211 42 q 225 43 226 43 q 228 43 235 45 q 242 47 245 49 l 269 61 q 270 61 271 62 q 272 62 273 62 z m 145 210 q 145 212 146 216 q 146 221 146 222 q 146 223 151 228 q 156 232 158 234 q 160 236 164 238 q 169 240 171 240 q 171 241 175 241 q 179 241 181 241 q 183 241 186 241 q 189 241 189 240 q 191 239 201 230 q 211 220 214 216 q 215 214 220 205 q 224 196 226 191 q 227 189 230 182 q 232 174 232 172 q 232 172 232 171 q 233 170 233 169 q 233 168 232 167 q 232 166 232 166 q 231 164 229 160 q 227 155 226 154 q 225 153 220 150 q 216 148 214 148 q 214 148 212 148 q 209 147 208 147 q 206 147 204 148 q 202 148 201 148 q 198 149 191 151 q 184 153 183 154 q 181 156 172 165 q 162 174 158 179 q 156 181 151 188 q 146 195 146 197 q 146 198 146 203 q 145 208 145 210 z"},"L":{"x_min":0,"x_max":532,"ha":532,"o":"m 84 110 l 84 92 q 84 90 86 86 q 89 82 90 80 q 91 78 96 72 q 101 67 107 60 q 113 53 118 46 q 124 40 127 36 q 129 34 134 30 q 138 25 139 24 q 141 22 146 20 q 151 18 152 18 l 454 18 q 456 18 463 20 q 470 22 472 24 q 474 26 480 31 q 485 36 491 42 q 497 48 502 54 q 507 59 509 61 q 511 64 516 74 q 521 83 522 86 q 522 87 522 94 q 523 102 523 106 q 523 109 522 116 q 522 122 522 123 q 522 123 518 127 q 514 131 510 136 q 505 141 500 146 q 494 151 491 154 q 489 156 484 160 q 479 163 479 163 l 287 163 q 286 163 282 165 q 278 167 273 169 q 268 171 264 174 q 259 176 257 178 q 256 179 251 186 q 246 193 244 197 q 242 201 238 210 q 233 220 232 221 q 232 222 231 228 q 230 234 229 240 q 228 246 227 252 q 226 257 226 258 q 225 261 222 274 q 218 287 214 302 q 209 316 206 329 q 202 342 201 345 q 201 347 198 358 q 196 370 195 376 q 195 377 194 382 q 193 388 192 394 q 191 400 190 406 q 189 411 189 413 q 188 415 186 425 q 183 435 183 437 q 182 441 180 456 q 179 470 176 486 q 174 503 172 518 q 171 532 170 536 q 170 539 168 546 q 165 553 164 554 q 162 557 152 567 q 143 577 139 579 q 138 580 129 584 q 120 589 115 591 q 112 593 105 596 q 98 598 96 598 l 74 598 l 53 598 q 52 597 48 595 q 43 593 41 591 q 38 589 31 582 q 24 575 22 573 q 21 571 16 562 q 12 552 10 548 l 10 545 l 10 542 q 11 540 14 532 q 16 524 19 514 q 22 505 25 497 q 28 489 28 487 q 29 484 31 478 q 33 471 35 464 q 37 457 38 451 q 40 445 41 443 q 41 442 42 438 q 43 433 44 428 q 45 423 46 418 q 47 414 47 413 q 48 410 50 400 q 52 390 53 388 q 54 386 56 378 q 59 371 59 369 q 60 367 62 358 q 65 349 68 338 q 72 328 74 319 q 77 310 78 308 q 78 306 81 298 q 84 291 84 289 q 85 286 86 280 q 87 275 88 269 q 89 263 90 258 q 90 253 90 252 q 90 251 90 245 q 90 240 90 232 q 91 225 91 217 q 91 210 91 206 q 91 201 91 194 q 91 187 90 180 q 90 172 90 166 q 90 161 90 160 q 90 159 89 154 q 88 150 87 144 q 86 139 85 134 q 84 130 84 129 z"},"3":{"x_min":0,"x_max":520,"ha":520,"o":"m 53 83 l 53 68 q 54 66 58 52 q 63 38 66 31 q 67 29 69 24 q 71 19 72 19 q 73 18 82 14 q 91 9 96 7 q 99 5 106 3 q 113 1 115 0 q 118 0 130 -1 q 141 -2 154 -3 q 168 -4 180 -5 q 192 -6 195 -6 q 198 -6 208 -7 q 219 -8 232 -9 q 245 -10 256 -11 q 266 -12 269 -12 l 323 -12 l 374 -12 q 376 -12 390 -10 q 404 -8 411 -6 q 416 -5 426 -2 q 435 0 436 0 q 437 1 441 4 q 445 7 450 11 q 455 15 460 19 q 464 23 467 25 q 470 28 477 35 q 484 42 485 44 q 486 45 488 50 q 491 54 494 60 q 497 66 500 72 q 502 78 504 81 q 505 84 508 90 q 510 97 510 99 l 510 141 l 510 185 q 510 188 509 194 q 508 201 507 208 q 506 215 505 221 q 504 227 504 229 q 504 230 502 236 q 499 242 496 250 q 493 258 490 266 q 487 273 485 278 q 484 280 482 284 q 480 289 479 290 q 477 294 470 304 q 462 313 460 315 q 458 317 454 320 q 451 324 448 328 q 444 332 440 336 q 437 339 436 340 q 434 342 428 346 q 421 351 414 356 q 408 360 402 364 q 395 369 393 371 q 392 372 392 375 q 392 378 392 380 q 392 382 392 385 q 392 389 393 389 q 393 391 398 402 q 404 412 405 414 q 406 417 408 422 q 410 428 412 434 q 414 440 416 445 q 417 450 417 451 q 417 451 418 458 q 418 465 418 468 q 418 505 405 537 q 404 539 402 544 q 400 548 399 550 q 398 551 393 556 q 388 560 386 562 q 383 565 374 572 q 364 579 362 580 q 360 582 350 586 q 341 591 337 593 q 335 593 328 596 q 320 598 319 599 q 317 600 310 602 q 304 605 297 608 q 290 611 284 614 q 277 617 275 617 q 273 618 268 620 q 264 621 258 624 q 252 626 246 628 q 241 629 238 630 q 236 630 226 632 q 216 635 214 636 q 212 636 206 638 q 201 640 195 642 q 189 644 184 646 q 178 648 177 648 q 172 649 162 651 q 153 653 144 655 q 134 657 126 659 q 117 661 115 661 l 85 661 l 53 661 q 51 660 44 658 q 37 656 35 654 q 33 653 28 648 q 24 644 22 642 q 21 641 19 636 q 17 632 16 630 q 15 626 12 616 q 10 607 10 605 l 10 592 l 10 580 q 11 578 16 568 q 20 558 22 556 q 25 552 34 542 q 44 533 47 531 q 49 529 56 527 q 63 525 66 525 q 72 525 88 524 q 103 524 121 523 q 139 522 155 521 q 171 520 177 519 q 177 519 182 518 q 188 516 194 514 q 201 512 208 510 q 215 507 220 506 q 223 505 228 504 q 234 502 240 500 q 246 498 250 496 q 255 495 257 494 q 259 493 264 491 q 268 489 269 488 q 271 486 276 482 q 281 477 282 475 l 282 469 l 282 463 q 280 460 270 450 q 261 441 257 438 q 254 436 244 432 q 235 427 232 426 q 228 425 218 424 q 209 423 198 422 q 188 421 178 420 q 168 420 164 420 q 162 418 155 414 q 148 410 146 408 l 127 389 q 126 386 126 376 q 125 365 125 361 q 125 356 126 346 q 126 335 127 334 q 127 333 132 328 q 136 324 142 318 q 148 312 154 306 q 160 300 164 297 q 166 295 170 293 q 175 291 177 290 q 183 290 198 288 q 212 286 229 284 q 246 282 261 280 q 276 279 282 278 q 283 278 292 276 q 302 273 306 272 q 308 271 316 269 q 323 267 325 266 q 327 265 332 262 q 336 260 337 260 q 340 258 344 253 q 349 248 354 243 q 359 238 363 234 q 367 230 368 229 q 369 227 371 220 q 373 213 374 210 q 374 208 375 202 q 376 195 377 187 q 378 179 379 172 q 380 164 380 161 q 380 160 380 156 q 381 152 381 150 q 381 148 380 145 q 380 142 380 142 q 378 138 368 129 q 359 120 356 118 q 354 116 342 114 q 330 112 325 111 l 310 111 l 294 111 q 292 111 286 112 q 281 113 274 114 q 268 115 261 116 q 254 117 251 118 q 248 118 238 120 q 228 122 217 124 q 206 126 196 128 q 186 130 183 130 q 175 132 161 134 q 147 136 146 136 q 144 136 134 136 q 124 137 119 137 q 114 137 106 136 q 97 136 96 136 q 94 136 85 131 q 76 126 72 124 q 70 123 66 118 q 61 113 59 111 q 58 109 56 105 q 53 101 53 99 z"},";":{"x_min":0,"x_max":211,"ha":211,"o":"m 10 -16 l 10 -24 q 12 -28 19 -42 q 26 -56 28 -61 q 30 -63 34 -68 q 39 -72 41 -74 q 42 -74 46 -76 q 51 -79 53 -80 q 56 -81 63 -84 q 70 -86 72 -86 l 81 -86 l 90 -86 q 92 -86 96 -84 q 101 -81 102 -80 q 104 -78 109 -74 q 114 -69 119 -64 q 124 -59 128 -55 q 132 -51 133 -49 q 134 -48 136 -44 q 139 -39 142 -34 q 146 -28 148 -24 q 151 -19 152 -18 q 153 -16 160 -6 q 168 4 170 6 q 172 9 176 18 q 181 28 182 31 q 184 35 188 49 q 193 63 195 68 q 196 71 198 83 q 200 95 201 99 l 201 105 l 201 111 q 200 114 198 124 q 196 134 195 136 q 193 140 188 149 q 184 158 182 160 q 180 163 171 172 q 162 182 158 185 q 156 187 152 189 q 147 191 145 191 q 144 191 134 192 q 123 192 118 192 q 112 192 102 192 q 91 191 90 191 q 89 191 84 189 q 80 187 78 185 q 76 183 68 178 q 61 174 59 173 q 58 171 56 169 q 53 167 53 166 q 53 164 51 157 q 49 150 47 142 q 45 134 43 126 q 41 119 41 117 q 41 115 39 110 q 37 105 34 98 q 32 92 30 86 q 28 81 28 80 q 27 75 24 63 q 22 51 19 37 q 16 23 14 11 q 11 -1 10 -6 z m 97 543 q 93 543 86 542 q 79 542 78 542 q 76 542 70 540 q 63 537 59 536 q 57 535 52 532 q 48 530 47 530 q 44 527 40 523 q 36 519 32 515 q 28 511 25 508 q 22 505 22 505 l 22 431 q 22 430 24 426 q 27 421 28 419 l 53 394 q 56 392 66 387 q 75 382 78 382 q 78 382 86 382 q 94 381 98 381 q 103 381 112 382 q 120 382 121 382 q 123 382 127 384 q 131 386 133 388 q 135 389 140 394 q 144 398 148 403 q 153 408 158 412 q 162 417 164 419 q 166 422 171 429 q 176 436 176 437 q 176 438 176 445 q 177 452 177 456 q 177 459 176 466 q 176 473 176 474 q 176 476 171 486 q 166 495 164 499 q 163 501 156 510 q 149 519 145 523 q 144 525 142 527 q 140 529 139 530 q 135 532 126 537 q 117 542 115 542 q 114 542 108 542 q 101 543 97 543 z"},"J":{"x_min":0,"x_max":446,"ha":446,"o":"m 146 31 q 147 29 152 27 q 156 25 158 25 q 159 25 166 24 q 172 23 180 22 q 187 20 193 19 q 199 18 201 18 q 202 18 206 17 q 211 16 216 15 q 222 14 226 13 q 231 12 232 12 q 236 12 242 11 q 249 10 256 9 q 263 8 268 7 q 274 6 275 6 l 303 6 l 331 6 l 343 18 q 347 22 354 31 q 362 40 370 49 q 378 58 384 65 q 391 72 393 74 q 396 78 403 88 q 410 97 411 99 q 412 100 414 107 q 416 114 417 117 q 418 121 420 132 q 423 144 423 148 q 424 151 425 158 q 426 164 427 172 q 428 180 429 187 q 430 194 430 197 q 430 203 431 214 q 432 226 433 238 q 434 250 435 260 q 436 269 436 271 l 436 309 l 436 345 q 436 349 434 366 q 431 382 430 389 q 429 392 428 400 q 426 408 424 417 q 421 426 420 434 q 418 441 417 444 q 417 446 414 455 q 411 464 408 474 q 405 485 402 494 q 399 504 399 506 q 399 509 398 519 q 397 529 396 540 q 395 551 394 561 q 393 571 393 574 q 393 575 390 580 q 388 584 386 586 q 384 589 380 596 q 375 603 374 605 q 370 609 360 618 q 351 627 349 629 q 347 630 333 638 q 319 645 312 648 q 309 650 302 652 q 295 654 294 654 q 289 654 275 652 q 261 650 257 648 q 255 647 250 642 q 246 638 245 635 q 242 630 235 616 q 228 602 226 598 l 226 590 l 226 580 q 227 576 229 566 q 231 557 232 555 q 233 553 238 544 q 242 535 248 524 q 253 514 258 505 q 262 496 263 494 q 266 487 270 473 q 275 459 280 444 q 285 430 289 418 q 293 405 294 401 q 294 400 295 390 q 296 380 297 368 q 298 355 299 342 q 300 329 300 321 l 300 304 l 300 290 q 300 284 298 270 q 296 255 294 240 q 292 224 290 210 q 289 196 288 191 q 287 188 285 181 q 283 174 282 173 q 280 170 275 165 q 270 160 265 155 q 260 150 256 146 q 252 142 251 142 q 250 142 244 142 q 238 141 235 141 q 230 141 222 142 q 215 142 214 142 q 212 142 208 144 q 203 146 201 148 l 183 166 q 178 171 169 183 q 160 195 158 197 q 157 198 154 204 q 152 210 149 216 q 146 222 144 228 q 141 233 140 234 q 138 236 134 244 q 129 251 127 253 l 121 259 q 120 260 116 262 q 111 264 109 265 q 103 267 92 272 q 80 277 78 278 l 72 278 l 66 278 q 64 277 59 276 q 54 274 49 272 q 44 269 40 268 q 36 266 35 265 q 33 264 28 260 q 24 255 22 253 q 20 249 16 240 q 11 230 10 228 q 10 228 10 222 q 9 217 9 214 q 9 200 12 189 q 15 178 22 166 q 24 164 28 157 q 33 150 35 148 q 37 145 40 140 q 44 136 48 131 q 52 126 55 122 q 58 118 59 117 q 64 112 76 100 q 88 87 102 74 q 116 60 128 48 q 141 35 146 31 z"},"V":{"x_min":0,"x_max":631,"ha":631,"o":"m 22 487 q 28 481 42 466 q 56 452 72 436 q 88 419 102 404 q 116 389 121 383 q 122 382 126 378 q 129 374 133 369 q 137 364 140 359 q 144 354 146 352 q 147 350 151 344 q 155 338 160 332 q 165 325 170 318 q 175 311 177 308 q 179 305 182 300 q 186 294 190 288 q 194 282 197 277 q 200 272 201 271 q 202 269 206 263 q 210 257 214 250 q 217 243 220 237 q 224 231 226 228 q 229 223 234 214 q 238 204 243 194 q 248 185 252 177 q 256 169 257 167 q 258 165 260 154 q 262 144 263 142 q 265 137 269 123 q 273 109 275 105 q 276 103 278 98 q 280 94 281 93 q 283 89 290 80 q 298 70 300 68 q 303 64 310 57 q 317 50 319 49 q 320 48 334 44 q 348 39 356 37 l 358 37 l 362 37 q 367 38 379 40 q 391 42 393 43 l 405 49 q 408 52 415 59 q 422 66 423 68 q 425 71 428 76 q 431 82 434 88 q 437 94 440 98 q 442 103 442 105 q 443 109 444 118 q 445 128 446 138 q 447 149 448 159 q 448 169 448 173 q 451 180 458 198 q 464 215 472 234 q 480 254 487 272 q 494 289 497 296 q 498 299 504 312 q 511 325 519 340 q 527 356 535 372 q 543 387 547 395 q 547 396 550 402 q 553 407 557 414 q 561 420 565 427 q 569 434 571 438 q 572 440 575 445 q 578 450 581 455 q 584 460 586 464 q 589 468 590 469 q 591 470 594 476 q 598 481 602 488 q 606 494 610 499 q 614 504 615 506 q 616 508 618 512 q 621 517 621 518 l 621 542 l 621 568 q 620 571 618 580 q 616 590 615 592 q 614 594 609 598 q 604 603 602 605 q 601 606 596 608 q 592 610 590 611 q 583 613 569 618 q 555 623 553 623 q 552 623 546 624 q 541 624 538 624 q 535 624 529 624 q 523 623 522 623 q 521 623 516 621 q 512 619 510 617 q 508 615 500 610 q 493 606 491 605 q 490 604 488 602 q 486 600 485 598 q 482 593 475 579 q 468 565 460 550 q 452 534 446 520 q 439 506 436 500 q 434 497 430 486 q 425 474 423 469 q 422 466 418 456 q 415 445 411 432 q 407 419 404 408 q 400 398 399 395 q 398 393 396 386 q 393 380 390 373 q 386 366 384 360 q 381 353 380 352 q 380 351 378 346 q 376 342 374 336 q 372 331 370 326 q 368 322 368 321 q 366 317 362 308 q 357 298 356 296 q 355 295 352 292 q 350 290 349 290 q 349 290 347 290 q 345 289 343 289 q 341 289 339 290 q 337 290 337 290 q 335 291 331 296 q 327 300 325 302 q 322 305 313 319 q 304 333 294 348 q 283 364 274 378 q 265 392 263 395 q 260 399 254 408 q 247 418 240 428 q 234 437 228 446 q 222 454 220 457 q 219 458 215 462 q 211 467 207 472 q 203 477 200 482 q 196 486 195 487 q 193 489 187 498 q 181 507 174 518 q 166 528 160 538 q 153 547 152 549 q 151 550 149 552 q 147 555 146 555 q 144 557 134 562 q 124 566 121 568 q 119 568 112 570 q 105 573 103 574 q 98 575 89 578 q 80 580 78 580 l 66 580 l 53 580 q 51 578 46 573 q 40 568 34 562 q 28 556 23 550 q 18 545 16 543 q 15 542 13 535 q 11 528 10 524 l 10 521 l 10 518 q 12 510 15 502 q 18 494 22 487 z"},"\"":{"x_min":0,"x_max":286,"ha":286,"o":"m 9 640 q 9 636 9 628 q 9 621 10 613 q 10 605 10 599 q 10 593 10 592 q 10 590 13 583 q 16 576 16 574 q 16 572 17 566 q 18 559 19 552 q 20 545 21 538 q 22 532 22 530 q 23 525 26 513 q 28 501 29 499 q 29 498 31 494 q 33 489 35 487 q 37 484 42 477 q 46 470 47 469 q 49 467 54 462 q 58 458 59 456 q 61 454 66 452 q 70 450 72 450 q 73 450 82 450 q 91 449 96 449 q 101 449 108 450 q 115 450 115 450 q 118 451 122 455 q 127 459 132 464 q 137 469 141 474 q 145 478 146 481 l 152 481 l 158 481 q 160 481 164 478 q 169 475 171 475 q 174 473 184 471 q 193 469 195 469 q 196 468 202 468 q 209 468 212 468 q 215 468 220 468 q 226 468 226 469 q 228 469 235 474 q 242 479 245 481 q 247 483 252 488 q 256 492 257 493 q 259 496 264 506 q 269 516 270 518 q 271 522 273 536 q 275 550 276 555 l 276 583 l 276 605 q 276 606 274 611 q 271 616 268 622 q 265 628 262 634 q 259 639 257 642 q 255 645 250 650 q 246 654 241 659 q 236 664 232 668 q 227 672 226 673 l 213 673 l 195 673 q 193 672 184 670 q 174 668 171 666 q 169 666 164 664 q 160 661 158 660 l 152 660 l 146 660 q 144 662 139 666 q 134 671 128 676 q 122 681 116 685 q 111 689 109 691 q 107 693 102 695 q 98 697 97 697 q 96 697 92 698 q 87 698 81 698 q 75 698 69 698 q 63 698 60 698 q 55 698 45 698 q 35 698 35 697 l 10 673 q 10 672 10 660 q 9 647 9 640 z"},"7":{"x_min":0,"x_max":465,"ha":465,"o":"m 152 83 l 152 80 q 153 76 155 67 q 157 58 158 56 q 160 52 164 42 q 169 33 171 31 q 172 29 179 22 q 186 14 189 12 q 190 12 195 10 q 200 7 202 6 q 204 5 211 2 q 218 0 220 0 l 226 0 l 232 0 q 234 0 241 2 q 248 5 251 6 q 253 7 258 10 q 262 12 263 12 q 268 16 277 26 q 286 35 288 37 q 289 39 296 53 q 303 67 307 74 q 308 76 310 82 q 313 88 316 95 q 319 102 322 108 q 324 114 325 117 q 326 119 328 126 q 331 134 331 136 q 332 139 334 150 q 337 160 340 173 q 344 186 346 196 q 349 207 350 210 q 350 212 353 221 q 356 230 359 240 q 362 251 365 260 q 368 270 368 272 q 369 276 374 291 q 378 306 384 324 q 389 342 394 358 q 398 373 399 377 q 400 381 403 390 q 406 400 409 410 q 412 420 414 428 q 417 437 418 439 q 419 441 421 448 q 423 455 424 457 q 425 459 428 468 q 432 477 436 488 q 441 498 444 508 q 448 517 449 519 q 449 520 450 525 q 451 530 452 536 q 453 542 454 548 q 455 553 455 556 l 455 566 l 455 575 l 449 587 l 424 612 l 412 618 q 402 618 378 618 q 353 617 325 617 q 298 617 274 618 q 249 618 239 618 q 238 618 233 618 q 228 619 222 620 q 216 621 210 622 q 205 623 202 624 q 198 625 188 627 q 179 629 177 630 q 176 630 172 632 q 167 634 162 636 q 156 638 152 640 q 147 642 146 643 q 142 644 136 646 q 129 648 122 650 q 115 652 110 654 q 104 655 103 655 q 101 655 94 656 q 87 656 83 656 q 79 656 72 656 q 66 655 66 655 q 64 654 52 647 q 40 640 35 636 q 33 635 28 630 q 24 626 22 624 q 21 623 19 618 q 17 614 16 612 q 15 610 13 600 q 11 591 10 587 l 10 584 l 10 581 q 11 578 13 571 q 15 564 16 562 q 18 560 22 553 q 27 546 29 544 q 31 541 38 534 q 45 527 47 525 q 49 524 58 520 q 67 515 72 513 q 74 511 81 509 q 88 507 90 507 q 92 507 101 506 q 110 505 120 504 q 131 502 140 501 q 150 500 152 500 q 154 500 162 499 q 169 498 177 497 q 185 496 192 495 q 200 494 202 494 q 204 494 214 493 q 224 492 236 491 q 247 490 257 489 q 267 488 269 488 q 271 488 276 486 q 280 484 282 482 q 283 481 286 479 q 288 477 288 476 l 288 473 l 288 470 q 288 468 286 458 q 283 449 282 445 q 269 397 252 352 q 236 306 220 259 q 219 256 216 246 q 212 235 208 222 q 204 209 200 198 q 196 188 195 185 q 194 182 188 172 q 183 161 177 148 q 171 136 165 125 q 159 114 158 111 q 158 110 156 100 q 153 91 152 86 z"},"S":{"x_min":0,"x_max":403,"ha":403,"o":"m 15 122 q 15 117 16 108 q 16 100 16 98 q 16 97 18 90 q 21 83 22 80 q 23 78 26 73 q 28 68 29 67 q 32 63 42 54 q 51 45 53 43 q 54 42 61 40 q 68 38 72 37 q 79 35 91 32 q 103 28 115 25 q 127 22 136 20 q 145 18 146 18 q 147 18 158 18 q 169 17 175 17 q 181 17 194 18 q 206 18 208 18 q 210 18 220 20 q 229 23 232 24 q 233 25 239 27 q 245 29 252 32 q 259 35 266 38 q 272 41 276 43 q 281 45 290 50 q 299 54 300 55 q 303 57 309 62 q 315 67 322 73 q 329 79 335 84 q 341 90 343 92 q 345 94 352 104 q 360 113 362 117 q 364 119 368 128 q 372 138 374 141 q 375 143 377 150 q 379 157 380 160 q 381 164 384 171 q 386 178 388 185 q 390 192 392 198 q 393 203 393 203 l 393 215 l 393 228 l 387 246 q 386 248 381 255 q 376 262 374 265 q 373 266 370 270 q 366 275 362 280 q 358 286 354 290 q 351 295 350 296 q 348 298 344 306 q 339 313 337 314 q 337 315 334 318 q 332 320 331 321 q 324 327 313 336 q 302 345 291 354 q 280 363 272 370 q 264 376 263 376 q 262 377 256 380 q 250 383 242 387 q 234 391 226 395 q 218 399 214 401 q 213 401 208 403 q 204 405 198 407 q 193 409 188 411 q 184 413 183 413 q 181 414 176 416 q 171 419 171 419 q 167 422 160 429 q 153 436 152 438 q 152 438 152 440 q 151 442 151 444 q 151 445 152 448 q 152 450 152 450 q 153 452 158 456 q 162 461 164 463 q 169 465 180 470 q 192 474 195 475 q 200 476 214 477 q 227 478 242 479 q 256 480 270 480 q 283 481 288 481 q 291 483 297 489 q 303 495 310 502 q 317 509 323 515 q 329 521 331 524 q 333 526 335 530 q 337 535 337 537 q 337 537 338 541 q 338 545 338 547 q 338 549 338 552 q 337 555 337 555 q 337 556 334 561 q 330 566 326 572 q 323 578 319 584 q 315 589 313 592 q 311 595 304 602 q 296 609 294 611 q 291 613 281 618 q 271 623 269 623 q 268 623 259 624 q 250 624 245 624 q 240 624 230 624 q 221 623 220 623 q 219 623 208 620 q 197 617 182 614 q 168 610 152 606 q 137 601 127 598 q 122 597 115 595 q 108 593 102 591 q 95 589 90 588 q 84 586 84 586 q 82 585 72 578 q 63 571 59 568 q 56 565 50 559 q 44 553 38 547 q 32 541 28 536 q 23 531 22 530 q 21 528 19 524 q 17 519 15 513 q 13 507 12 502 q 10 496 10 493 q 10 492 10 478 q 9 464 9 456 q 9 449 10 435 q 10 421 10 419 q 10 418 15 406 q 20 394 22 388 q 24 383 29 374 q 34 365 35 364 q 37 362 46 352 q 55 343 59 339 q 63 336 72 329 q 82 322 84 321 q 85 320 90 318 q 94 316 100 314 q 105 312 110 310 q 114 308 115 308 q 116 307 122 304 q 129 302 136 299 q 144 296 150 293 q 156 290 158 290 q 160 289 170 286 q 181 284 183 284 q 184 283 188 281 q 193 279 195 277 q 198 275 205 270 q 212 266 214 265 q 217 262 226 252 q 236 243 238 240 q 240 238 242 234 q 244 230 245 228 l 245 211 l 245 197 q 243 195 234 186 q 225 176 220 172 q 218 171 209 166 q 200 162 195 160 q 192 158 185 156 q 178 154 177 154 q 176 154 170 154 q 164 153 161 153 q 159 153 153 154 q 147 154 146 154 q 144 154 134 156 q 125 158 121 160 q 120 160 115 163 q 110 166 109 166 q 108 166 96 166 q 84 167 78 167 q 72 167 60 166 q 48 166 47 166 q 45 166 41 164 q 37 162 35 160 q 31 157 24 150 q 17 143 16 141 q 16 141 16 134 q 15 127 15 122 z"},"}":{"x_min":0,"x_max":409,"ha":409,"o":"m 71 126 q 71 124 72 120 q 72 117 72 117 q 73 114 78 104 q 82 95 84 92 q 86 90 96 80 q 105 71 109 68 q 111 66 118 62 q 125 57 127 55 q 132 53 144 48 q 155 44 158 43 l 166 43 l 177 43 q 182 43 190 44 q 199 45 208 46 q 217 47 224 48 q 231 49 232 49 q 235 50 244 55 q 254 60 257 62 q 258 63 262 67 q 266 71 271 76 q 276 80 281 85 q 286 90 288 92 q 289 94 294 101 q 298 108 300 111 q 305 118 308 126 q 310 134 312 142 q 314 147 316 158 q 318 170 319 173 q 319 178 320 190 q 321 202 322 216 q 323 230 324 242 q 325 254 325 259 q 325 260 328 262 q 330 265 331 265 q 332 266 338 268 q 343 269 350 272 q 356 274 362 276 q 367 277 368 278 q 370 279 380 288 q 389 297 393 302 q 394 304 396 308 q 399 313 399 315 l 399 331 l 399 345 q 399 346 394 353 q 389 360 386 364 q 385 365 383 368 q 381 370 380 370 q 378 371 369 376 q 360 380 356 382 q 354 383 348 386 q 341 388 334 391 q 326 394 320 397 q 313 400 312 401 q 310 403 301 412 q 292 421 288 426 q 287 426 285 431 q 283 436 282 438 q 281 439 278 446 q 276 452 272 460 q 269 467 266 473 q 264 479 263 481 q 260 488 252 504 q 244 520 235 538 q 226 555 218 570 q 211 586 208 592 q 207 593 202 600 q 197 607 195 611 q 191 617 184 627 q 177 637 170 647 q 163 657 158 664 q 152 672 152 673 q 150 675 142 682 q 135 689 133 691 q 130 693 120 698 q 111 703 109 703 q 108 704 97 704 q 86 704 80 704 q 73 704 60 704 q 48 704 47 703 q 45 703 41 701 q 37 699 35 697 q 33 695 26 688 q 18 681 16 679 q 15 677 12 672 q 10 668 10 666 l 10 648 q 10 633 12 622 q 14 612 22 598 q 24 596 28 589 q 33 582 35 580 q 37 577 46 566 q 55 556 66 543 q 76 530 85 520 q 94 509 96 506 q 98 504 102 496 q 107 489 109 487 q 112 482 116 472 q 121 463 126 454 q 131 444 135 436 q 139 428 140 426 q 141 424 143 412 q 145 400 146 395 q 146 393 147 384 q 148 374 149 364 q 150 353 151 344 q 152 335 152 333 q 152 331 157 320 q 162 308 164 302 q 165 300 170 290 q 176 280 177 278 q 177 276 180 266 q 182 257 183 253 l 183 250 l 183 247 q 182 242 181 235 q 180 228 179 221 q 178 214 178 209 q 177 204 177 203 q 175 200 170 190 q 166 181 164 179 q 164 178 159 176 q 154 174 152 173 q 150 172 140 170 q 131 167 127 166 q 126 166 120 166 q 115 165 109 164 q 103 163 97 162 q 91 161 90 160 q 89 160 84 155 q 80 150 78 148 q 76 146 74 142 q 72 137 72 136 q 72 135 72 132 q 71 128 71 126 z"},"Z":{"x_min":0,"x_max":662,"ha":662,"o":"m 9 87 q 9 85 10 80 q 10 75 10 74 q 11 71 14 64 q 16 58 19 52 q 22 45 24 39 q 27 33 29 31 q 30 30 34 26 q 37 22 42 17 q 47 12 52 7 q 56 2 59 0 q 61 -2 66 -4 q 70 -6 72 -6 q 73 -6 84 -6 q 95 -7 100 -7 q 105 -7 116 -6 q 126 -6 127 -6 q 129 -6 136 -4 q 142 -2 149 0 q 156 2 162 4 q 168 6 170 6 q 173 7 178 8 q 184 9 190 10 q 196 11 201 12 q 206 13 207 13 l 602 13 q 604 13 608 15 q 613 17 615 19 q 618 21 625 28 q 632 35 633 37 q 634 39 636 46 q 639 54 639 56 q 640 57 642 62 q 644 66 646 71 q 648 76 650 80 q 652 85 652 87 l 652 96 l 652 105 q 651 107 646 116 q 642 126 639 130 q 639 131 637 133 q 635 135 633 136 q 631 138 624 142 q 617 147 615 148 q 610 151 598 156 q 586 160 584 161 l 558 161 l 528 161 q 527 161 522 160 q 518 159 513 158 q 508 156 504 155 q 499 154 498 154 q 495 154 487 153 q 479 152 470 151 q 461 150 453 149 q 445 148 442 148 q 435 148 422 147 q 408 146 394 145 q 381 144 370 143 q 359 142 356 142 l 303 142 l 251 142 q 249 142 244 144 q 240 146 238 148 l 238 154 l 238 161 q 239 162 241 166 q 243 171 245 173 q 249 179 258 190 q 266 202 275 214 q 284 225 291 234 q 298 244 300 247 q 303 251 318 268 q 332 284 349 302 q 366 321 380 338 q 395 354 399 358 q 400 360 406 368 q 413 375 420 383 q 428 391 434 398 q 440 405 442 407 q 444 410 448 414 q 453 419 458 424 q 463 429 467 433 q 471 437 473 438 q 474 440 481 444 q 488 449 491 451 q 493 451 498 454 q 503 456 504 457 q 507 459 514 464 q 521 468 522 469 q 526 472 533 479 q 540 486 541 488 q 541 489 544 496 q 546 502 549 511 q 552 520 554 529 q 557 538 559 543 l 559 546 l 559 549 q 557 553 553 562 q 549 572 547 574 q 545 576 538 584 q 531 591 528 593 q 527 594 522 596 q 518 598 516 599 q 513 599 508 600 q 502 601 496 602 q 490 603 485 604 q 480 605 479 605 l 362 605 q 359 605 352 606 q 344 607 336 608 q 327 609 318 610 q 310 611 306 611 q 304 611 295 613 q 286 615 276 618 q 265 620 256 622 q 247 623 245 623 q 244 623 236 624 q 229 625 220 626 q 210 627 200 628 q 189 629 183 630 q 178 630 168 631 q 158 632 147 633 q 136 634 127 635 q 118 636 115 636 l 111 636 l 109 636 q 103 634 92 630 q 80 625 78 623 q 76 622 66 612 q 57 603 53 599 q 52 597 50 592 q 47 588 47 586 l 47 577 l 47 568 q 47 566 50 559 q 52 552 53 549 q 55 544 60 535 q 65 526 66 525 q 67 524 72 520 q 76 516 82 511 q 88 506 94 501 q 100 496 103 494 q 105 492 110 490 q 114 488 115 488 l 294 488 q 295 488 300 486 q 304 483 306 482 q 308 480 310 478 q 312 476 312 475 q 313 475 313 473 q 313 471 313 469 q 313 468 313 465 q 313 463 312 463 q 312 462 307 455 q 302 448 300 445 q 297 440 290 431 q 283 422 282 420 q 280 418 274 410 q 267 403 260 395 q 253 387 246 380 q 240 372 238 370 q 237 369 234 364 q 230 360 226 355 q 222 350 218 346 q 215 341 214 340 q 212 337 204 328 q 195 319 186 308 q 176 298 168 289 q 160 280 158 278 q 157 276 150 267 q 143 258 140 253 q 138 251 134 244 q 129 236 127 235 q 124 230 118 222 q 112 214 106 206 q 100 198 96 192 q 91 186 90 185 q 86 180 74 168 q 63 155 50 142 q 38 128 26 116 q 15 103 10 99 q 10 97 10 92 q 9 88 9 87 z"},"x":{"x_min":0,"x_max":335,"ha":335,"o":"m 34 106 q 34 104 34 98 q 34 93 35 92 q 35 90 37 83 q 39 76 41 73 q 42 71 44 66 q 46 62 47 61 q 50 58 54 53 q 59 48 64 43 q 69 38 73 34 q 77 30 78 30 q 78 30 83 30 q 88 29 91 29 q 94 29 101 30 q 108 30 109 30 q 111 30 120 32 q 130 35 133 36 q 135 37 140 39 q 144 41 146 42 q 148 44 154 48 q 159 53 165 58 q 171 62 176 66 q 181 71 183 73 l 201 73 q 203 71 209 66 q 215 61 222 56 q 229 51 236 47 q 242 43 245 42 q 245 42 250 42 q 256 41 259 41 q 262 41 268 42 q 274 42 275 42 q 279 43 290 48 q 302 53 306 55 q 308 56 312 60 q 317 65 319 67 q 320 69 322 76 q 324 83 325 86 l 325 101 l 325 116 q 325 117 322 122 q 320 127 319 129 q 318 131 314 136 q 311 141 307 147 q 303 153 299 158 q 295 164 294 166 q 293 167 290 170 q 288 174 284 178 q 281 182 278 186 q 276 190 275 191 q 274 192 272 196 q 270 201 269 203 l 269 206 l 269 209 q 270 211 272 216 q 274 220 275 221 q 276 222 278 226 q 281 230 284 234 q 288 238 290 242 q 293 245 294 246 q 296 249 301 256 q 306 263 306 265 q 308 267 310 274 q 312 281 312 283 q 313 283 313 285 q 313 288 313 289 q 313 291 313 293 q 313 295 312 295 q 311 300 309 310 q 307 319 306 320 q 305 322 301 326 q 297 331 292 336 q 287 340 282 344 q 278 349 275 351 q 275 352 268 354 q 261 356 257 357 q 254 358 242 360 q 231 362 226 363 l 223 363 l 220 363 q 214 362 202 360 q 190 358 189 357 q 188 357 184 352 q 179 347 177 345 q 175 343 170 336 q 166 328 164 326 l 158 320 l 155 320 l 152 320 q 150 321 143 324 q 136 328 128 332 q 119 337 112 341 q 105 345 103 345 q 102 345 92 346 q 83 346 78 346 q 72 346 60 346 q 49 345 47 345 q 45 345 38 342 q 31 340 29 339 q 25 336 18 329 q 11 322 10 320 q 10 320 10 312 q 9 304 9 300 q 9 295 10 286 q 10 278 10 277 q 11 273 16 261 q 20 249 22 246 q 24 244 33 234 q 42 225 47 221 q 49 220 56 215 q 64 210 66 209 q 71 205 80 198 q 90 191 90 191 q 91 190 91 188 q 91 186 91 184 q 91 183 91 181 q 91 179 90 178 l 35 116 q 34 116 34 112 q 34 108 34 106 z"},")":{"x_min":0,"x_max":323,"ha":323,"o":"m 22 79 l 22 56 q 23 54 25 44 q 27 35 29 31 q 29 29 32 24 q 34 20 35 19 q 37 16 46 6 q 56 -3 59 -6 q 61 -7 66 -10 q 70 -12 72 -12 l 90 -12 l 109 -12 q 111 -12 118 -10 q 125 -7 127 -6 q 128 -5 132 -2 q 136 0 140 4 q 144 7 148 10 q 151 12 152 13 q 155 14 165 20 q 175 25 186 32 q 197 38 207 43 q 217 48 220 50 q 223 52 230 56 q 237 61 239 62 q 244 67 253 76 q 262 84 270 93 q 279 102 286 109 q 293 116 294 118 q 296 120 299 127 q 302 134 305 142 q 308 150 310 157 q 313 164 313 167 q 313 169 314 184 q 314 198 314 206 q 314 210 314 216 q 314 223 314 230 q 313 236 313 241 q 313 247 313 248 q 313 251 310 264 q 308 278 305 296 q 302 314 299 332 q 296 349 294 359 q 293 363 292 372 q 290 381 288 390 q 286 398 284 405 q 282 412 282 414 q 282 415 280 420 q 277 425 274 432 q 271 439 268 446 q 265 453 263 458 q 263 459 260 464 q 258 469 257 470 q 257 471 255 476 q 253 480 251 486 q 249 491 247 496 q 245 500 245 501 q 243 503 238 513 q 234 523 232 526 q 231 527 228 533 q 225 539 221 546 q 217 552 214 559 q 210 566 208 569 q 205 574 198 586 q 191 598 189 600 q 186 605 180 614 q 175 622 169 631 q 163 640 158 647 q 153 654 152 655 q 150 658 140 668 q 131 677 127 680 q 127 681 122 683 q 117 685 115 686 q 112 688 105 690 q 98 692 97 693 l 78 693 l 59 693 q 58 692 54 690 q 49 688 47 686 q 45 684 42 680 q 38 677 34 674 q 30 670 26 666 q 23 663 22 662 q 20 659 16 650 q 11 640 10 637 l 10 625 l 10 612 q 10 610 12 600 q 15 591 16 587 q 17 586 19 582 q 21 577 22 575 q 25 571 32 562 q 39 552 41 550 q 43 548 50 541 q 58 534 66 526 q 74 517 81 510 q 88 503 90 501 q 91 500 94 495 q 98 490 102 484 q 106 478 110 472 q 113 467 115 464 q 118 460 122 452 q 127 443 132 434 q 137 425 141 418 q 145 410 146 408 q 146 407 148 402 q 150 397 152 391 q 154 385 156 380 q 157 374 158 371 q 159 369 160 362 q 162 356 164 348 q 166 340 168 332 q 170 325 171 322 q 172 316 174 304 q 177 292 177 291 l 177 251 l 177 210 q 175 208 171 204 q 167 199 162 194 q 157 190 152 186 q 148 181 146 180 q 145 179 136 174 q 126 169 121 167 q 120 167 116 165 q 112 163 107 161 q 102 159 97 158 q 92 156 90 155 q 89 154 81 152 q 73 150 72 149 q 70 147 60 140 q 51 133 47 130 q 45 128 40 124 q 36 120 35 118 q 32 114 28 107 q 23 100 22 99 z"},"&":{"x_min":0,"x_max":471,"ha":471,"o":"m 9 190 q 9 187 10 180 q 10 174 10 173 q 11 170 14 162 q 16 154 19 146 q 22 137 24 129 q 27 121 29 118 q 29 116 36 107 q 43 98 47 93 q 49 91 54 86 q 58 82 59 81 q 61 79 70 74 q 80 70 84 68 q 86 67 93 65 q 100 63 103 62 q 105 61 114 59 q 124 57 127 56 q 129 56 138 54 q 146 52 156 50 q 165 48 173 46 q 181 45 183 44 q 184 43 188 39 q 192 35 197 30 q 202 25 207 20 q 212 16 214 13 q 215 11 220 2 q 224 -7 226 -12 q 226 -13 228 -18 q 230 -22 232 -28 q 234 -33 236 -38 q 238 -42 239 -43 q 241 -47 245 -56 q 249 -66 251 -68 q 253 -71 257 -77 q 261 -83 265 -89 q 269 -95 272 -100 q 275 -104 276 -105 q 277 -106 286 -110 q 295 -115 300 -117 l 303 -117 l 306 -117 q 310 -116 320 -114 q 329 -112 331 -111 q 333 -110 338 -108 q 343 -105 343 -105 q 346 -102 350 -92 q 355 -83 356 -80 l 356 -61 l 356 -37 q 356 -35 355 -28 q 354 -20 353 -12 q 352 -4 351 4 q 350 11 350 13 q 350 14 350 21 q 349 28 349 31 q 349 34 350 38 q 350 43 350 44 l 362 53 l 448 53 l 461 68 l 461 149 q 461 150 454 157 q 447 164 442 167 q 439 169 430 174 q 420 179 418 179 q 416 180 405 180 q 395 180 390 180 q 385 180 374 180 q 363 180 362 179 q 359 179 349 176 q 339 173 328 170 q 317 167 307 164 q 297 161 294 161 q 293 161 285 160 q 277 160 266 160 q 256 160 245 160 q 235 160 229 160 q 226 160 216 160 q 207 160 196 160 q 186 160 177 160 q 168 161 164 161 q 162 161 155 164 q 148 166 146 167 q 144 168 142 170 q 140 172 140 173 q 140 174 140 181 q 139 188 139 192 q 139 195 140 202 q 140 210 140 210 q 140 212 142 216 q 144 221 146 223 l 183 260 q 185 261 192 266 q 199 270 201 272 q 204 274 214 278 q 223 283 226 284 q 228 285 235 288 q 242 290 245 291 q 250 292 259 294 q 268 297 269 297 q 273 297 286 297 q 300 297 316 297 q 332 297 345 297 q 359 297 362 297 q 366 297 376 299 q 385 301 387 303 q 389 304 396 311 q 403 318 405 321 q 407 323 409 328 q 411 332 411 334 q 412 335 412 343 q 412 351 412 355 q 412 360 412 368 q 412 376 411 377 q 411 380 409 387 q 407 394 405 396 q 403 399 394 408 q 384 418 381 420 q 379 422 372 424 q 364 426 362 426 l 220 426 q 218 427 206 429 q 194 431 189 433 q 187 433 182 436 q 178 438 177 439 q 173 441 166 448 q 159 455 158 457 q 158 458 158 460 q 157 462 157 464 q 157 464 158 466 q 158 469 158 470 q 160 472 165 478 q 170 483 176 489 q 182 495 188 500 q 193 505 195 507 q 198 509 208 514 q 217 518 220 519 q 222 519 230 520 q 237 521 245 522 q 253 523 260 524 q 267 525 269 525 q 271 526 278 528 q 286 531 288 531 q 290 531 299 532 q 308 533 318 534 q 329 536 338 537 q 348 538 350 538 q 351 538 356 540 q 360 542 362 544 q 365 546 372 553 q 379 560 381 562 q 382 564 386 574 q 391 583 393 587 l 393 590 l 393 593 q 392 595 390 600 q 388 604 387 606 q 386 606 384 608 q 382 611 381 612 q 379 613 374 617 q 369 621 364 625 q 359 629 355 632 q 351 635 350 636 q 347 638 340 643 q 333 648 331 649 q 330 649 324 651 q 319 653 313 655 q 307 657 301 659 q 295 661 294 661 q 292 662 287 664 q 282 667 282 667 q 281 668 280 674 q 278 680 276 686 q 273 692 272 698 q 270 703 269 704 q 268 706 266 711 q 264 716 263 717 q 260 721 250 730 q 241 739 239 741 q 237 743 228 748 q 219 752 214 754 q 211 755 204 758 q 197 760 195 760 l 183 760 l 171 760 q 169 760 164 758 q 160 755 158 754 q 156 752 152 748 q 147 743 146 741 q 144 739 142 734 q 140 730 140 729 l 140 624 q 140 623 138 618 q 135 614 134 612 l 121 599 q 119 598 113 594 q 107 589 100 584 q 92 579 86 574 q 79 570 78 569 q 70 562 64 554 q 58 546 53 538 q 52 536 50 532 q 48 527 47 525 q 45 522 43 515 q 41 508 41 507 q 41 506 40 500 q 40 495 40 492 q 40 489 40 483 q 41 477 41 476 q 41 472 44 460 q 46 448 47 445 q 48 443 52 434 q 57 424 59 420 q 61 418 66 411 q 70 404 72 402 q 73 401 76 396 q 80 392 84 386 q 89 381 92 376 q 96 372 96 371 q 97 371 97 368 q 97 366 97 365 q 97 364 97 361 q 97 359 96 359 q 92 355 80 344 q 69 332 66 328 q 64 326 60 321 q 57 316 54 310 q 50 304 46 298 q 42 293 41 291 q 39 287 35 280 q 31 272 27 264 q 23 257 20 250 q 17 243 16 241 q 15 239 13 227 q 11 215 10 210 q 10 209 10 202 q 9 194 9 190 z"},"_":{"x_min":0,"x_max":434,"ha":434,"o":"m 9 -50 q 9 -52 10 -56 q 10 -61 10 -61 q 11 -64 16 -74 q 20 -83 22 -86 l 47 -111 q 50 -113 60 -118 q 70 -122 72 -123 l 92 -123 l 121 -123 q 130 -123 149 -122 q 168 -122 192 -122 q 215 -121 242 -120 q 268 -119 292 -118 q 315 -118 334 -118 q 353 -117 362 -117 q 365 -115 374 -110 q 384 -106 387 -104 q 391 -102 400 -95 q 410 -88 411 -86 q 413 -84 418 -74 q 423 -65 424 -61 l 424 -53 l 424 -43 q 424 -41 422 -34 q 419 -27 418 -24 q 416 -19 413 -14 q 410 -9 405 -6 q 404 -5 400 -2 q 395 0 393 1 q 390 2 384 4 q 379 5 373 7 q 367 9 362 11 q 357 13 356 13 l 350 13 l 344 13 q 342 13 334 12 q 327 11 319 10 q 311 9 304 8 q 296 7 294 7 q 293 7 280 6 q 266 6 259 6 q 211 6 164 10 q 117 13 69 13 l 53 13 q 51 13 42 8 q 33 3 29 1 q 24 -2 21 -8 q 18 -13 16 -18 q 15 -21 12 -28 q 10 -35 10 -37 q 10 -37 10 -42 q 9 -47 9 -50 z"},"v":{"x_min":0,"x_max":415,"ha":415,"o":"m 10 308 l 10 301 q 11 299 13 292 q 15 285 16 283 q 17 281 20 276 q 23 272 27 266 q 31 260 35 254 q 39 249 41 246 q 42 245 46 240 q 49 236 53 230 q 57 225 61 220 q 65 216 66 215 q 68 212 74 202 q 81 192 89 180 q 97 168 104 157 q 112 146 115 141 q 116 140 118 136 q 120 131 121 129 q 121 128 123 124 q 125 119 127 114 q 129 108 131 104 q 133 99 133 98 q 135 96 137 91 q 139 86 140 86 q 143 83 149 76 q 155 69 162 62 q 169 56 175 50 q 181 44 183 42 q 185 40 194 36 q 204 31 207 30 q 208 30 214 30 q 219 29 222 29 q 225 29 231 30 q 237 30 238 30 q 240 30 244 32 q 249 35 251 36 q 253 37 258 42 q 262 46 266 51 q 271 56 275 60 q 279 65 281 67 q 282 68 284 72 q 287 77 288 79 q 288 80 290 86 q 292 92 294 98 q 296 104 298 110 q 300 115 300 116 q 302 123 307 134 q 312 146 312 147 q 313 149 318 156 q 324 162 330 169 q 337 176 342 182 q 348 188 349 190 q 351 192 358 202 q 365 211 368 215 q 370 218 374 225 q 379 232 380 234 q 383 238 387 246 q 391 254 395 262 q 399 270 402 276 q 405 282 405 283 q 405 284 406 290 q 406 296 406 300 q 406 304 406 312 q 405 319 405 320 q 405 322 402 326 q 400 330 399 332 q 397 334 392 338 q 388 343 384 348 q 379 353 374 357 q 370 361 368 363 q 366 365 362 367 q 357 369 355 369 q 354 369 344 370 q 333 370 328 370 q 322 370 312 370 q 301 369 300 369 q 298 369 294 367 q 290 365 288 363 q 285 361 278 354 q 271 347 269 345 q 269 344 266 338 q 262 333 258 326 q 254 319 250 312 q 246 305 244 301 l 232 277 q 230 272 223 260 q 216 249 214 246 q 213 244 210 242 q 208 240 207 240 q 207 240 205 240 q 203 239 201 239 q 199 239 197 240 q 195 240 195 240 q 193 241 189 246 q 185 250 183 252 q 182 253 178 260 q 175 266 170 274 q 166 281 162 287 q 159 293 158 295 q 156 298 152 305 q 147 312 146 314 q 144 316 136 323 q 129 330 127 332 q 126 334 119 338 q 112 343 109 345 q 107 346 102 348 q 97 351 96 351 l 74 351 l 53 351 q 51 350 42 346 q 32 341 29 338 q 27 337 22 332 q 18 328 16 326 q 15 324 12 320 q 10 316 10 314 z"},"O":{"x_min":0,"x_max":569,"ha":569,"o":"m 10 330 l 10 314 q 10 309 11 299 q 12 289 13 278 q 14 267 15 258 q 16 249 16 247 q 16 244 18 236 q 20 229 22 220 q 24 211 26 203 q 27 195 28 191 q 29 190 31 186 q 33 181 35 179 q 37 175 44 163 q 51 151 53 148 q 55 144 59 138 q 63 132 67 126 q 71 120 74 116 q 78 111 78 111 q 80 108 88 100 q 95 93 104 84 q 113 75 121 67 q 129 59 133 55 q 134 55 139 52 q 144 50 146 49 q 148 48 158 46 q 167 44 170 43 q 175 42 189 40 q 203 38 207 37 l 213 37 l 220 37 q 225 37 234 38 q 242 39 251 40 q 260 41 267 42 q 274 43 275 43 q 276 43 281 45 q 286 47 292 49 q 298 51 304 52 q 309 54 312 55 q 313 56 318 58 q 323 61 329 64 q 335 67 340 70 q 346 72 349 74 q 351 75 357 78 q 363 82 370 86 q 377 90 383 94 q 389 97 392 99 q 395 101 402 105 q 409 109 411 111 q 414 113 420 118 q 425 123 431 128 q 437 133 442 137 q 447 141 448 142 q 449 143 458 154 q 467 166 472 173 q 475 176 482 186 q 489 195 491 197 q 493 200 498 207 q 502 214 503 216 q 504 219 508 226 q 512 233 516 240 q 520 248 524 255 q 527 262 528 265 q 529 266 531 273 q 533 280 534 284 q 535 286 536 292 q 538 298 540 305 q 542 312 544 318 q 546 324 546 327 q 548 330 550 340 q 552 349 553 351 q 554 357 556 369 q 559 381 559 382 l 559 404 l 559 425 q 559 428 558 434 q 557 439 556 445 q 555 451 554 456 q 553 461 553 462 q 551 466 544 480 q 537 494 534 499 q 534 500 531 504 q 528 508 524 513 q 520 518 516 522 q 512 527 509 530 q 508 532 506 534 q 504 536 503 536 q 500 538 494 543 q 488 548 481 553 q 474 558 468 562 q 462 566 460 567 q 459 568 454 570 q 450 572 448 573 q 445 574 435 579 q 425 584 414 589 q 403 594 393 598 q 383 603 380 604 q 375 606 366 611 q 356 616 355 617 l 331 641 q 329 643 324 645 q 320 647 318 647 q 317 648 306 648 q 296 648 291 648 q 286 648 275 648 q 264 648 263 647 q 261 647 252 645 q 242 643 238 641 q 236 641 230 638 q 224 636 218 633 q 211 630 204 627 q 198 624 195 623 q 191 621 184 618 q 176 614 168 610 q 160 606 154 602 q 147 599 146 598 q 143 596 134 589 q 124 582 121 580 q 118 577 112 571 q 106 565 99 558 q 92 551 86 545 q 80 539 78 536 q 76 535 72 528 q 67 521 65 518 q 63 515 59 506 q 55 497 50 488 q 45 478 40 469 q 36 460 35 456 q 34 455 32 448 q 30 441 28 438 q 27 434 25 427 q 23 420 21 413 q 19 406 18 401 q 16 396 16 395 q 16 393 15 386 q 14 379 13 371 q 12 363 11 356 q 10 348 10 345 z m 139 302 l 139 351 q 140 353 142 362 q 144 371 146 376 q 146 378 148 386 q 151 393 152 395 q 154 400 158 412 q 163 423 164 425 q 166 430 171 440 q 176 449 176 450 q 179 453 185 460 q 191 466 198 472 q 205 479 211 485 q 217 491 220 493 q 221 494 226 496 q 230 499 236 502 q 242 505 248 508 q 254 510 257 512 l 260 512 l 263 512 q 265 512 272 510 q 279 508 288 506 q 296 504 303 502 q 310 500 312 499 q 314 499 322 497 q 331 495 340 493 q 349 491 358 490 q 366 488 368 487 q 371 486 378 484 q 385 482 386 481 q 388 479 392 475 q 397 471 402 466 q 407 461 411 456 q 415 452 417 450 q 419 448 421 441 q 423 434 423 432 q 423 431 424 422 q 424 412 424 407 q 424 402 424 392 q 423 383 423 382 q 423 380 421 371 q 419 362 417 358 q 417 357 416 353 q 414 349 412 344 q 410 339 408 334 q 406 330 405 327 q 404 324 401 318 q 398 311 395 304 q 392 298 390 292 q 387 286 386 284 q 385 282 383 278 q 381 273 380 271 q 376 265 369 254 q 362 242 361 240 q 359 238 354 232 q 348 226 342 220 q 335 213 328 206 q 321 200 318 197 q 317 196 310 192 q 303 187 300 185 q 297 183 292 180 q 286 178 280 175 q 274 172 269 170 q 264 167 263 166 q 258 164 244 160 q 230 156 226 154 l 220 154 l 213 154 q 212 155 205 157 q 198 159 195 160 q 193 161 188 164 q 184 166 183 166 q 181 168 176 172 q 172 177 170 179 q 168 182 164 188 q 161 195 157 202 q 153 208 150 214 q 147 220 146 222 q 144 225 142 236 q 140 248 139 253 z"},"(":{"x_min":0,"x_max":335,"ha":335,"o":"m 10 333 l 10 327 q 10 324 11 317 q 12 310 13 302 q 14 294 15 287 q 16 280 16 278 q 17 272 19 261 q 21 250 23 239 q 25 228 27 220 q 29 211 29 210 q 30 207 33 200 q 36 192 40 184 q 44 176 48 170 q 51 163 53 161 q 55 158 64 148 q 74 139 86 127 q 98 115 110 104 q 121 92 127 86 q 131 83 142 74 q 153 64 166 54 q 178 43 190 33 q 202 23 208 19 q 209 18 214 16 q 218 13 220 12 q 225 10 239 6 q 253 1 257 0 l 260 0 l 263 0 q 267 1 276 3 q 286 5 288 6 q 290 7 294 9 q 299 11 300 12 q 304 15 311 22 q 318 29 319 31 q 320 33 322 45 q 324 57 325 62 l 325 81 l 325 99 q 325 101 322 105 q 320 109 319 111 l 288 142 q 285 144 276 152 q 266 159 263 161 q 261 162 253 166 q 245 171 236 176 q 226 181 218 186 q 210 190 208 191 q 205 193 198 198 q 191 202 189 204 q 187 205 182 210 q 178 214 173 219 q 168 224 164 228 q 159 233 158 235 q 157 236 155 240 q 153 245 152 247 q 151 249 149 258 q 147 267 146 272 q 144 278 142 290 q 140 301 140 302 q 140 303 140 310 q 139 316 139 324 q 139 332 139 341 q 139 350 139 355 q 139 360 139 368 q 139 377 139 385 q 139 394 140 400 q 140 406 140 407 q 140 409 142 421 q 144 433 146 438 q 153 464 171 488 q 182 503 192 516 q 203 528 220 537 q 221 538 226 540 q 232 543 238 546 q 245 549 250 552 q 256 555 257 556 q 260 558 264 562 q 269 567 274 572 q 279 576 283 580 q 287 584 288 586 q 288 587 290 601 q 292 615 294 623 l 294 627 l 294 630 q 293 632 291 639 q 289 646 288 648 q 286 650 282 658 q 277 665 275 667 q 274 668 270 672 q 267 676 263 680 q 259 683 256 686 q 252 690 251 691 q 249 693 244 695 q 240 697 238 698 l 226 698 q 204 698 183 685 q 180 683 173 678 q 166 674 164 673 q 161 671 156 666 q 150 662 144 657 q 138 652 133 648 q 128 643 127 642 q 122 637 113 628 q 104 620 95 611 q 86 602 80 594 q 73 587 72 586 q 71 585 68 578 q 64 570 59 560 q 54 551 49 541 q 44 531 41 525 q 39 522 36 515 q 34 508 31 501 q 28 494 26 488 q 23 483 22 482 q 21 478 19 466 q 17 455 16 451 q 16 449 15 436 q 14 422 13 404 q 12 386 11 368 q 10 350 10 340 z"},"C":{"x_min":0,"x_max":471,"ha":471,"o":"m 10 358 l 10 352 q 10 346 11 334 q 12 323 13 312 q 14 300 15 290 q 16 281 16 278 q 17 274 19 260 q 21 246 22 241 q 23 237 25 230 q 27 222 29 214 q 31 206 32 200 q 34 193 35 191 q 36 189 38 183 q 41 177 44 170 q 47 164 50 158 q 52 151 53 148 q 55 146 60 139 q 64 132 66 130 q 68 127 78 117 q 87 107 90 105 q 92 104 99 100 q 106 95 109 93 q 110 92 114 90 q 119 87 121 86 q 127 84 137 80 q 147 76 157 72 q 167 68 174 65 q 182 62 183 62 q 185 61 194 60 q 203 58 214 56 q 224 53 234 52 q 243 50 245 49 q 247 49 257 46 q 267 43 269 43 q 273 43 284 42 q 294 41 306 40 q 318 39 328 38 q 339 37 343 37 l 376 37 l 405 37 q 407 37 412 39 q 416 41 418 43 q 420 44 424 48 q 429 53 434 58 q 438 63 442 68 q 446 72 448 74 q 449 75 452 80 q 454 84 455 86 q 456 88 458 98 q 460 107 461 111 l 461 114 l 461 117 q 460 120 457 126 q 454 131 451 137 q 448 143 446 148 q 443 152 442 154 q 441 156 436 160 q 432 165 430 167 q 427 168 422 171 q 416 174 410 177 q 404 180 399 182 q 394 185 393 185 q 392 185 386 186 q 380 186 377 186 q 373 186 365 186 q 357 185 356 185 q 354 185 348 184 q 342 183 334 182 q 327 181 320 180 q 314 179 313 179 l 291 179 q 268 179 246 182 q 224 186 201 191 q 199 192 192 194 q 185 196 183 198 q 181 199 176 201 q 172 203 171 204 q 154 217 148 238 q 143 258 140 278 q 138 285 136 299 q 134 313 134 315 q 133 316 133 321 q 133 327 133 330 q 133 333 133 339 q 133 345 134 346 q 134 354 136 370 q 139 387 140 389 q 140 390 143 394 q 146 398 150 403 q 154 408 158 412 q 162 417 164 420 l 201 457 q 203 458 212 462 q 222 467 226 469 q 231 471 245 476 q 259 480 263 482 q 264 482 270 483 q 276 484 282 485 q 288 486 294 487 q 299 488 300 488 q 304 489 311 491 q 318 493 319 494 q 322 496 332 506 q 341 515 343 519 q 345 520 350 530 q 354 539 356 543 q 358 547 360 554 q 362 561 362 562 q 362 563 357 574 q 352 586 350 593 q 348 595 346 600 q 344 605 343 605 q 343 606 334 613 q 324 620 319 624 q 315 626 308 630 q 301 635 300 636 q 298 637 291 640 q 284 642 282 642 q 281 642 279 642 q 277 643 275 643 q 274 643 272 642 q 270 642 269 642 q 266 641 260 640 q 253 638 246 636 q 240 634 234 632 q 228 631 226 630 q 224 629 217 624 q 210 619 208 618 q 206 616 196 612 q 187 607 176 602 q 166 597 157 592 q 148 588 146 587 q 144 586 138 582 q 132 579 125 575 q 118 571 112 568 q 106 564 103 562 q 99 560 92 556 q 85 551 84 550 l 53 519 q 51 517 48 512 q 44 507 40 501 q 37 495 34 490 q 30 484 29 482 q 28 480 26 473 q 23 466 22 463 q 21 459 19 447 q 17 435 16 432 q 16 430 15 421 q 14 412 13 402 q 12 391 11 380 q 10 370 10 364 z"},"W":{"x_min":0,"x_max":897,"ha":897,"o":"m 448 352 q 450 352 454 350 q 459 347 461 345 q 462 344 466 337 q 471 330 473 327 q 475 325 479 316 q 483 306 485 302 q 486 299 489 293 q 492 287 495 280 q 498 273 500 267 q 503 261 504 259 q 505 257 507 250 q 509 243 510 240 q 511 235 514 226 q 517 217 520 207 q 523 197 526 189 q 528 181 529 179 q 535 157 540 135 q 545 113 553 92 q 555 90 557 86 q 559 81 560 80 q 563 76 574 64 q 586 53 590 49 q 592 48 599 44 q 606 39 609 37 q 612 35 622 30 q 632 26 634 24 q 637 23 642 22 q 648 20 654 18 q 660 16 664 14 q 669 12 671 12 l 680 12 l 689 12 q 692 14 698 20 q 704 26 711 33 q 718 40 724 46 q 730 52 732 55 q 733 56 736 61 q 738 66 739 68 q 739 70 742 80 q 744 90 745 92 q 745 93 747 99 q 749 105 751 111 q 753 117 755 122 q 757 128 757 129 q 758 131 760 142 q 763 152 763 154 q 763 155 765 160 q 767 166 770 172 q 772 179 774 184 q 776 189 776 191 q 776 193 778 204 q 781 214 782 216 q 783 219 786 228 q 788 237 791 247 q 794 257 796 266 q 799 275 800 278 q 801 280 804 288 q 806 296 810 306 q 813 315 816 323 q 818 331 819 333 q 819 335 821 344 q 823 352 825 361 q 827 370 829 378 q 831 387 831 389 q 832 392 835 401 q 838 410 842 421 q 846 432 850 442 q 854 452 856 457 q 857 459 860 467 q 864 475 868 484 q 872 494 876 502 q 880 510 881 512 q 882 515 884 524 q 886 534 887 537 l 887 557 l 887 574 q 887 575 884 579 q 882 583 879 588 q 876 593 873 598 q 870 602 868 605 q 867 607 862 611 q 858 615 856 617 q 854 619 847 624 q 840 628 837 629 q 833 632 824 636 q 814 641 813 642 l 801 642 l 788 642 q 786 642 779 640 q 772 637 770 636 q 765 634 756 630 q 747 625 745 623 q 743 621 736 614 q 728 607 726 605 q 727 601 727 590 q 727 580 727 568 q 727 556 727 545 q 727 535 726 531 q 726 528 723 515 q 720 502 717 488 q 714 473 712 460 q 709 447 708 444 q 698 398 686 354 q 675 310 658 265 q 658 263 656 258 q 653 254 652 253 q 651 251 649 249 q 647 247 646 247 q 646 247 645 246 q 644 246 643 246 q 642 246 641 246 q 640 247 640 247 q 639 247 636 249 q 634 251 634 253 q 632 255 628 264 q 623 273 621 278 q 620 279 618 285 q 615 291 612 298 q 609 304 606 311 q 604 318 603 321 q 603 322 601 326 q 599 331 597 336 q 595 342 593 346 q 591 351 590 352 q 588 355 582 368 q 576 380 568 394 q 561 409 554 422 q 548 435 547 438 q 546 440 544 448 q 542 455 541 457 q 540 459 535 466 q 530 473 529 475 q 528 477 524 484 q 521 492 516 500 q 512 508 508 516 q 505 523 504 525 q 503 526 498 531 q 494 536 488 542 q 482 548 476 554 q 470 559 467 562 q 465 563 458 568 q 451 572 448 574 q 445 576 436 580 q 426 585 424 586 q 420 588 410 590 q 401 592 399 592 q 395 592 386 590 q 376 588 374 586 q 372 584 366 580 q 361 575 355 569 q 349 563 344 558 q 339 552 337 549 q 337 543 336 528 q 335 513 334 496 q 333 480 332 465 q 331 450 331 444 l 331 420 q 331 417 328 404 q 326 392 323 378 q 320 363 317 348 q 314 334 313 327 q 312 322 310 314 q 308 307 306 299 q 304 291 302 285 q 300 279 300 278 q 300 276 295 272 q 290 267 288 265 l 285 265 l 282 265 q 281 266 278 268 q 276 270 276 271 q 274 273 272 278 q 270 282 269 284 q 268 287 264 298 q 261 308 257 321 q 253 334 250 344 q 246 355 245 358 q 244 359 242 366 q 239 372 236 380 q 232 387 230 393 q 227 399 226 401 q 225 403 223 410 q 221 418 220 420 q 219 422 216 430 q 212 437 208 446 q 204 455 200 463 q 197 471 195 475 q 194 477 189 488 q 184 498 183 500 q 183 501 181 506 q 179 510 177 516 q 175 521 173 526 q 171 530 171 531 q 167 538 160 552 q 153 566 152 568 q 149 572 140 581 q 130 590 127 592 q 126 593 120 594 q 115 596 108 598 q 101 601 94 602 q 87 604 84 605 l 71 605 l 59 605 q 57 604 47 599 q 37 594 35 592 q 32 590 28 586 q 24 583 20 579 q 16 575 13 572 q 10 569 10 568 q 10 567 10 560 q 9 554 9 550 q 9 546 10 539 q 10 532 10 531 q 10 529 12 524 q 15 520 18 514 q 21 508 24 502 q 27 497 29 494 q 30 492 34 486 q 39 479 44 472 q 49 465 54 458 q 58 452 59 450 q 61 447 66 439 q 71 431 77 421 q 83 411 88 402 q 94 393 96 389 q 98 387 102 378 q 107 368 109 364 q 111 359 115 350 q 119 342 122 333 q 126 324 130 317 q 133 310 133 308 q 134 306 136 302 q 137 297 140 291 q 142 285 144 280 q 145 274 146 271 q 147 268 148 261 q 150 254 152 246 q 154 238 156 231 q 158 224 158 222 q 158 220 160 210 q 162 201 164 190 q 166 178 168 166 q 170 154 171 148 q 171 146 172 140 q 173 134 174 126 q 175 119 176 112 q 177 106 177 105 q 177 102 180 95 q 182 88 183 86 q 184 84 191 74 q 198 65 201 61 q 203 59 208 54 q 212 50 214 49 q 218 47 227 42 q 236 37 238 37 q 240 36 249 36 q 258 36 263 36 q 268 36 277 36 q 287 36 288 37 q 290 37 300 42 q 311 48 313 49 q 314 49 322 50 q 329 51 337 52 q 345 52 352 53 q 360 54 362 55 q 364 56 373 66 q 382 75 387 80 l 393 92 q 393 94 394 102 q 395 111 396 120 q 397 129 398 138 q 399 146 399 148 q 399 151 400 158 q 401 165 402 173 q 403 181 404 188 q 405 194 405 197 q 406 201 407 208 q 408 215 409 222 q 410 229 410 234 q 411 240 411 240 q 412 244 414 255 q 417 266 420 278 q 423 291 426 303 q 428 315 430 321 q 431 324 433 331 q 435 338 436 339 q 438 342 442 346 q 447 351 448 352 z"},"A":{"x_min":0,"x_max":526,"ha":526,"o":"m 331 234 q 333 232 340 225 q 347 218 349 216 q 350 214 352 210 q 355 205 355 203 q 356 201 358 192 q 361 182 362 179 q 363 172 366 158 q 368 144 368 142 q 368 139 368 129 q 368 119 368 108 q 368 97 368 87 q 368 77 368 74 q 368 73 370 66 q 372 59 374 55 q 375 53 377 48 q 379 44 380 43 q 382 41 389 34 q 396 27 399 25 q 401 23 408 18 q 415 14 417 12 q 419 11 426 8 q 434 6 436 6 l 454 6 l 473 6 q 474 6 478 8 q 483 11 485 12 l 510 37 q 511 39 514 44 q 516 48 516 49 q 516 51 516 64 q 517 76 517 82 q 517 88 516 99 q 516 110 516 111 q 516 112 514 119 q 511 126 508 135 q 505 144 502 152 q 499 161 497 166 q 497 168 494 174 q 491 181 488 188 q 485 195 482 202 q 479 208 479 210 q 479 210 478 216 q 478 222 478 225 q 478 228 478 234 q 479 240 479 240 q 479 241 482 246 q 485 252 488 258 q 491 265 494 270 q 497 275 497 277 q 498 278 498 283 q 498 289 498 292 q 498 295 498 301 q 498 307 497 308 q 497 310 495 318 q 493 325 491 327 q 490 328 486 332 q 481 337 479 339 q 477 340 472 344 q 466 347 460 352 q 454 356 448 360 q 443 363 442 364 q 440 366 436 370 q 431 374 429 376 q 428 378 424 388 q 419 397 417 401 q 416 403 414 410 q 411 417 408 426 q 405 434 402 441 q 400 448 399 450 q 397 454 390 470 q 382 487 374 506 q 366 524 358 540 q 351 557 349 561 q 348 563 346 568 q 345 573 343 578 q 341 583 339 587 q 337 591 337 592 q 337 593 335 600 q 333 606 331 614 q 329 621 327 627 q 325 633 325 635 q 324 637 317 646 q 310 655 306 660 q 304 662 300 666 q 295 671 294 672 q 289 675 275 682 q 261 689 257 691 l 251 691 l 244 691 q 243 690 238 688 q 234 686 232 685 q 224 679 218 670 q 212 662 207 654 q 205 650 200 640 q 196 631 195 629 q 195 628 194 624 q 193 619 192 614 q 191 608 190 604 q 189 599 189 598 q 187 593 183 578 q 179 564 174 548 q 169 531 164 516 q 160 500 158 493 q 157 490 154 480 q 150 469 146 458 q 142 446 138 435 q 135 424 133 419 q 133 417 130 410 q 128 404 125 396 q 122 388 119 380 q 116 373 115 370 q 113 364 109 354 q 105 345 101 335 q 97 325 94 317 q 91 309 90 308 q 88 305 84 298 q 81 291 78 283 q 74 275 70 268 q 67 261 66 259 q 65 257 61 252 q 57 247 53 240 q 49 234 46 228 q 42 223 41 222 q 40 220 36 213 q 33 206 29 198 q 25 191 21 184 q 17 176 16 173 q 15 170 12 163 q 10 156 10 154 l 10 138 l 10 123 q 10 122 12 118 q 14 113 16 111 q 21 104 30 90 q 39 76 41 74 q 43 72 50 67 q 57 62 59 62 q 60 61 66 61 q 72 61 75 61 q 78 61 83 61 q 89 61 90 62 q 92 62 101 67 q 110 72 115 74 l 121 80 q 122 82 126 92 q 131 101 133 105 q 134 106 136 112 q 139 119 142 126 q 146 134 148 140 q 151 146 152 148 q 153 150 158 157 q 163 164 164 166 q 165 168 168 176 q 172 183 176 191 q 181 199 184 206 q 188 214 189 216 q 190 218 194 222 q 199 227 201 228 q 204 229 211 230 q 218 231 226 232 q 234 233 241 234 q 248 234 251 234 q 251 234 256 234 q 261 234 268 234 q 274 235 280 235 q 287 235 291 235 q 296 235 311 234 q 326 234 331 234 z m 238 373 l 238 382 q 238 383 240 387 q 241 391 243 396 q 245 401 247 406 q 249 410 251 413 q 253 417 257 426 q 261 436 263 438 q 264 439 266 442 q 268 444 269 444 l 275 444 l 281 444 q 282 444 284 442 q 287 439 288 438 q 289 436 291 432 q 293 427 294 425 q 295 421 298 412 q 301 404 304 396 q 307 387 310 380 q 312 372 312 370 q 312 370 312 368 q 313 365 313 364 q 313 362 312 360 q 312 358 312 358 q 312 357 310 355 q 308 353 306 351 q 304 350 300 348 q 295 345 294 345 l 282 345 l 269 345 q 267 346 260 348 q 253 350 251 351 q 249 353 244 358 q 239 362 238 364 z"},"f":{"x_min":0,"x_max":403,"ha":403,"o":"m 16 308 q 19 306 24 300 q 30 294 36 288 q 42 281 46 274 q 51 268 53 265 q 54 263 56 254 q 58 246 60 236 q 62 227 64 218 q 66 208 66 203 q 66 200 66 186 q 66 173 66 157 q 66 141 66 127 q 66 114 66 111 q 66 107 68 93 q 70 79 72 74 q 72 73 74 68 q 76 63 78 61 q 80 57 84 50 q 89 43 90 43 q 93 41 98 37 q 104 33 110 29 q 116 25 120 22 q 125 18 127 18 q 128 18 134 18 q 140 17 144 17 q 148 17 156 18 q 163 18 164 18 q 165 18 170 20 q 175 22 177 24 q 179 26 186 30 q 193 35 195 37 q 197 38 199 40 q 201 42 201 43 q 203 46 206 52 q 209 57 212 63 q 215 69 218 74 q 220 79 220 80 q 220 80 220 85 q 221 90 221 92 q 221 94 220 99 q 220 104 220 104 q 220 105 218 111 q 216 117 214 123 q 212 129 210 134 q 208 140 208 141 q 207 145 205 152 q 203 160 201 168 q 199 176 197 182 q 195 189 195 191 q 195 193 194 200 q 193 207 192 214 q 191 222 190 230 q 189 237 189 240 l 189 254 l 189 265 q 190 267 194 272 q 199 277 201 277 q 202 277 206 277 q 211 277 216 277 q 222 277 226 277 q 231 277 232 277 q 237 278 248 280 q 260 282 263 284 q 266 285 276 290 q 285 294 288 296 q 290 297 294 302 q 298 306 300 308 q 301 310 304 314 q 306 319 306 321 q 307 323 310 332 q 312 342 313 345 l 313 349 l 313 351 q 312 353 310 358 q 307 362 306 364 q 305 366 300 370 q 296 375 294 376 q 292 378 283 382 q 274 386 269 388 q 266 390 259 392 q 252 394 251 395 q 245 395 231 396 q 217 397 202 398 q 186 399 172 400 q 158 401 152 401 q 150 401 146 403 q 141 405 140 407 q 138 409 136 418 q 134 428 133 432 l 133 450 l 133 469 q 134 470 136 477 q 138 484 140 487 q 141 489 143 494 q 145 499 146 500 q 148 503 158 512 q 167 522 171 524 q 171 525 176 527 q 181 529 183 530 q 185 531 192 534 q 199 536 201 537 q 217 542 232 544 q 247 547 263 549 q 265 549 274 550 q 283 551 294 552 q 304 553 314 554 q 323 555 325 555 q 328 556 338 558 q 347 560 350 561 q 352 563 362 568 q 371 572 374 574 q 375 574 378 576 q 380 579 380 580 q 383 585 388 594 q 393 603 393 605 q 393 606 394 614 q 394 623 394 627 q 394 632 394 640 q 393 647 393 648 q 393 649 386 656 q 379 663 374 666 q 372 668 362 676 q 353 683 350 685 q 348 687 343 689 q 338 691 337 691 l 325 691 l 313 691 q 306 689 288 684 q 271 680 251 676 q 231 671 214 666 q 196 662 189 660 q 187 660 179 658 q 171 656 162 654 q 152 652 144 650 q 135 648 133 648 q 131 647 120 642 q 108 637 103 635 q 98 633 88 628 q 79 624 78 623 q 75 621 66 612 q 56 602 53 598 q 53 598 50 594 q 48 590 45 585 q 42 580 39 576 q 36 571 35 568 q 33 564 28 554 q 24 545 22 543 q 22 541 20 534 q 17 527 16 524 q 14 519 12 510 q 10 501 10 500 l 10 459 l 10 413 q 10 407 11 392 q 12 377 13 360 q 14 344 15 329 q 16 314 16 308 z"},"Q":{"x_min":0,"x_max":483,"ha":483,"o":"m 269 49 q 274 46 277 41 q 280 36 282 31 q 282 29 284 18 q 287 8 288 6 q 289 4 291 -3 q 293 -10 294 -12 q 296 -17 300 -26 q 305 -35 306 -37 q 308 -40 318 -50 q 328 -59 331 -62 q 334 -64 344 -68 q 353 -73 356 -74 q 356 -74 360 -74 q 365 -75 367 -75 q 370 -75 375 -74 q 380 -74 380 -74 q 381 -74 386 -72 q 391 -69 393 -68 l 399 -62 q 401 -60 405 -52 q 409 -45 411 -43 q 412 -41 414 -37 q 417 -33 417 -31 q 419 -27 421 -20 q 423 -13 423 -12 q 423 -11 421 1 q 419 13 417 19 q 416 22 414 29 q 413 36 411 44 q 409 52 408 58 q 406 65 405 68 q 404 70 402 78 q 399 85 399 86 q 399 87 398 93 q 398 99 398 102 q 398 105 398 111 q 399 117 399 117 q 399 118 401 123 q 403 128 405 130 q 407 132 414 142 q 422 152 423 154 q 425 157 430 167 q 435 177 436 179 q 437 183 440 194 q 444 205 448 218 q 451 230 454 242 q 458 254 460 259 q 461 261 464 273 q 466 285 467 290 q 467 294 468 300 q 469 307 470 314 q 471 321 472 326 q 473 332 473 333 l 473 359 l 473 383 q 473 384 470 393 q 468 402 467 407 q 466 410 464 417 q 461 424 460 426 q 460 428 458 432 q 455 437 454 438 q 452 442 447 448 q 442 455 437 462 q 432 469 428 474 q 424 480 423 481 q 422 483 417 488 q 412 493 406 499 q 400 505 394 510 q 389 516 386 518 q 381 523 368 534 q 356 545 342 557 q 328 569 316 579 q 304 589 300 592 q 297 595 292 599 q 286 603 280 607 q 274 611 269 614 q 264 617 263 617 q 262 617 252 618 q 243 618 238 618 q 233 618 221 618 q 209 617 207 617 q 206 617 202 615 q 197 613 195 611 q 193 609 186 602 q 179 594 170 586 q 162 578 155 570 q 148 563 146 562 q 144 560 138 556 q 133 551 127 546 q 121 541 116 536 q 110 532 109 531 q 104 526 96 518 q 87 509 78 500 q 69 491 62 484 q 54 477 53 475 q 52 474 49 468 q 46 463 42 456 q 38 449 34 442 q 31 436 29 432 q 27 427 22 416 q 17 404 16 401 q 16 399 15 392 q 14 386 13 378 q 12 370 11 362 q 10 355 10 352 l 10 325 l 10 302 q 10 300 12 290 q 15 281 18 270 q 21 258 24 246 q 27 234 29 228 q 30 224 32 216 q 35 208 38 199 q 41 190 44 182 q 46 175 47 173 q 48 169 52 162 q 56 154 60 146 q 63 139 66 132 q 70 125 72 123 q 73 121 78 115 q 83 109 89 102 q 95 96 100 90 q 106 83 109 80 q 110 79 117 74 q 124 70 127 68 q 132 66 141 61 q 150 56 152 56 q 156 54 170 52 q 184 50 189 49 z m 133 325 l 133 358 q 134 362 141 376 q 148 390 152 395 q 153 396 158 401 q 163 406 169 412 q 175 418 180 424 q 186 429 189 432 q 191 434 198 438 q 205 442 207 444 q 212 447 222 452 q 231 456 232 457 l 250 457 l 269 457 q 271 457 276 454 q 280 452 282 451 q 285 448 297 438 q 309 429 312 426 q 317 422 326 412 q 335 403 337 401 q 339 399 341 392 q 343 385 343 383 q 343 382 343 377 q 343 372 344 365 q 344 358 344 350 q 344 343 344 339 q 344 335 344 328 q 344 321 344 314 q 343 307 343 302 q 343 297 343 296 q 343 293 341 286 q 339 279 337 278 q 337 278 334 278 q 331 277 329 277 q 327 277 323 278 q 319 278 319 278 q 317 278 312 280 q 308 282 306 284 q 304 286 297 293 q 290 300 288 302 q 285 303 274 303 q 263 303 260 303 q 255 303 244 303 q 233 303 232 302 q 231 302 226 300 q 222 298 220 296 q 218 295 214 290 q 209 286 207 284 q 207 281 206 272 q 206 262 206 259 q 206 254 206 245 q 207 236 207 235 q 207 233 210 226 q 213 218 216 210 q 219 201 222 194 q 225 187 226 185 l 226 182 l 226 179 q 225 177 223 172 q 221 168 220 167 q 219 165 214 163 q 209 161 207 160 l 201 160 q 191 160 184 166 q 176 171 170 179 q 168 182 164 189 q 159 196 158 198 q 157 200 154 208 q 152 215 149 224 q 146 232 144 240 q 141 249 140 253 q 138 258 136 270 q 134 281 133 284 z"},"w":{"x_min":0,"x_max":742,"ha":742,"o":"m 371 203 l 374 203 q 376 202 380 200 q 385 198 386 197 q 388 196 392 189 q 397 182 399 178 q 401 175 404 170 q 407 164 410 158 q 413 152 415 147 q 417 142 417 141 q 418 139 419 132 q 420 125 420 117 q 421 109 422 102 q 423 94 423 92 q 423 91 425 86 q 427 81 429 75 q 431 69 433 64 q 435 58 436 55 q 437 53 439 48 q 441 44 442 43 q 444 41 451 34 q 458 26 460 24 q 462 23 466 20 q 471 18 473 18 q 474 18 481 18 q 488 17 492 17 q 495 17 502 18 q 509 18 510 18 q 513 18 520 20 q 527 22 534 24 q 540 26 546 28 q 551 29 553 30 q 554 31 560 36 q 565 42 572 49 q 579 56 586 63 q 592 70 596 74 q 598 75 602 82 q 606 89 608 92 q 609 93 612 99 q 614 105 618 111 q 621 117 624 122 q 626 128 627 129 q 629 132 636 143 q 642 154 650 166 q 658 179 666 191 q 673 203 676 209 q 677 211 683 220 q 689 228 695 237 q 701 246 706 254 q 712 263 713 265 q 716 270 723 284 q 730 298 732 302 l 732 308 l 732 314 q 731 316 729 323 q 727 330 726 333 q 725 334 723 338 q 721 343 719 345 q 717 349 712 356 q 708 363 707 363 q 705 365 698 370 q 691 374 689 376 q 686 378 674 382 q 662 386 658 388 l 655 388 l 652 388 q 648 386 638 382 q 629 378 627 376 l 608 357 q 607 356 604 350 q 601 345 597 338 q 593 331 590 324 q 586 318 584 314 q 583 312 580 305 q 576 298 572 290 q 567 281 564 274 q 560 267 559 265 q 557 262 554 255 q 550 248 546 241 q 542 234 538 228 q 535 223 534 222 q 533 220 528 216 q 524 211 522 209 q 520 211 513 218 q 506 226 504 228 q 503 229 500 234 q 497 238 494 244 q 491 249 488 254 q 486 258 485 259 q 483 261 477 268 q 471 275 464 284 q 456 292 450 299 q 443 306 442 308 q 441 309 438 314 q 434 318 430 324 q 425 329 422 334 q 418 338 417 339 q 414 343 404 352 q 395 361 393 363 q 392 364 387 366 q 382 369 380 370 q 377 371 370 374 q 363 376 362 376 l 350 376 l 337 376 q 333 375 322 373 q 310 371 306 370 q 304 369 300 367 q 296 365 294 363 q 292 361 287 357 q 282 353 281 351 q 280 349 278 338 q 276 328 275 326 q 274 323 271 314 q 268 305 264 294 q 260 283 256 273 q 252 263 251 259 q 250 257 248 252 q 245 247 244 246 q 242 244 235 237 q 228 230 226 228 q 226 228 225 228 q 224 227 223 227 q 222 227 221 228 q 220 228 220 228 q 219 228 216 230 q 214 233 214 234 q 212 236 208 245 q 203 254 198 264 q 193 275 188 284 q 184 294 183 296 q 182 297 175 304 q 168 311 164 314 q 162 316 157 320 q 152 325 146 330 q 140 335 134 339 q 129 343 127 345 q 125 347 118 352 q 111 356 109 357 q 104 360 94 364 q 85 369 84 370 l 67 370 l 47 370 q 45 369 38 367 q 31 365 29 363 q 27 362 22 358 q 18 353 16 351 q 14 349 12 344 q 10 340 10 339 q 10 338 10 330 q 9 321 9 316 q 9 311 10 304 q 10 296 10 296 q 10 294 15 287 q 20 280 22 277 l 90 209 q 91 207 94 201 q 97 195 100 188 q 103 181 106 175 q 108 169 109 166 q 109 164 111 156 q 113 149 115 141 q 117 133 118 126 q 120 118 121 117 q 123 114 130 102 q 137 90 140 86 q 142 84 151 74 q 160 64 164 61 q 166 59 174 54 q 181 50 183 49 q 185 48 190 46 q 195 44 200 42 q 205 40 209 38 q 213 37 214 37 q 214 36 221 36 q 228 36 231 36 q 235 36 242 36 q 250 36 251 37 q 252 37 256 39 q 261 41 263 43 q 265 45 270 49 q 274 53 275 55 q 276 56 278 62 q 281 67 284 73 q 288 79 290 84 q 293 90 294 92 q 296 96 303 108 q 310 120 312 123 q 313 124 316 128 q 318 131 322 135 q 325 139 328 143 q 330 147 331 148 q 332 149 336 156 q 339 162 343 170 q 347 177 350 183 q 354 189 355 191 q 357 193 362 198 q 366 202 368 203 z"},"-":{"x_min":0,"x_max":378,"ha":378,"o":"m 10 364 l 10 351 q 10 349 12 340 q 15 330 16 327 q 17 325 19 320 q 21 316 22 314 q 24 312 32 305 q 39 298 41 296 q 42 294 49 290 q 56 285 59 283 q 61 282 66 280 q 71 277 72 277 q 75 277 82 276 q 89 275 97 274 q 105 273 112 272 q 118 271 121 271 l 173 271 l 226 271 q 228 271 235 272 q 242 273 250 274 q 257 275 264 276 q 272 277 275 277 q 277 278 284 280 q 292 282 294 283 q 297 284 302 287 q 308 290 314 293 q 320 296 325 298 q 330 301 331 302 q 334 304 344 314 q 353 323 355 327 q 357 329 362 339 q 367 349 368 351 l 368 363 l 368 376 q 368 377 366 382 q 363 386 362 388 q 360 392 355 399 q 350 406 349 407 q 347 409 340 413 q 334 417 331 419 q 329 421 322 423 q 314 425 312 425 q 312 425 307 426 q 302 426 300 426 q 277 426 256 419 q 236 412 214 407 q 213 407 208 406 q 202 405 195 404 q 188 403 181 402 q 174 401 170 401 q 170 401 169 400 q 168 400 167 400 q 166 400 165 400 q 164 401 164 401 q 163 401 158 403 q 152 405 146 407 q 140 409 134 411 q 128 413 127 413 q 126 413 122 414 q 117 415 112 416 q 106 417 102 418 q 97 419 96 419 q 94 420 87 422 q 80 425 78 425 q 77 425 74 426 q 70 426 68 426 q 66 426 63 426 q 60 425 59 425 q 56 424 46 420 q 37 415 35 413 q 33 412 26 402 q 19 393 16 388 q 15 386 12 382 q 10 377 10 376 z"},"E":{"x_min":0,"x_max":421,"ha":421,"o":"m 28 50 l 28 31 q 29 29 38 20 q 48 10 53 6 q 56 4 66 0 q 75 -5 78 -6 l 118 -6 l 158 -6 q 160 -6 168 -5 q 177 -4 186 -3 q 195 -2 203 -1 q 211 0 213 0 q 222 1 243 2 q 264 3 288 4 q 311 5 332 6 q 353 6 361 6 q 364 8 374 12 q 384 17 386 19 q 388 21 396 28 q 403 34 405 37 q 406 39 408 44 q 411 48 411 49 l 411 68 l 411 86 q 411 88 408 92 q 406 97 405 99 q 404 100 402 102 q 400 104 398 105 q 396 107 389 111 q 382 115 380 117 q 378 118 374 120 q 370 123 368 123 q 364 125 357 128 q 350 130 349 130 l 183 130 q 181 130 176 134 q 172 139 170 142 q 169 144 167 151 q 165 158 164 160 q 164 163 163 170 q 162 177 161 185 q 160 193 159 200 q 158 207 158 210 l 158 231 l 158 253 q 159 255 164 260 q 168 264 170 265 q 172 267 180 269 q 187 271 189 271 q 192 272 206 273 q 219 274 235 275 q 251 276 264 277 q 278 278 281 278 q 283 278 290 280 q 297 282 300 284 q 302 285 306 287 q 311 289 312 290 q 314 292 322 299 q 329 306 331 308 q 332 310 334 314 q 336 319 337 321 q 339 325 341 334 q 343 344 343 345 q 343 347 341 352 q 339 356 337 358 q 335 360 330 364 q 326 369 324 370 q 323 371 318 374 q 313 376 307 379 q 301 382 296 384 q 290 387 287 389 q 285 390 278 392 q 271 395 269 395 q 266 395 253 396 q 240 397 226 398 q 211 399 198 400 q 186 401 183 401 q 180 401 170 404 q 161 406 158 407 l 152 413 q 150 415 148 420 q 146 425 146 426 l 146 549 l 343 549 q 344 549 348 551 q 353 553 355 555 q 360 559 369 568 q 378 578 380 580 q 381 582 384 589 q 386 596 386 598 q 386 599 386 604 q 387 609 387 611 q 387 613 386 618 q 386 623 386 623 q 386 624 384 628 q 382 633 380 635 q 378 637 374 644 q 370 652 368 654 q 367 655 365 657 q 363 659 361 660 q 359 662 352 666 q 345 671 343 672 q 341 674 334 676 q 326 678 324 678 q 324 679 315 679 q 307 679 302 679 q 297 679 287 679 q 277 679 275 678 q 270 678 250 677 q 230 676 207 675 q 184 674 164 673 q 144 672 139 672 q 136 672 124 672 q 113 672 99 672 q 86 672 74 672 q 62 672 59 672 q 58 672 51 670 q 44 668 41 666 q 39 665 34 663 q 30 661 28 660 l 16 648 q 15 646 12 638 q 10 631 10 629 l 10 597 l 10 561 q 10 559 11 551 q 12 543 13 534 q 14 524 15 516 q 16 508 16 506 l 16 500 q 16 498 17 490 q 18 483 19 475 q 20 467 21 460 q 22 452 22 450 q 22 448 23 438 q 24 428 25 416 q 26 405 27 395 q 28 385 28 382 q 28 380 29 371 q 30 362 32 352 q 33 341 34 332 q 35 323 35 321 q 35 318 36 298 q 36 278 37 252 q 38 227 39 201 q 40 175 41 160 l 41 150 l 41 142 q 41 140 38 126 q 36 112 35 105 q 35 104 34 100 q 33 95 32 90 q 30 84 29 80 q 28 75 28 74 z"},"s":{"x_min":0,"x_max":310,"ha":310,"o":"m 21 99 q 21 94 22 84 q 22 75 22 73 q 23 72 30 63 q 37 54 41 49 q 43 46 50 39 q 57 32 59 30 q 63 28 72 23 q 82 18 84 18 q 85 18 95 18 q 105 17 110 17 q 115 17 126 18 q 138 18 139 18 q 142 18 152 20 q 161 23 164 24 q 168 25 176 29 q 184 33 193 36 q 202 40 210 44 q 217 47 220 49 q 223 50 230 54 q 237 59 245 64 q 253 69 260 74 q 267 78 269 80 q 271 82 281 91 q 291 100 294 104 q 295 106 298 110 q 300 115 300 117 q 300 118 300 129 q 301 140 301 145 q 301 150 300 158 q 300 166 300 166 q 300 167 296 170 q 292 174 288 179 q 283 184 278 189 q 272 194 269 197 q 268 198 261 202 q 254 207 250 209 q 248 210 242 214 q 236 217 229 222 q 222 226 216 230 q 209 233 207 234 l 201 240 l 201 243 l 201 246 q 202 248 206 252 q 211 256 213 258 q 214 259 218 262 q 222 264 226 268 q 230 271 234 274 q 237 276 238 277 q 240 279 245 286 q 250 293 250 295 q 251 296 251 299 q 251 302 251 304 q 251 306 251 309 q 251 313 250 314 q 250 317 248 324 q 246 331 244 332 q 243 333 239 338 q 235 342 230 347 q 225 352 220 356 q 216 361 213 363 q 212 364 208 366 q 203 369 201 369 q 197 371 188 374 q 178 376 176 376 q 174 376 167 375 q 160 374 151 373 q 142 372 134 371 q 125 370 121 369 q 118 369 110 368 q 102 366 93 364 q 84 362 76 360 q 68 358 65 357 q 64 357 60 355 q 55 353 53 351 q 50 349 43 344 q 36 340 35 339 q 31 336 24 329 q 17 322 16 320 q 15 318 12 308 q 10 299 10 295 q 10 294 10 286 q 9 277 9 272 q 9 268 10 260 q 10 253 10 252 q 11 248 16 236 q 20 225 22 221 q 24 219 33 210 q 42 201 47 197 q 49 195 58 188 q 67 181 72 178 q 73 177 80 172 q 88 167 90 166 q 92 165 94 162 q 96 160 96 160 q 97 158 96 150 q 94 141 94 139 q 91 139 84 140 q 78 142 70 144 q 63 146 56 147 q 50 148 47 147 q 42 146 33 136 q 24 127 22 123 q 22 122 22 113 q 21 104 21 99 z"},">":{"x_min":0,"x_max":360,"ha":360,"o":"m 41 160 q 51 149 62 140 q 72 131 84 123 q 86 122 90 120 q 95 117 96 117 l 109 117 l 121 117 q 123 117 128 120 q 132 122 134 123 q 135 124 140 128 q 145 132 151 137 q 157 142 162 146 q 168 151 171 154 q 173 156 181 164 q 189 171 198 179 q 208 187 216 194 q 224 201 226 203 q 227 204 231 206 q 235 209 239 212 q 243 216 246 218 q 250 221 251 222 q 252 223 256 226 q 261 230 266 234 q 271 238 276 242 q 280 245 282 247 q 285 250 291 254 q 297 259 303 264 q 309 269 314 273 q 318 277 319 278 q 322 281 328 286 q 333 291 338 296 q 342 301 346 304 q 350 308 350 309 q 350 309 350 317 q 351 325 351 330 q 351 335 350 346 q 350 356 350 358 q 350 360 348 367 q 345 374 344 376 q 342 378 338 386 q 333 393 331 395 q 329 398 322 405 q 315 412 313 414 q 311 415 306 418 q 300 420 294 423 q 288 426 282 428 q 277 431 276 432 q 275 432 270 436 q 265 440 258 445 q 251 450 244 455 q 236 460 232 463 q 230 465 220 472 q 210 480 208 482 q 202 486 186 496 q 170 507 152 519 q 134 531 118 542 q 102 552 96 556 q 94 556 87 556 q 80 557 78 557 q 74 557 67 556 q 60 556 59 556 q 55 554 41 547 q 27 540 22 537 q 20 535 16 528 q 11 521 10 519 q 10 518 10 512 q 9 505 9 502 q 9 498 10 490 q 10 483 10 482 q 11 477 13 468 q 15 459 16 457 q 18 455 25 448 q 32 440 35 438 q 39 435 55 424 q 71 414 90 402 q 109 389 126 378 q 142 367 146 364 q 148 362 152 358 q 157 354 162 349 q 167 344 171 340 q 175 335 177 333 l 177 330 l 177 327 q 176 325 171 321 q 166 317 164 315 q 163 314 158 310 q 154 307 148 303 q 142 299 136 296 q 130 292 127 290 q 126 289 122 286 q 117 284 112 280 q 106 277 102 274 q 97 272 96 271 q 93 269 84 262 q 74 255 72 253 q 67 249 58 240 q 49 230 47 228 q 46 226 44 219 q 41 212 41 210 q 41 209 40 200 q 40 190 40 185 q 40 182 40 172 q 41 163 41 160 z"},"l":{"x_min":0,"x_max":224,"ha":224,"o":"m 10 630 l 10 617 q 10 615 12 606 q 14 597 16 586 q 18 576 20 567 q 22 558 22 556 q 22 555 23 547 q 24 539 25 530 q 26 520 27 510 q 28 500 29 494 q 29 491 30 480 q 31 469 32 456 q 33 444 34 434 q 35 423 35 420 q 35 419 36 414 q 37 410 38 404 q 39 399 40 394 q 41 390 41 389 q 41 387 42 376 q 43 366 44 354 q 45 341 46 328 q 47 315 47 308 l 47 296 q 47 294 48 284 q 49 275 50 264 q 51 254 52 245 q 53 236 53 234 q 54 227 55 213 q 56 199 57 184 q 58 169 58 157 q 59 145 59 142 q 59 139 59 128 q 59 117 59 104 q 59 92 59 81 q 59 71 59 68 q 60 63 62 54 q 64 45 66 43 q 66 43 70 40 q 74 37 80 33 q 86 29 92 25 q 99 21 103 18 q 105 16 110 14 q 114 12 115 12 q 116 12 122 12 q 128 11 131 11 q 134 11 140 12 q 145 12 146 12 q 148 13 158 18 q 167 22 171 24 q 173 25 178 29 q 182 33 187 36 q 192 40 196 44 q 200 47 201 49 q 203 50 205 54 q 207 59 208 61 q 209 64 211 76 q 213 88 214 92 l 214 99 l 214 105 q 213 108 210 120 q 208 131 204 144 q 201 158 198 170 q 196 182 195 185 q 189 215 188 247 q 186 279 183 308 q 183 310 182 318 q 181 327 180 336 q 179 346 178 354 q 177 362 177 364 q 177 366 176 375 q 175 384 174 394 q 173 405 172 414 q 171 424 171 426 q 171 427 170 434 q 169 440 168 448 q 166 455 165 461 q 164 467 164 469 l 164 648 q 164 650 162 654 q 159 659 158 661 q 157 663 152 667 q 148 671 146 673 q 145 673 141 676 q 137 678 132 681 q 127 684 122 686 q 118 689 115 691 q 113 693 108 695 q 103 697 103 698 l 94 698 l 84 698 q 82 697 72 695 q 63 693 59 691 q 57 691 52 688 q 48 686 47 685 q 45 683 40 679 q 36 675 31 670 q 26 665 22 660 q 17 656 16 654 q 15 653 12 648 q 10 644 10 642 z"},"8":{"x_min":0,"x_max":557,"ha":557,"o":"m 9 233 q 9 225 10 212 q 10 198 10 197 q 10 195 12 188 q 15 180 18 171 q 21 162 24 154 q 27 146 29 142 q 30 139 34 132 q 37 125 40 118 q 44 112 48 106 q 51 100 53 98 q 56 95 64 87 q 72 79 81 70 q 90 61 98 54 q 106 46 109 43 q 110 42 115 39 q 120 36 126 33 q 132 30 138 28 q 143 25 146 24 q 149 23 156 21 q 164 19 172 17 q 179 15 186 14 q 193 12 195 12 q 196 12 203 12 q 210 12 218 12 q 227 11 236 11 q 245 11 250 11 q 255 11 263 11 q 271 11 279 12 q 287 12 293 12 q 299 12 300 12 q 301 12 312 15 q 323 18 336 22 q 350 26 364 30 q 378 34 386 37 q 389 38 396 40 q 404 43 412 46 q 420 49 427 52 q 434 54 436 55 q 437 56 444 60 q 451 65 454 68 q 457 70 464 75 q 471 80 479 86 q 487 92 494 98 q 501 103 504 105 q 505 105 507 108 q 509 110 510 111 q 511 113 515 118 q 519 123 522 129 q 526 135 530 140 q 533 146 534 148 q 536 149 538 154 q 540 158 541 160 q 542 164 544 170 q 547 177 547 179 l 547 212 q 547 235 545 255 q 543 275 534 296 q 532 300 528 310 q 524 319 522 321 q 522 321 519 325 q 516 329 512 334 q 508 339 504 344 q 500 348 497 351 q 497 352 494 354 q 492 357 491 358 q 489 360 479 367 q 469 374 467 376 q 465 377 460 380 q 454 384 448 388 q 442 393 436 396 q 431 400 430 401 q 426 403 416 412 q 407 422 405 425 q 405 426 404 427 q 404 428 404 429 q 404 429 404 430 q 405 431 405 432 q 408 435 414 442 q 420 450 427 459 q 434 468 440 476 q 446 484 448 487 q 449 489 452 494 q 454 499 457 505 q 460 511 463 516 q 466 522 467 524 q 468 527 470 539 q 472 551 473 555 l 473 585 l 473 611 q 472 613 468 622 q 463 632 460 635 q 458 637 454 642 q 450 646 446 651 q 441 656 436 660 q 432 664 430 666 q 427 668 418 672 q 408 677 405 678 q 401 680 387 682 q 373 684 368 685 l 323 685 l 275 685 q 271 685 261 684 q 251 683 239 682 q 227 681 216 680 q 205 679 201 678 q 200 678 190 676 q 181 674 177 672 q 168 670 161 668 q 154 665 146 660 q 143 658 136 654 q 129 649 127 648 q 124 645 114 636 q 105 626 103 623 q 102 622 100 618 q 97 613 96 611 q 95 606 92 597 q 90 588 90 586 q 90 584 90 571 q 89 558 89 551 q 89 546 90 536 q 90 525 90 524 q 91 520 95 511 q 99 502 104 492 q 109 483 114 474 q 118 465 121 462 l 121 450 q 117 448 106 438 q 94 428 90 425 q 86 422 78 414 q 71 407 63 399 q 55 391 48 384 q 42 378 41 376 q 39 374 35 365 q 31 356 29 351 q 27 346 22 332 q 17 318 16 314 q 15 309 12 295 q 10 281 10 277 q 10 276 10 270 q 10 265 10 258 q 9 251 9 244 q 9 237 9 233 z m 133 237 l 133 271 q 133 272 136 279 q 138 286 140 290 q 141 292 143 296 q 145 301 146 302 q 148 305 155 315 q 162 325 164 327 q 167 330 176 340 q 186 349 189 351 q 191 353 198 358 q 205 363 207 364 q 210 365 216 367 q 221 369 227 371 q 233 373 238 374 q 242 376 244 376 q 245 376 252 376 q 259 377 262 377 q 266 377 274 376 q 281 376 281 376 q 283 376 288 374 q 292 372 294 370 l 306 358 q 308 356 312 348 q 317 341 319 339 q 321 336 328 330 q 335 323 337 321 q 339 319 348 312 q 357 306 368 299 q 378 292 388 286 q 397 279 399 277 q 401 275 408 268 q 415 261 417 259 q 419 257 421 252 q 423 248 423 246 q 424 246 424 244 q 424 242 424 240 q 424 239 424 236 q 424 234 423 234 q 423 232 421 225 q 419 218 417 216 q 416 214 414 209 q 412 204 411 203 q 409 201 404 196 q 400 192 395 187 q 390 182 386 178 q 381 173 380 172 q 379 172 370 167 q 361 162 356 160 q 352 158 345 155 q 338 152 331 150 q 324 147 318 144 q 313 142 312 142 q 309 141 302 139 q 294 137 286 135 q 279 133 272 131 q 265 129 263 129 l 237 129 l 207 129 q 205 129 196 132 q 187 134 183 135 q 169 140 161 150 q 153 161 146 172 q 145 174 142 178 q 140 183 140 185 q 138 188 136 195 q 133 202 133 203 z m 207 530 l 207 543 q 208 545 210 550 q 212 554 214 555 q 215 556 220 558 q 224 560 226 561 q 228 562 237 564 q 246 566 251 567 q 257 569 269 572 q 281 574 281 574 q 285 574 302 572 q 318 569 325 567 q 327 567 332 564 q 336 562 337 561 q 339 559 341 555 q 343 551 343 549 q 343 547 341 542 q 339 538 337 536 q 335 534 330 530 q 326 525 321 520 q 316 515 312 511 q 307 507 306 506 q 303 503 294 498 q 284 494 281 493 l 258 493 l 232 493 q 231 493 226 496 q 222 498 220 499 q 219 500 216 502 q 214 505 214 506 q 212 508 210 512 q 208 517 207 518 z"},"\\":{"x_min":0,"x_max":483,"ha":483,"o":"m 10 605 l 10 580 q 10 575 12 564 q 15 552 16 549 q 16 548 19 544 q 22 539 25 534 q 28 528 31 524 q 34 519 35 518 q 37 515 44 500 q 51 486 60 469 q 68 452 75 438 q 82 423 84 419 q 86 415 91 406 q 96 398 101 389 q 106 380 110 373 q 114 366 115 364 q 120 356 136 333 q 151 310 168 284 q 186 257 202 232 q 218 208 226 197 q 227 196 230 192 q 234 187 238 182 q 242 177 246 172 q 250 167 251 166 q 255 161 262 152 q 269 143 276 134 q 283 125 288 118 q 293 112 294 111 q 295 109 300 101 q 306 93 312 84 q 319 74 324 66 q 329 57 331 55 q 333 53 340 44 q 347 34 349 31 q 351 29 353 27 q 355 25 356 25 q 359 23 364 20 q 370 17 376 14 q 382 11 387 8 q 392 6 393 6 q 393 6 400 6 q 406 5 410 5 q 414 5 422 6 q 429 6 430 6 q 431 6 436 8 q 440 11 442 12 q 445 15 452 22 q 459 29 460 31 q 462 34 467 46 q 472 57 473 62 l 473 73 l 473 86 q 472 88 470 96 q 468 103 467 105 q 464 108 456 117 q 448 126 439 136 q 430 145 422 154 q 414 163 411 166 q 405 173 394 186 q 383 199 372 212 q 362 225 353 235 q 344 245 343 247 q 341 250 334 260 q 327 271 318 284 q 310 296 303 307 q 296 318 294 321 q 292 324 284 334 q 277 344 269 355 q 261 366 254 376 q 246 386 244 389 q 242 392 238 399 q 233 406 232 407 q 229 413 221 429 q 213 445 204 463 q 195 481 188 496 q 180 512 177 518 q 176 520 174 527 q 172 534 170 537 q 170 539 167 549 q 164 559 161 570 q 158 582 156 592 q 153 602 152 605 q 152 606 150 610 q 147 615 146 617 q 144 619 140 626 q 135 633 133 635 q 132 637 130 639 q 128 641 127 642 q 120 646 106 653 q 92 660 90 660 q 90 660 82 660 q 73 661 68 661 q 63 661 52 660 q 42 660 41 660 q 39 660 35 658 q 31 656 29 654 q 27 652 22 648 q 18 644 16 642 q 14 640 12 636 q 10 631 10 629 z"},"e":{"x_min":0,"x_max":360,"ha":360,"o":"m 9 201 q 9 196 10 184 q 10 173 10 172 q 10 170 15 156 q 20 142 22 135 q 24 130 28 122 q 32 113 36 104 q 40 96 43 88 q 46 81 47 80 q 47 79 50 75 q 53 71 57 66 q 61 61 65 56 q 69 52 72 49 q 74 47 78 42 q 83 37 84 37 q 87 35 96 30 q 106 25 109 24 q 113 23 127 20 q 141 18 146 18 l 175 18 l 208 18 q 213 18 226 19 q 240 20 254 21 q 269 22 282 23 q 295 24 300 24 q 302 26 310 30 q 317 35 319 37 q 322 39 329 46 q 336 53 337 55 q 339 57 344 66 q 348 76 350 80 l 350 83 l 350 86 q 348 89 344 98 q 339 108 337 111 q 337 112 334 114 q 332 116 331 117 q 329 119 320 123 q 310 127 307 129 q 304 131 297 133 q 290 135 288 135 q 287 136 278 136 q 269 136 264 136 q 259 136 249 136 q 240 136 239 135 q 237 135 226 132 q 215 130 214 129 q 212 129 206 128 q 201 127 194 126 q 188 125 181 124 q 174 123 171 123 l 167 123 l 164 123 q 162 124 158 126 q 153 128 152 129 q 150 131 143 138 q 136 146 134 148 q 132 150 130 154 q 127 159 127 160 q 127 162 130 166 q 132 171 134 172 q 135 174 140 176 q 144 178 146 179 q 148 179 154 180 q 160 181 167 182 q 174 183 180 184 q 186 185 189 185 l 208 185 l 226 185 q 227 185 232 184 q 236 183 242 182 q 247 180 252 180 q 256 179 257 179 q 260 179 268 180 q 275 182 284 184 q 293 186 301 188 q 309 190 313 191 q 314 191 321 196 q 328 201 331 203 q 333 204 335 206 q 337 209 337 210 q 340 214 344 223 q 349 232 350 234 q 350 235 350 240 q 351 244 351 247 q 351 249 350 254 q 350 258 350 259 q 349 260 344 270 q 340 279 337 284 q 337 285 334 289 q 332 293 329 298 q 326 303 323 308 q 320 313 319 315 q 317 317 312 324 q 308 331 307 333 q 306 334 304 336 q 301 339 300 339 q 295 343 283 350 q 271 357 269 358 q 268 358 256 360 q 245 363 239 364 q 235 365 228 366 q 221 367 214 368 q 207 369 202 370 q 196 370 195 370 q 194 370 183 370 q 172 371 167 371 q 162 371 152 370 q 141 370 140 370 q 138 370 129 368 q 120 366 115 364 q 111 363 104 360 q 97 358 96 358 q 95 357 89 352 q 83 348 75 342 q 67 336 59 330 q 51 324 47 321 l 41 315 q 40 313 37 308 q 34 303 31 297 q 28 291 26 286 q 23 280 22 277 q 22 276 20 269 q 17 262 16 259 q 14 254 12 244 q 10 235 10 234 q 10 233 10 220 q 9 208 9 201 z"},"b":{"x_min":0,"x_max":458,"ha":458,"o":"m 96 123 q 96 120 98 106 q 101 92 102 86 q 103 85 105 80 q 107 76 109 74 q 111 72 115 64 q 119 57 121 55 l 127 49 q 130 47 134 44 q 139 42 144 39 q 149 36 153 34 q 157 31 158 31 q 159 31 164 30 q 168 29 174 28 q 179 26 184 25 q 188 24 189 24 q 192 24 202 22 q 211 19 213 18 q 215 18 222 16 q 230 13 232 12 q 237 11 249 8 q 261 6 263 6 l 288 6 l 312 6 q 313 6 322 8 q 332 10 337 12 q 340 13 347 16 q 354 18 355 18 q 357 19 364 24 q 371 29 374 31 q 379 34 388 41 q 397 48 398 49 q 403 53 412 62 q 421 72 423 74 q 424 75 426 83 q 429 91 429 92 q 430 94 432 98 q 435 103 435 105 q 436 109 438 116 q 441 124 443 132 q 445 140 446 146 q 448 152 448 154 l 448 186 l 448 222 q 448 223 447 228 q 446 233 445 239 q 444 245 443 250 q 442 256 442 259 q 441 262 438 269 q 436 276 435 277 q 434 279 429 284 q 424 289 418 295 q 412 301 406 306 q 401 312 398 314 q 397 316 392 318 q 388 320 386 320 q 379 322 362 326 q 344 331 324 336 q 305 341 288 345 q 270 349 263 351 q 261 352 255 354 q 249 355 242 357 q 236 359 230 361 q 223 363 220 364 q 216 365 209 368 q 202 370 201 370 q 200 371 198 376 q 196 380 195 382 q 195 383 194 389 q 193 395 192 401 q 191 407 190 412 q 189 418 189 419 q 188 421 186 432 q 183 442 183 444 q 183 450 182 466 q 182 481 182 499 q 182 517 182 533 q 183 549 183 555 q 181 559 176 570 q 172 582 170 586 q 168 591 166 596 q 163 601 158 604 q 157 605 152 607 q 148 609 146 610 q 144 611 136 614 q 129 616 127 616 q 122 618 113 620 q 104 623 102 623 l 82 623 l 65 623 q 61 621 47 614 q 33 607 28 604 q 27 603 22 596 q 18 589 16 586 q 15 584 13 577 q 11 570 10 567 l 10 564 l 10 561 q 11 559 13 552 q 15 545 16 542 q 17 540 20 534 q 22 529 25 522 q 28 516 30 509 q 33 502 35 499 q 35 498 38 493 q 40 488 41 487 q 42 485 44 478 q 46 470 47 468 l 47 462 q 48 457 50 443 q 52 429 53 425 q 54 422 56 410 q 59 397 62 382 q 66 368 68 355 q 71 342 72 339 q 72 337 74 328 q 76 318 78 308 q 80 297 82 288 q 84 279 84 277 q 84 275 86 267 q 88 259 90 250 q 92 240 94 232 q 96 224 96 222 q 96 220 97 212 q 98 205 99 196 q 100 187 101 178 q 102 170 102 166 q 103 166 103 162 q 103 159 103 157 q 103 155 103 151 q 103 148 102 148 q 102 146 99 136 q 96 125 96 123 z m 225 198 q 225 202 226 208 q 226 215 226 216 q 227 218 232 222 q 236 227 238 228 q 239 228 246 228 q 252 229 256 229 q 260 229 267 228 q 274 228 275 228 q 277 227 287 222 q 297 218 300 216 q 303 214 310 206 q 317 199 318 197 q 318 197 318 194 q 319 191 319 189 q 319 187 318 183 q 318 179 318 179 q 318 176 316 166 q 314 157 312 154 q 311 152 309 148 q 307 143 306 142 q 305 141 298 136 q 291 131 287 129 l 275 123 l 272 123 l 269 123 q 265 124 258 126 q 251 129 250 129 q 249 131 244 138 q 240 145 238 148 q 237 150 235 155 q 233 160 231 165 q 229 170 228 174 q 226 178 226 179 q 226 180 226 187 q 225 194 225 198 z"},"%":{"x_min":0,"x_max":644,"ha":644,"o":"m 313 99 q 314 95 317 86 q 320 77 324 68 q 328 58 332 49 q 335 40 337 37 q 339 35 346 28 q 353 21 356 19 q 357 18 366 14 q 376 9 381 7 q 397 -1 414 -6 q 430 -12 448 -12 l 461 -12 q 464 -12 472 -11 q 479 -10 487 -9 q 495 -8 502 -7 q 508 -6 510 -6 q 512 -6 518 -4 q 524 -2 530 0 q 537 2 544 4 q 551 6 554 7 q 555 7 560 9 q 564 11 566 13 q 572 16 584 23 q 595 30 597 31 q 598 32 602 36 q 605 39 609 43 q 613 47 616 50 q 620 54 621 56 q 622 57 624 62 q 627 66 628 68 q 629 72 632 79 q 634 86 634 87 l 634 108 l 634 130 q 633 134 631 144 q 629 153 628 155 q 627 157 623 163 q 619 169 614 176 q 609 182 604 188 q 599 195 597 198 q 595 201 585 210 q 575 220 572 223 q 571 223 566 226 q 562 228 560 229 q 557 230 552 232 q 548 234 543 236 q 538 238 534 240 q 530 241 529 241 q 525 243 513 245 q 501 247 498 247 q 497 248 487 248 q 478 248 473 248 q 468 248 458 248 q 449 248 449 247 q 447 247 440 245 q 433 243 430 241 q 428 240 423 238 q 418 236 418 235 l 331 155 l 321 155 q 321 157 320 164 q 318 171 319 173 q 319 174 320 179 q 322 184 324 190 q 326 196 328 202 q 330 207 331 210 q 331 211 333 216 q 335 220 337 226 q 339 231 341 236 q 343 240 344 241 q 344 242 345 246 q 346 250 347 254 q 348 258 349 262 q 350 265 350 266 q 350 267 353 274 q 356 280 359 288 q 362 295 365 301 q 368 307 368 309 q 369 310 370 316 q 372 322 374 328 q 377 334 378 340 q 380 345 381 346 q 382 349 389 364 q 396 379 405 398 q 414 416 422 434 q 431 453 436 464 q 437 466 442 475 q 446 484 452 494 q 457 505 462 514 q 466 523 467 525 q 468 527 470 533 q 471 539 473 546 q 475 553 477 560 q 479 566 479 569 q 480 569 480 574 q 480 579 480 581 q 480 583 480 588 q 480 593 479 593 q 479 595 474 605 q 469 615 467 618 q 466 620 462 624 q 457 628 455 630 q 454 631 449 633 q 444 635 442 637 q 439 638 432 640 q 425 643 424 643 l 393 643 l 362 643 q 360 642 356 637 q 351 632 350 630 q 349 628 348 621 q 346 614 344 606 q 341 598 340 590 q 338 583 337 581 q 337 580 335 578 q 333 576 331 575 q 331 575 330 574 q 329 574 328 574 q 327 574 326 574 q 325 575 325 575 q 324 576 320 580 q 317 583 312 587 q 308 591 304 594 q 301 598 300 599 q 298 600 292 605 q 286 610 278 615 q 271 620 264 624 q 258 629 257 630 q 254 633 247 640 q 240 647 232 655 q 224 663 218 670 q 211 677 208 680 q 203 681 189 684 q 175 686 171 686 l 148 686 l 127 686 q 125 686 118 684 q 111 681 109 680 q 107 678 100 674 q 92 669 90 667 q 88 665 82 659 q 76 653 69 646 q 62 639 56 633 q 50 627 47 624 q 45 622 38 612 q 30 603 29 599 q 27 597 22 588 q 18 578 16 575 q 14 572 12 565 q 10 558 10 556 q 10 555 10 546 q 9 538 9 534 q 9 529 10 522 q 10 514 10 513 q 11 510 16 496 q 20 482 22 476 q 24 472 31 458 q 38 444 41 439 q 42 438 44 436 q 46 433 47 433 q 54 428 68 422 q 82 415 84 414 q 86 414 100 414 q 113 413 121 413 q 128 413 142 414 q 157 414 158 414 q 159 414 166 416 q 172 419 180 422 q 188 425 196 428 q 204 431 208 433 q 212 435 222 440 q 233 445 245 451 q 257 457 268 462 q 278 468 282 470 l 294 457 q 294 457 290 446 q 286 435 280 419 q 274 403 268 386 q 261 370 257 359 q 256 357 254 352 q 253 347 251 342 q 249 337 247 333 q 245 329 245 328 q 243 324 236 310 q 230 295 223 278 q 216 262 210 248 q 203 233 201 229 q 200 226 196 214 q 191 202 189 198 q 188 196 186 188 q 184 181 183 179 q 182 177 180 171 q 177 165 174 158 q 170 151 168 144 q 165 138 164 136 l 164 131 l 164 124 q 165 119 168 107 q 170 95 171 93 q 173 89 180 75 q 186 61 189 56 q 190 54 194 50 q 199 46 201 44 q 203 42 208 40 q 212 38 214 37 l 242 37 l 269 37 q 271 39 276 44 q 281 48 282 50 q 282 51 284 56 q 286 62 288 68 q 290 74 292 80 q 293 85 294 87 q 295 89 300 93 q 304 97 306 99 q 307 99 308 100 q 309 100 310 100 q 310 100 311 100 q 312 99 313 99 z m 319 130 q 324 130 324 124 q 324 118 319 118 q 314 118 314 124 q 314 130 319 130 z"},"m":{"x_min":0,"x_max":687,"ha":687,"o":"m 541 192 l 541 44 q 541 43 543 38 q 545 33 547 31 q 550 26 557 17 q 564 8 566 7 q 567 5 576 0 q 585 -4 590 -6 q 593 -7 600 -10 q 607 -12 609 -12 l 615 -12 l 621 -12 q 624 -11 631 -9 q 638 -7 640 -6 q 642 -4 652 6 q 661 15 664 19 q 666 21 668 25 q 670 29 671 31 q 671 35 672 45 q 673 55 674 67 q 675 79 676 90 q 677 100 677 105 l 677 153 l 677 198 q 677 199 674 208 q 672 218 671 223 q 669 226 667 233 q 665 240 664 241 q 663 243 658 250 q 654 258 652 260 q 650 263 645 268 q 640 272 635 277 q 630 282 626 286 q 622 290 621 291 q 619 292 611 296 q 603 300 593 305 q 583 310 574 314 q 564 319 560 321 q 558 323 548 325 q 539 327 535 328 q 532 328 524 329 q 517 330 508 331 q 499 332 491 333 q 483 334 479 334 q 475 334 460 335 q 445 336 427 337 q 409 338 394 339 q 378 340 374 340 q 364 341 348 342 q 333 343 318 344 q 304 345 293 346 q 282 346 282 346 q 280 346 272 349 q 263 352 254 355 q 245 358 236 361 q 228 364 226 365 q 202 372 176 373 q 151 374 127 377 q 126 377 120 378 q 115 379 109 380 q 103 381 97 382 q 91 383 90 383 q 88 383 78 384 q 67 384 62 384 q 57 384 49 384 q 41 383 41 383 q 39 383 30 373 q 21 363 16 358 q 14 356 12 352 q 10 348 10 346 q 10 345 10 333 q 9 321 9 316 q 9 311 10 301 q 10 291 10 291 q 10 289 13 284 q 16 280 19 275 q 22 270 25 266 q 28 261 29 260 q 30 258 32 248 q 34 239 35 235 q 35 232 36 224 q 37 215 38 206 q 39 196 40 186 q 41 177 41 173 l 41 149 q 41 143 42 133 q 43 123 44 113 q 45 103 46 96 q 47 88 47 87 q 48 85 53 78 q 58 70 59 68 q 60 67 62 62 q 65 58 68 52 q 72 47 74 42 q 77 38 78 37 l 84 31 q 88 29 98 24 q 107 19 109 19 q 109 19 114 18 q 119 18 121 18 q 123 18 128 18 q 133 19 133 19 q 137 20 146 24 q 156 29 158 31 q 162 34 168 44 q 175 53 177 56 q 177 56 178 62 q 178 68 179 76 q 180 83 181 92 q 182 100 183 105 l 183 109 l 183 111 q 182 113 180 124 q 177 134 177 136 q 176 138 175 143 q 174 148 173 153 q 172 158 172 162 q 171 166 171 167 q 170 171 169 179 q 168 187 167 195 q 166 203 165 209 q 164 215 164 216 q 164 218 166 222 q 169 227 171 229 q 171 230 176 232 q 181 234 183 235 q 186 236 196 238 q 205 241 208 241 l 217 241 l 226 241 q 227 241 232 239 q 236 237 238 235 q 241 233 250 226 q 260 219 263 216 q 265 215 270 210 q 274 206 275 204 q 278 201 282 194 q 287 187 288 186 q 289 183 292 171 q 294 159 294 155 q 294 151 294 142 q 295 132 295 121 q 295 110 294 100 q 294 91 294 87 q 295 85 297 80 q 299 76 300 74 q 302 71 306 64 q 311 57 313 56 q 314 54 318 50 q 321 47 325 43 q 329 39 332 36 q 336 32 337 31 q 339 30 344 28 q 348 25 350 25 q 350 25 356 24 q 363 24 366 24 q 369 24 374 24 q 380 25 380 25 q 382 25 391 32 q 400 39 405 44 q 407 46 412 50 q 416 54 418 56 l 424 68 q 425 72 427 84 q 429 96 430 99 l 430 111 q 430 131 426 150 q 423 170 423 190 q 423 193 424 198 q 424 204 424 204 q 424 205 426 207 q 428 209 430 210 q 432 212 436 214 q 441 216 442 216 q 443 217 446 217 q 449 217 451 217 q 453 217 456 217 q 460 217 461 216 q 468 215 480 214 q 491 212 502 210 q 513 208 521 206 q 529 204 529 204 z"},"#":{"x_min":0,"x_max":576,"ha":576,"o":"m 288 199 q 293 199 302 198 q 311 198 313 197 q 316 196 326 192 q 335 187 337 185 q 338 184 340 177 q 342 170 343 166 q 344 164 346 150 q 348 136 350 129 q 350 127 351 121 q 352 115 353 108 q 354 100 355 94 q 356 87 356 86 q 357 83 359 76 q 361 69 362 67 q 363 65 368 60 q 372 56 377 51 q 382 46 386 42 q 391 38 393 37 q 394 36 398 34 q 403 31 409 28 q 415 25 421 22 q 427 19 430 18 l 433 18 l 436 18 q 438 19 448 24 q 458 28 461 30 q 465 32 472 37 q 479 42 479 43 q 481 44 486 54 q 490 63 492 67 l 492 70 l 492 74 q 491 76 490 82 q 488 88 486 94 q 484 101 482 108 q 480 114 479 117 q 479 118 477 124 q 475 129 473 136 q 471 142 469 147 q 467 152 467 154 l 467 163 l 467 172 q 467 174 470 176 q 472 178 473 179 q 475 180 486 182 q 496 184 498 185 q 502 187 512 191 q 521 195 523 197 q 525 199 530 204 q 536 209 542 215 q 548 221 553 226 q 558 232 560 234 q 561 236 563 243 q 565 250 566 253 l 566 263 l 566 271 q 565 273 560 280 q 556 287 553 290 q 552 292 548 296 q 543 301 541 302 q 540 303 536 305 q 531 307 529 308 q 522 311 510 316 q 499 320 498 321 q 495 321 488 322 q 481 322 473 322 q 465 322 458 322 q 451 321 448 321 q 446 322 442 326 q 437 331 436 333 q 435 335 433 344 q 431 353 430 358 l 430 367 l 430 376 q 431 378 433 383 q 435 388 436 389 q 437 389 442 391 q 446 393 452 395 q 457 397 462 399 q 466 401 467 401 q 469 402 474 404 q 479 407 479 407 q 484 412 494 421 q 503 430 504 432 q 504 432 504 440 q 505 447 505 451 q 505 456 504 465 q 504 474 504 475 q 504 476 502 480 q 500 485 498 487 q 496 489 492 494 q 488 498 486 500 q 485 500 480 502 q 475 505 473 506 q 472 506 468 508 q 463 510 458 512 q 452 514 448 516 q 443 518 442 518 q 440 520 436 524 q 431 529 430 531 l 430 552 l 430 574 q 430 575 431 578 q 432 582 433 586 q 434 590 435 594 q 436 598 436 599 q 436 600 436 606 q 437 613 437 616 q 437 619 436 624 q 436 629 436 629 q 434 633 425 645 q 416 657 411 660 q 410 662 396 669 q 382 676 374 679 q 372 680 365 682 q 358 684 356 685 l 353 685 l 350 685 q 348 684 340 682 q 333 680 331 679 q 329 678 324 676 q 320 674 319 673 q 314 669 311 664 q 308 659 306 654 q 305 651 302 644 q 300 637 300 636 l 300 621 q 300 601 304 581 q 307 561 307 541 q 307 539 307 535 q 307 531 306 531 q 306 529 301 524 q 296 520 294 518 q 292 517 282 515 q 273 513 269 512 l 254 512 l 239 512 q 237 512 232 514 q 228 517 226 518 l 220 524 q 218 526 216 531 q 214 536 214 537 l 214 636 q 214 637 212 642 q 209 646 208 648 q 204 652 194 662 q 185 671 183 673 q 181 674 176 676 q 172 679 166 682 q 160 685 154 688 q 149 690 146 691 q 146 691 144 692 q 141 692 140 692 q 138 692 136 692 q 134 691 134 691 q 131 690 122 686 q 112 681 109 679 q 107 678 102 673 q 98 668 96 666 l 90 654 l 90 639 l 90 623 q 90 622 91 618 q 92 613 93 608 q 94 602 95 598 q 96 593 96 592 q 97 589 98 582 q 99 574 100 565 q 101 556 102 548 q 103 540 103 537 l 103 526 l 103 518 q 101 516 96 512 q 92 507 90 506 q 88 506 82 505 q 76 504 68 503 q 61 502 54 501 q 48 500 47 500 q 45 499 40 497 q 36 495 35 494 l 16 475 l 10 463 l 10 456 l 10 450 q 11 447 12 442 q 14 436 16 430 q 18 424 20 419 q 21 414 22 413 q 23 412 28 408 q 33 403 35 401 q 37 399 44 395 q 51 391 53 389 q 55 387 60 385 q 65 383 66 382 q 67 382 72 381 q 78 380 84 379 q 90 378 96 377 q 101 376 103 376 q 104 376 108 374 q 113 372 115 370 l 121 364 q 123 362 125 358 q 127 353 127 351 q 128 351 128 346 q 128 341 128 338 q 128 336 128 331 q 128 327 127 327 q 126 325 122 320 q 117 315 115 314 q 112 315 103 315 q 94 315 84 315 q 74 315 65 315 q 56 315 53 314 q 50 314 40 309 q 31 304 29 302 q 27 300 22 290 q 17 281 16 277 q 16 277 16 270 q 15 262 15 259 q 15 255 16 248 q 16 241 16 240 q 17 239 22 232 q 26 225 29 222 q 31 219 36 214 q 40 210 45 205 q 50 200 54 196 q 58 192 59 191 q 61 190 68 188 q 75 186 78 185 q 79 185 85 184 q 91 183 97 182 q 103 181 108 180 q 114 179 115 179 q 117 178 122 173 q 126 168 127 166 q 128 165 130 160 q 131 154 134 148 q 136 142 138 136 q 139 130 140 129 q 140 128 142 124 q 145 119 146 117 q 148 114 152 107 q 157 100 158 98 q 160 96 168 89 q 175 82 177 80 q 179 78 183 76 q 187 74 189 74 q 190 73 198 73 q 206 73 210 73 q 213 73 219 73 q 226 73 226 74 q 228 74 237 84 q 246 93 251 98 q 253 100 255 104 q 257 109 257 111 l 257 185 l 269 197 q 270 198 277 198 q 284 199 288 199 z m 226 382 l 239 395 l 306 395 l 325 376 l 325 321 l 313 308 q 312 308 302 308 q 293 307 288 307 q 281 307 267 308 q 253 308 251 308 q 249 308 245 310 q 241 313 239 314 q 236 316 231 321 q 226 326 226 327 z"},",":{"x_min":0,"x_max":199,"ha":199,"o":"m 9 -11 q 9 -16 10 -26 q 10 -36 10 -37 q 11 -40 16 -50 q 20 -59 22 -62 q 23 -62 30 -67 q 37 -72 41 -74 q 43 -76 48 -78 q 52 -80 53 -80 l 71 -80 l 90 -80 q 91 -80 98 -78 q 105 -76 109 -74 q 111 -73 116 -70 q 120 -68 121 -68 q 123 -66 128 -62 q 132 -57 133 -55 q 134 -53 138 -48 q 142 -43 146 -37 q 150 -31 154 -26 q 157 -20 158 -18 q 159 -15 162 -10 q 165 -4 168 2 q 171 8 174 12 q 176 17 176 19 q 177 21 178 28 q 180 35 182 44 q 185 53 186 62 q 188 70 189 74 l 189 83 l 189 93 q 188 99 186 113 q 184 127 183 130 q 182 132 177 142 q 172 152 170 154 q 168 157 161 164 q 154 171 152 173 q 150 175 140 180 q 130 184 127 185 q 125 186 114 188 q 102 190 96 191 l 93 191 l 90 191 q 86 189 76 185 q 67 181 65 179 q 62 177 56 170 q 49 162 47 160 q 46 158 44 149 q 41 140 41 136 q 41 133 40 122 q 39 112 38 99 q 37 86 36 76 q 35 65 35 62 q 34 60 30 53 q 27 46 22 38 q 18 29 14 22 q 10 14 10 12 q 10 12 10 3 q 9 -6 9 -11 z"},"n":{"x_min":0,"x_max":434,"ha":434,"o":"m 16 86 q 17 83 21 76 q 25 69 28 62 q 32 54 36 47 q 39 40 41 37 q 42 36 44 34 q 46 31 47 31 q 50 29 56 26 q 61 23 67 20 q 73 17 78 14 q 83 12 84 12 q 85 12 90 12 q 94 11 96 11 q 98 11 103 12 q 108 12 109 12 q 110 12 114 14 q 119 17 121 18 q 123 20 128 24 q 132 29 134 31 q 136 33 140 40 q 145 47 146 49 q 147 51 149 63 q 151 75 152 80 l 152 86 l 152 92 q 152 94 151 100 q 150 107 149 114 q 148 121 147 128 q 146 134 146 136 q 146 137 146 148 q 145 158 145 163 q 145 166 146 177 q 146 188 146 191 q 147 192 149 194 q 151 197 152 197 q 155 199 162 201 q 169 203 171 203 l 276 203 l 282 197 q 282 192 283 181 q 284 170 285 157 q 286 144 287 132 q 288 121 288 117 q 288 114 289 108 q 290 101 291 94 q 292 87 293 81 q 294 75 294 74 q 295 72 297 68 q 299 63 300 61 q 303 58 312 48 q 322 39 325 37 q 330 33 342 26 q 353 19 356 18 q 357 18 363 18 q 369 17 372 17 q 375 17 380 18 q 386 18 387 18 q 388 19 392 23 q 396 27 401 32 q 406 37 411 42 q 416 46 418 49 q 419 51 421 58 q 423 65 424 68 l 424 89 l 424 111 q 424 112 423 118 q 422 123 421 130 q 420 136 419 141 q 418 146 418 148 q 418 151 417 164 q 416 178 414 194 q 413 210 412 224 q 411 237 411 241 q 411 243 409 250 q 407 257 405 259 q 403 261 398 267 q 392 273 386 280 q 379 286 372 292 q 365 299 362 302 q 361 303 356 305 q 352 307 350 308 q 348 309 340 312 q 333 314 331 315 q 328 316 318 318 q 309 320 306 321 q 303 321 298 322 q 292 323 286 324 q 280 325 275 326 q 270 327 269 327 q 264 327 246 328 q 228 329 208 330 q 187 331 168 332 q 150 333 146 333 q 144 333 139 334 q 134 335 128 336 q 121 337 116 338 q 110 339 109 339 q 107 339 93 340 q 79 340 72 340 q 67 340 53 340 q 39 339 35 339 q 22 330 16 316 q 10 301 10 286 l 10 271 q 10 261 11 234 q 12 208 13 178 q 14 149 15 122 q 16 96 16 86 z"},"h":{"x_min":0,"x_max":446,"ha":446,"o":"m 288 66 l 288 62 q 288 59 289 54 q 290 48 291 42 q 292 36 293 31 q 294 26 294 25 q 294 23 296 19 q 299 15 300 13 q 302 10 312 0 q 322 -9 325 -12 q 326 -12 330 -14 q 335 -17 337 -18 q 341 -20 348 -22 q 355 -24 356 -24 q 357 -24 368 -19 q 380 -14 386 -12 q 390 -10 400 -6 q 409 -1 411 1 q 416 3 418 8 q 421 14 423 19 q 425 21 427 28 q 429 36 430 38 q 430 45 431 62 q 432 80 433 100 q 434 119 435 136 q 436 154 436 161 l 436 185 l 436 204 q 436 206 434 212 q 433 219 431 227 q 429 235 426 242 q 424 250 423 254 q 423 255 421 260 q 419 264 417 266 q 415 270 408 280 q 401 289 399 291 q 396 294 386 304 q 377 313 374 315 q 372 317 362 324 q 353 332 349 334 q 349 335 344 337 q 339 339 337 340 q 334 341 327 344 q 320 347 313 350 q 306 353 300 356 q 295 358 294 359 q 289 361 275 366 q 261 370 257 371 q 256 371 252 372 q 247 373 242 374 q 236 375 232 376 q 227 377 226 377 q 221 379 212 381 q 202 383 201 383 l 195 389 q 194 391 192 396 q 190 400 189 402 q 187 405 185 412 q 183 419 183 420 q 183 421 182 428 q 181 435 180 444 q 179 453 178 462 q 177 471 177 476 q 177 479 176 489 q 175 499 174 510 q 172 521 171 531 q 170 541 170 544 q 170 549 169 558 q 168 567 167 576 q 166 585 165 592 q 164 598 164 599 q 164 602 162 609 q 159 616 158 618 q 156 620 151 626 q 146 631 140 637 q 134 643 128 648 q 123 653 121 655 q 120 656 116 658 q 111 661 105 664 q 99 667 93 670 q 87 672 84 673 q 84 673 83 674 q 82 674 81 674 l 78 673 q 73 672 61 670 q 49 668 47 667 q 45 667 40 664 q 36 662 35 661 q 33 659 28 655 q 24 651 22 649 q 20 645 16 636 q 11 626 10 624 q 10 623 10 618 q 9 612 9 609 q 9 606 10 600 q 10 594 10 593 q 10 591 15 577 q 20 563 22 556 q 23 555 26 550 q 28 545 29 544 q 30 542 32 534 q 34 527 35 525 q 35 524 36 520 q 37 515 38 510 q 39 504 40 500 q 41 495 41 494 q 41 492 44 482 q 47 472 47 470 q 47 468 48 462 q 49 457 50 451 q 51 445 52 440 q 53 434 53 433 q 54 431 56 420 q 59 410 59 408 q 60 407 60 398 q 60 390 60 385 q 60 381 60 373 q 60 365 59 365 q 59 364 58 360 q 56 355 54 350 q 51 344 49 340 q 47 335 47 334 l 47 331 l 47 328 q 48 326 52 318 q 55 311 60 303 q 64 295 68 288 q 71 280 72 278 q 74 275 76 266 q 78 256 78 254 l 78 38 q 78 36 80 32 q 82 27 84 25 q 86 23 90 18 q 95 13 100 8 q 105 4 109 0 q 113 -4 115 -5 q 117 -7 124 -9 q 131 -11 133 -12 l 149 -12 l 164 -12 q 167 -11 174 -9 q 181 -7 183 -5 q 184 -4 188 0 q 193 4 198 8 q 203 13 208 18 q 212 23 214 25 q 214 26 216 31 q 219 36 220 38 q 221 40 223 47 q 225 54 226 56 q 224 59 222 67 q 219 75 216 84 q 213 93 210 101 q 208 109 207 112 q 207 113 207 117 q 207 122 207 127 q 207 133 207 137 q 207 142 207 143 q 207 146 206 156 q 205 167 204 180 q 203 192 202 203 q 201 214 201 217 l 201 224 l 201 229 q 202 231 207 235 q 212 239 214 241 q 215 242 220 244 q 224 247 226 248 l 229 248 l 232 248 q 240 246 248 243 q 256 240 263 235 q 267 233 274 228 q 281 224 282 223 q 282 222 287 215 q 292 208 294 204 q 295 203 297 198 q 299 194 300 192 q 300 187 300 174 q 301 160 301 155 q 301 148 300 134 q 300 120 300 118 q 300 116 298 108 q 297 101 294 93 q 292 85 290 78 q 288 70 288 69 z"},"z":{"x_min":0,"x_max":483,"ha":483,"o":"m 90 30 q 98 30 119 30 q 140 31 164 31 q 188 31 209 30 q 230 30 238 30 q 240 30 249 29 q 258 28 268 27 q 279 26 288 25 q 298 24 300 24 l 331 24 q 332 24 336 23 q 341 22 346 21 q 352 20 356 19 q 361 18 362 18 q 363 18 373 18 q 383 17 388 17 q 393 17 402 18 q 410 18 411 18 q 413 19 423 24 q 433 28 436 30 q 437 31 442 35 q 446 39 451 44 q 456 49 460 54 q 465 59 467 61 q 468 63 470 68 q 473 72 473 74 l 473 86 l 473 98 q 473 100 470 104 q 468 109 467 111 q 465 113 460 118 q 454 123 448 129 q 443 135 438 140 q 432 146 430 148 q 428 149 424 152 q 419 154 417 154 l 300 154 l 288 166 q 290 169 300 178 q 309 188 312 191 q 314 192 322 197 q 329 202 331 203 q 336 206 345 213 q 354 220 356 222 l 380 246 q 381 248 384 252 q 386 257 386 259 q 388 262 390 272 q 392 281 393 283 l 393 293 l 393 302 l 362 333 q 360 334 353 338 q 346 343 343 345 q 341 346 336 348 q 332 351 331 351 q 329 352 320 354 q 310 356 306 357 q 306 357 305 358 q 304 358 303 358 l 300 357 q 297 357 284 355 q 271 353 256 351 q 242 349 230 347 q 217 345 214 345 l 202 345 l 189 345 q 186 345 180 346 q 174 347 167 348 q 160 349 154 350 q 148 351 146 351 q 143 352 136 354 q 129 356 127 357 q 126 358 122 362 q 117 365 112 370 q 107 374 102 378 q 97 381 96 382 q 93 384 84 389 q 74 394 72 394 q 71 395 66 395 q 61 395 59 395 q 57 395 52 395 q 48 395 47 394 q 45 394 36 389 q 26 384 22 382 q 20 381 16 376 q 11 372 10 370 q 10 366 10 354 q 9 343 9 339 q 9 333 10 321 q 10 309 10 308 q 10 307 12 302 q 14 298 16 296 q 18 293 22 288 q 27 282 32 276 q 37 270 41 265 q 45 260 47 259 q 48 257 55 252 q 62 248 66 246 q 68 244 78 240 q 87 236 90 234 q 91 234 96 232 q 100 230 106 228 q 111 226 116 224 q 120 222 121 222 q 124 220 128 218 q 133 216 133 215 q 134 215 134 211 q 134 208 134 206 q 134 205 134 201 q 134 198 133 197 q 130 196 123 192 q 116 189 108 185 q 100 181 94 178 q 87 174 84 172 q 82 171 78 167 q 73 163 68 158 q 64 153 60 148 q 55 143 53 141 q 52 139 50 132 q 47 126 47 123 q 47 122 46 114 q 46 107 46 103 q 46 100 46 93 q 47 86 47 86 q 48 83 52 74 q 57 64 59 61 q 60 59 64 54 q 69 50 74 45 q 79 40 84 36 q 88 31 90 30 z"},"B":{"x_min":0,"x_max":576,"ha":576,"o":"m 115 25 q 120 25 134 24 q 147 23 162 22 q 176 20 190 19 q 203 18 208 18 q 259 14 309 10 q 359 6 410 6 l 430 6 q 431 6 436 7 q 441 8 447 9 q 453 10 458 11 q 464 12 467 12 q 471 13 480 16 q 490 18 492 18 q 496 20 505 24 q 514 29 516 31 q 518 32 523 37 q 528 42 534 48 q 540 54 546 60 q 551 65 553 68 q 555 69 557 74 q 559 78 560 80 q 560 81 561 87 q 562 93 563 100 q 564 106 565 113 q 566 120 566 123 l 566 129 l 566 136 q 566 141 565 150 q 564 159 563 168 q 562 177 561 184 q 560 190 560 191 q 559 194 554 206 q 549 217 547 222 q 545 226 538 238 q 531 250 529 253 q 528 254 524 259 q 519 264 513 271 q 507 278 501 285 q 495 292 492 296 l 486 302 q 482 305 472 312 q 463 319 461 321 q 459 322 452 326 q 444 331 436 336 q 428 342 420 346 q 413 351 411 352 q 409 354 404 358 q 400 363 399 364 q 399 365 398 368 q 398 371 398 373 q 398 375 398 378 q 399 382 399 383 q 399 384 402 390 q 405 395 408 402 q 411 408 414 413 q 417 418 418 420 q 420 426 425 438 q 430 450 430 451 l 430 549 q 430 552 428 559 q 426 566 424 568 q 423 569 419 574 q 415 578 410 583 q 405 588 400 592 q 395 597 393 599 q 392 600 387 604 q 382 607 376 611 q 370 615 364 618 q 359 622 356 624 q 353 626 344 630 q 334 634 331 636 q 326 638 316 642 q 307 645 296 649 q 285 653 276 656 q 266 660 263 661 q 262 661 258 662 q 253 663 248 664 q 242 665 238 666 q 233 667 232 667 q 230 667 223 669 q 216 671 208 673 q 199 675 192 677 q 185 679 183 679 q 180 680 173 681 q 166 682 158 683 q 150 684 143 684 q 136 685 134 685 q 133 685 128 685 q 123 685 116 686 q 110 686 103 686 q 97 686 93 686 q 88 686 73 686 q 58 685 53 685 q 51 685 47 683 q 43 681 41 679 q 39 677 34 673 q 30 669 25 664 q 20 659 16 654 q 11 650 10 648 l 10 639 l 10 630 q 11 627 13 620 q 15 613 16 611 q 18 609 24 600 q 31 591 35 587 q 37 585 42 580 q 46 575 47 574 q 48 574 52 572 q 55 570 59 568 q 63 566 67 564 q 71 562 72 562 q 74 560 78 556 q 83 551 84 549 q 85 547 88 537 q 90 527 90 525 q 91 523 94 516 q 96 508 96 506 q 97 504 98 496 q 100 487 102 478 q 104 468 106 458 q 108 449 109 444 q 109 441 112 428 q 114 415 117 398 q 120 382 122 365 q 125 348 127 339 q 129 331 131 317 q 133 303 134 302 l 134 238 l 134 173 q 132 171 128 166 q 123 162 121 160 q 120 159 114 156 q 109 154 103 151 q 97 148 91 146 q 85 143 84 142 q 82 140 78 136 q 73 132 72 130 q 71 126 71 115 q 71 105 71 102 q 71 97 71 86 q 71 75 72 74 q 72 72 77 62 q 82 53 84 49 q 86 47 93 40 q 100 33 103 31 q 104 29 108 27 q 113 25 115 25 z m 251 266 l 251 272 q 251 274 254 278 q 256 283 257 284 q 258 285 262 287 q 267 289 269 290 l 272 290 l 276 290 q 278 289 285 287 q 292 285 294 284 q 296 283 303 280 q 310 276 318 272 q 326 268 333 264 q 340 261 343 259 q 347 257 354 253 q 362 249 369 245 q 376 241 381 238 q 386 235 387 235 q 388 234 392 230 q 396 225 401 219 q 406 213 410 207 q 415 201 418 197 q 418 196 420 192 q 423 187 424 185 q 425 182 428 175 q 430 168 430 167 l 430 156 l 430 148 q 429 146 422 139 q 415 132 411 130 q 410 129 403 126 q 396 124 393 123 q 390 122 378 120 q 367 118 362 117 l 359 117 l 356 117 q 350 118 340 119 q 330 120 320 121 q 310 122 302 122 q 295 123 294 123 q 292 124 288 126 q 284 128 282 130 q 280 131 276 136 q 271 140 269 142 l 263 154 q 262 158 260 170 q 258 181 257 185 q 257 187 256 196 q 255 206 254 218 q 253 230 252 242 q 251 253 251 259 z m 226 438 q 225 442 222 454 q 220 465 217 478 q 214 491 212 502 q 209 514 208 519 q 207 519 207 523 q 207 527 207 529 q 207 531 207 534 q 207 537 208 537 q 209 539 214 544 q 218 548 220 549 q 220 550 223 550 q 227 550 229 550 q 231 550 234 550 q 238 550 239 549 q 239 549 243 548 q 247 546 252 544 q 257 542 262 540 q 266 538 269 537 q 271 536 276 534 q 281 532 282 531 q 284 529 291 522 q 298 515 300 512 q 301 511 304 506 q 306 502 306 500 q 306 500 306 499 q 307 498 307 497 q 307 496 306 495 q 306 494 306 494 q 306 492 304 484 q 301 477 300 475 q 298 471 294 462 q 289 453 288 451 q 286 449 279 442 q 272 434 269 432 q 268 431 264 428 q 259 426 257 426 q 256 426 252 426 q 249 425 247 425 q 245 425 242 426 q 239 426 239 426 q 237 427 232 432 q 227 436 226 438 z"},"K":{"x_min":0,"x_max":594,"ha":594,"o":"m 265 192 q 276 192 286 188 q 297 184 306 179 q 312 175 324 168 q 335 161 337 160 q 339 159 344 155 q 349 151 355 146 q 361 141 366 136 q 372 131 374 129 q 377 126 382 120 q 388 115 394 109 q 400 103 405 98 q 410 93 411 92 q 413 90 418 80 q 422 70 423 68 q 425 65 432 56 q 440 46 442 43 l 467 18 q 469 16 476 11 q 483 6 485 6 q 486 6 493 6 q 500 5 503 5 q 507 5 514 6 q 521 6 522 6 q 524 6 533 11 q 542 16 547 18 q 549 20 556 24 q 563 29 565 31 q 567 32 569 34 q 571 36 571 37 q 573 40 578 50 q 583 60 584 62 l 584 67 l 584 74 q 583 79 581 91 q 579 103 578 105 q 576 108 572 118 q 567 127 565 129 q 563 131 556 138 q 549 146 547 148 q 546 149 542 152 q 537 154 532 157 q 526 160 522 162 q 517 165 516 166 q 513 168 502 177 q 491 186 478 196 q 466 207 456 216 q 445 226 442 228 q 439 231 434 235 q 429 239 424 243 q 419 247 415 250 q 411 253 411 253 q 410 254 404 256 q 399 259 393 262 q 387 265 381 268 q 375 270 374 271 q 369 274 360 278 q 352 283 343 288 q 334 293 327 297 q 320 301 319 302 q 317 304 312 308 q 308 313 306 315 l 306 317 l 306 321 q 307 322 309 326 q 311 331 312 333 q 313 335 318 342 q 324 350 325 352 q 326 353 328 358 q 331 362 334 367 q 337 372 340 376 q 342 381 343 382 q 345 385 352 394 q 359 404 362 407 q 363 408 368 414 q 372 419 378 426 q 384 433 390 440 q 396 446 399 450 q 400 452 406 460 q 413 467 420 475 q 428 483 434 490 q 440 498 442 500 q 443 502 446 506 q 448 510 448 512 q 448 512 448 517 q 449 522 449 524 q 449 526 448 531 q 448 536 448 537 q 448 539 446 546 q 443 553 442 555 q 441 557 436 564 q 432 572 430 574 q 423 582 416 588 q 408 593 399 598 q 397 600 392 602 q 388 604 386 605 q 384 605 374 608 q 365 610 362 611 l 359 611 l 356 611 q 353 610 344 608 q 334 606 331 605 q 327 603 320 601 q 313 599 312 598 q 310 597 303 590 q 296 583 294 580 q 292 578 288 570 q 283 563 281 561 q 281 560 279 554 q 277 549 275 543 q 273 537 271 531 q 269 525 269 524 q 267 519 262 508 q 258 496 257 493 q 255 488 250 479 q 246 470 241 460 q 236 450 232 442 q 227 434 226 432 q 225 430 222 424 q 218 419 214 413 q 210 407 206 402 q 202 397 201 395 q 200 394 196 394 q 193 394 192 394 q 190 394 186 394 q 183 394 183 395 q 182 395 180 400 q 178 405 177 407 q 175 410 173 422 q 171 434 170 438 q 170 441 169 451 q 168 461 167 472 q 166 483 165 493 q 164 503 164 506 q 164 515 162 530 q 160 545 159 555 q 158 565 158 567 q 158 569 153 576 q 148 583 146 586 l 127 605 q 124 606 118 609 q 113 612 107 615 q 101 618 96 620 q 91 623 90 623 q 90 623 82 624 q 73 624 68 624 q 63 624 52 624 q 42 623 41 623 q 39 623 35 621 q 31 619 29 617 q 27 615 22 610 q 17 606 16 605 q 15 603 12 596 q 10 588 10 586 q 10 585 10 576 q 9 566 9 561 q 9 559 10 549 q 10 539 10 537 q 13 529 20 508 q 27 487 35 463 q 43 439 50 418 q 56 397 59 389 q 60 387 63 376 q 66 365 70 351 q 74 337 78 324 q 82 310 84 302 q 84 301 85 298 q 86 294 87 290 q 88 286 89 282 q 90 278 90 277 q 91 276 94 268 q 96 261 96 259 q 96 258 97 253 q 98 248 99 241 q 100 234 101 227 q 102 220 103 216 q 103 211 104 202 q 105 194 106 186 q 107 179 108 173 q 109 167 109 166 q 109 163 109 152 q 109 142 109 129 q 109 117 109 106 q 109 95 109 92 q 109 90 111 86 q 113 81 116 75 q 119 69 122 64 q 125 58 127 55 q 130 51 140 42 q 149 33 152 31 q 154 30 168 25 q 182 20 189 18 l 192 18 l 195 18 q 197 19 204 21 q 212 23 214 25 q 216 26 220 28 q 225 30 226 31 q 228 32 232 36 q 236 41 238 43 q 243 48 250 58 q 256 67 257 68 l 257 84 l 257 105 q 257 107 254 117 q 251 127 251 129 q 249 135 247 146 q 245 158 244 160 l 244 171 l 244 179 q 246 181 250 186 q 255 190 257 191 q 257 191 260 192 q 263 192 265 192 z"},"R":{"x_min":0,"x_max":483,"ha":483,"o":"m 214 162 q 216 162 218 162 q 220 161 220 161 q 221 160 224 156 q 226 153 229 149 q 232 145 234 141 q 237 137 238 136 q 255 116 272 96 q 289 75 306 56 q 309 53 316 46 q 324 38 332 30 q 340 22 346 16 q 353 9 356 7 q 357 5 364 0 q 371 -4 374 -6 q 379 -8 388 -13 q 397 -18 399 -18 q 399 -18 404 -18 q 409 -19 411 -19 q 413 -19 418 -18 q 423 -18 423 -18 q 425 -17 434 -12 q 444 -8 448 -6 q 449 -5 451 -3 q 453 -1 454 1 q 456 3 460 10 q 465 17 467 19 q 468 21 470 26 q 473 31 473 31 q 473 33 474 42 q 474 51 474 56 q 474 60 474 67 q 473 74 473 75 q 472 76 468 80 q 463 85 458 91 q 452 97 446 103 q 440 109 436 112 q 434 113 428 116 q 423 120 417 124 q 411 128 406 132 q 400 135 399 136 q 394 141 382 153 q 369 165 355 179 q 341 193 329 206 q 317 218 312 223 q 311 224 308 228 q 306 233 306 235 q 306 236 308 240 q 311 245 312 247 q 318 256 328 260 q 337 264 343 272 q 345 274 350 282 q 354 289 356 291 q 357 293 360 300 q 364 307 368 315 q 372 323 376 330 q 379 337 380 340 q 383 346 388 358 q 392 369 393 371 q 393 371 393 376 q 393 382 394 389 q 394 396 394 403 q 394 410 394 414 q 394 419 394 436 q 393 452 393 457 q 391 460 386 470 q 382 479 380 482 q 378 484 369 494 q 360 503 356 507 q 354 508 350 512 q 346 515 341 518 q 336 522 332 526 q 327 529 325 531 q 323 533 316 538 q 308 542 306 544 q 304 545 294 552 q 284 560 282 562 q 249 584 216 603 q 183 622 146 636 q 143 637 135 640 q 127 642 118 645 q 109 648 101 651 q 93 654 90 655 q 86 656 77 658 q 68 661 66 661 l 53 661 l 41 661 q 39 660 34 658 q 30 656 29 655 q 28 654 23 647 q 18 640 16 636 q 14 634 12 630 q 10 625 10 624 q 10 623 10 611 q 9 599 9 593 q 9 587 10 575 q 10 563 10 562 q 10 560 13 552 q 16 545 16 544 q 17 542 19 532 q 21 523 22 519 q 23 516 24 508 q 26 500 28 491 q 31 482 32 474 q 34 466 35 463 q 36 459 38 448 q 40 436 41 432 q 41 431 42 426 q 43 420 44 414 q 45 408 46 402 q 47 396 47 395 q 47 393 49 384 q 51 375 53 364 q 55 354 57 345 q 59 336 59 334 q 59 332 60 326 q 61 320 62 314 q 63 307 64 300 q 65 294 66 291 q 66 285 67 276 q 68 267 69 258 q 70 250 71 243 q 72 236 72 235 l 72 99 q 72 97 74 90 q 77 83 78 81 q 80 77 84 68 q 88 58 90 56 l 96 50 q 99 48 106 43 q 113 38 115 38 q 117 36 124 34 q 131 32 133 31 l 140 31 l 146 31 q 148 32 152 34 q 157 36 158 38 q 161 41 167 46 q 173 52 179 58 q 185 64 190 68 q 194 73 195 75 q 197 77 199 86 q 201 95 201 99 q 201 102 202 110 q 202 118 202 127 q 202 136 202 144 q 201 152 201 155 l 207 161 q 208 161 210 162 q 213 162 214 162 z m 152 454 l 152 457 q 153 460 155 467 q 157 474 158 476 q 159 477 161 480 q 163 482 164 482 l 173 482 l 183 482 q 184 482 188 480 q 193 477 195 476 q 197 474 203 470 q 209 466 216 461 q 223 456 229 452 q 235 447 238 445 q 239 444 242 442 q 244 440 244 439 q 246 437 250 430 q 255 422 257 420 q 258 418 260 414 q 263 409 263 408 l 263 401 l 263 395 q 262 393 258 383 q 253 373 251 371 q 249 369 244 364 q 240 360 238 358 q 236 357 229 355 q 222 353 220 352 l 211 352 l 201 352 q 199 353 192 355 q 185 357 183 358 q 181 359 176 364 q 172 369 170 371 q 169 372 167 376 q 165 381 164 383 q 164 385 162 396 q 159 408 158 414 q 158 417 157 422 q 156 428 155 434 q 154 440 153 444 q 152 449 152 451 z"},"T":{"x_min":0,"x_max":465,"ha":465,"o":"m 202 56 q 203 54 206 48 q 208 43 211 37 q 214 31 216 26 q 219 21 220 19 q 221 17 228 10 q 235 3 239 1 q 241 -1 248 -6 q 255 -10 257 -12 q 259 -13 266 -16 q 274 -18 276 -18 l 285 -18 l 294 -18 q 297 -17 306 -12 q 316 -8 319 -6 l 344 19 q 344 20 346 24 q 349 29 350 31 q 351 35 354 42 q 356 49 356 50 l 356 62 l 356 75 q 356 78 354 88 q 352 99 350 112 q 347 124 346 135 q 344 146 344 149 q 343 154 342 175 q 341 196 340 220 q 339 244 338 265 q 337 286 337 291 q 337 293 336 300 q 335 307 334 316 q 333 324 332 331 q 331 338 331 340 q 331 346 330 357 q 329 368 328 378 q 327 389 326 398 q 325 406 325 408 l 325 445 l 325 482 q 326 484 328 486 q 330 488 331 489 q 333 490 340 492 q 348 494 350 495 q 352 495 360 496 q 368 497 378 498 q 387 499 395 500 q 403 501 405 501 q 407 501 412 504 q 416 506 418 507 q 422 511 432 520 q 441 530 442 532 q 443 533 445 537 q 447 541 449 546 q 451 551 452 556 q 454 561 455 563 l 455 572 l 455 581 q 454 583 452 588 q 450 592 449 594 q 447 596 442 600 q 438 605 436 606 q 432 608 424 612 q 417 616 409 620 q 401 624 394 628 q 388 631 387 631 l 368 631 l 344 631 q 342 631 336 630 q 331 629 325 628 q 319 627 314 626 q 308 625 307 625 q 305 625 298 624 q 290 623 282 622 q 274 620 266 619 q 259 618 257 618 q 255 618 250 617 q 245 616 238 615 q 232 614 226 613 q 221 612 220 612 q 215 611 208 610 q 200 609 192 608 q 184 607 178 606 q 172 606 171 606 l 72 606 q 67 606 55 604 q 43 601 41 600 q 39 599 30 590 q 20 580 16 575 q 15 573 12 569 q 10 565 10 563 q 10 562 10 556 q 9 550 9 547 q 9 544 10 538 q 10 532 10 532 q 11 529 16 520 q 20 510 22 507 q 24 505 28 500 q 33 495 38 490 q 43 485 47 481 q 51 477 53 476 q 55 475 64 472 q 74 470 78 470 q 84 470 100 470 q 116 469 133 469 q 151 469 167 470 q 183 470 189 470 l 195 464 q 196 463 198 448 q 200 433 202 412 q 204 391 206 370 q 207 348 208 334 l 208 253 l 208 161 q 208 155 207 140 q 206 125 205 108 q 204 92 203 77 q 202 62 202 56 z"},"P":{"x_min":0,"x_max":440,"ha":440,"o":"m 140 98 q 140 96 142 88 q 145 81 146 79 q 147 77 149 72 q 151 68 152 67 q 155 62 162 53 q 169 44 171 42 q 173 40 182 36 q 192 31 195 30 q 196 30 203 30 q 210 29 214 29 q 217 29 224 30 q 231 30 232 30 q 234 31 244 36 q 253 40 257 42 q 259 44 263 48 q 267 53 269 55 q 270 56 272 60 q 274 65 275 67 q 277 70 279 77 q 281 84 282 86 l 282 101 q 282 133 272 164 q 263 196 263 228 l 263 246 q 265 247 270 249 q 274 251 275 252 q 277 253 284 256 q 292 258 294 258 q 299 260 311 264 q 323 269 325 271 q 330 273 339 278 q 348 282 350 283 q 353 285 358 290 q 364 296 370 302 q 376 308 380 313 q 385 318 387 320 q 387 321 390 327 q 393 333 397 341 q 401 349 405 357 q 409 365 411 370 q 413 374 416 380 q 419 387 422 394 q 425 401 428 406 q 430 412 430 413 l 430 424 q 430 441 424 454 q 419 467 411 481 q 409 483 405 490 q 401 497 399 499 q 396 502 386 512 q 377 522 374 524 q 372 525 365 531 q 358 537 349 544 q 340 550 332 557 q 323 564 319 567 q 317 569 310 573 q 303 577 300 579 q 298 581 293 584 q 288 587 283 590 q 278 593 274 596 q 270 598 269 598 q 266 600 258 604 q 251 607 243 611 q 235 615 228 618 q 222 622 220 623 q 218 624 204 628 q 190 633 183 635 q 180 636 173 638 q 166 640 159 642 q 152 644 146 646 q 141 647 140 647 q 137 648 132 649 q 126 650 120 651 q 114 652 109 653 q 104 654 103 654 l 81 654 l 59 654 q 57 653 48 651 q 39 649 35 647 q 33 647 28 644 q 24 642 22 641 q 20 640 16 636 q 12 631 10 629 q 10 627 10 618 q 9 610 9 607 q 9 603 10 595 q 10 587 10 586 q 11 582 18 568 q 25 554 29 549 q 30 547 38 540 q 46 532 47 530 q 48 529 50 524 q 53 519 56 513 q 59 507 62 502 q 64 496 66 493 q 67 491 69 484 q 71 477 72 475 q 72 473 74 464 q 76 456 78 446 q 80 437 82 429 q 84 421 84 419 q 85 416 86 408 q 88 401 90 393 q 92 385 94 378 q 96 372 96 370 q 97 368 100 360 q 102 353 103 351 q 105 343 108 328 q 112 313 116 297 q 120 281 123 268 q 126 255 127 252 q 128 250 129 244 q 130 238 131 231 q 132 224 132 218 q 133 212 133 209 q 134 203 135 187 q 136 171 137 154 q 138 136 139 120 q 140 104 140 98 z m 189 478 l 189 481 l 201 493 q 202 493 204 494 q 206 494 207 494 q 209 494 211 494 q 213 493 214 493 q 217 492 222 490 q 228 487 234 484 q 240 481 244 478 q 249 476 251 475 l 282 444 q 283 442 285 438 q 287 433 288 431 l 288 421 l 288 413 q 286 411 277 402 q 268 392 263 388 q 262 387 258 385 q 253 383 251 382 q 247 380 240 378 q 233 376 232 376 q 231 376 226 378 q 222 380 220 382 q 215 385 212 390 q 210 395 208 400 q 206 403 204 410 q 202 417 201 419 q 201 422 199 430 q 197 437 195 446 q 193 455 192 463 q 190 471 189 475 z"},"|":{"x_min":0,"x_max":230,"ha":230,"o":"m 47 56 l 47 -49 q 47 -50 52 -60 q 57 -69 59 -74 q 61 -77 66 -84 q 70 -91 72 -92 q 74 -94 81 -98 q 88 -103 90 -105 q 95 -107 107 -112 q 119 -116 121 -117 q 122 -117 129 -118 q 136 -118 140 -118 q 144 -118 150 -118 q 157 -117 158 -117 q 161 -116 170 -112 q 180 -107 183 -105 q 185 -103 190 -98 q 196 -93 202 -87 q 208 -81 213 -76 q 218 -70 220 -68 l 220 -24 l 220 19 q 220 20 218 29 q 215 38 214 43 q 213 45 211 52 q 209 58 207 65 q 205 72 203 78 q 201 85 201 87 q 201 88 200 94 q 199 99 198 105 q 197 111 196 116 q 195 122 195 124 q 195 126 192 133 q 190 140 189 142 q 187 152 184 176 q 180 201 176 228 q 173 256 169 280 q 165 305 164 315 q 164 318 162 330 q 160 343 158 358 q 156 373 154 387 q 153 401 152 408 q 151 413 150 422 q 149 430 148 438 q 147 445 146 451 q 146 457 146 457 q 146 458 146 466 q 146 475 146 486 q 145 496 145 507 q 145 518 145 525 q 145 529 145 538 q 145 548 146 559 q 146 570 146 579 q 146 589 146 593 q 146 595 148 605 q 151 615 152 617 q 153 619 156 628 q 158 636 161 645 q 164 654 167 662 q 170 671 170 673 q 171 674 171 680 q 171 687 171 690 q 171 694 171 701 q 171 709 170 710 q 170 712 168 719 q 166 726 164 728 q 163 730 156 740 q 149 749 146 753 q 144 755 140 760 q 135 765 133 766 q 130 768 120 772 q 111 777 109 778 l 97 778 l 84 778 l 66 772 q 63 770 56 766 q 49 761 47 759 q 46 758 42 751 q 37 744 35 741 q 33 737 28 728 q 23 718 22 716 q 21 714 19 702 q 17 690 16 685 q 16 683 15 676 q 14 669 13 660 q 12 652 11 643 q 10 634 10 630 l 10 627 l 10 624 q 10 620 11 604 q 12 589 13 571 q 14 553 15 538 q 16 523 16 519 q 16 514 17 496 q 18 478 19 457 q 20 436 21 418 q 22 399 22 395 q 22 394 23 390 q 24 385 26 380 q 27 374 28 370 q 29 365 29 364 q 29 362 30 348 q 32 335 34 317 q 36 299 38 281 q 40 263 41 253 q 42 247 43 237 q 44 227 45 218 q 46 208 46 200 q 47 193 47 192 l 47 148 q 47 146 48 137 q 49 128 50 118 q 51 107 52 98 q 53 89 53 87 l 53 80 l 53 74 q 53 72 50 65 q 48 58 47 56 z"},"t":{"x_min":0,"x_max":390,"ha":390,"o":"m 131 222 q 133 222 136 222 q 139 222 139 221 q 141 221 145 218 q 149 216 149 215 l 149 67 q 149 67 152 62 q 156 57 158 55 q 159 53 163 50 q 167 46 171 42 q 175 38 178 34 q 182 31 183 30 q 185 28 192 24 q 199 19 201 18 q 202 18 206 18 q 211 17 213 17 q 215 17 220 18 q 225 18 226 18 q 228 19 238 24 q 247 28 250 30 q 257 35 268 44 q 278 53 278 55 l 278 221 q 278 222 282 224 q 285 226 287 228 q 289 229 296 231 q 304 233 306 234 q 307 234 312 235 q 316 236 322 237 q 327 238 332 239 q 336 240 337 240 q 341 242 350 246 q 359 250 361 252 q 363 254 368 261 q 372 268 374 271 q 376 274 378 284 q 380 293 380 295 q 380 297 378 302 q 376 306 374 308 q 372 310 365 317 q 358 324 355 326 q 354 328 347 332 q 340 337 337 339 q 335 340 330 342 q 326 344 324 345 q 322 345 315 347 q 308 349 300 351 q 292 353 284 354 q 277 356 275 357 q 274 358 270 362 q 265 367 263 369 q 262 370 260 374 q 257 379 254 384 q 250 390 248 394 q 245 399 244 400 q 242 402 235 410 q 228 417 226 419 q 224 420 217 424 q 210 429 207 431 q 202 433 193 438 q 184 443 183 443 q 182 444 174 444 q 167 444 162 444 q 157 444 148 444 q 140 444 139 443 q 138 443 134 441 q 129 439 127 437 q 125 435 118 428 q 111 421 109 419 q 107 417 105 412 q 103 408 102 406 q 102 403 101 395 q 100 387 99 378 q 98 370 97 362 q 96 354 96 351 q 95 350 90 348 q 86 345 84 345 q 83 345 78 344 q 74 343 68 342 q 63 341 58 340 q 54 339 53 339 q 51 338 46 336 q 42 334 41 332 q 38 330 33 325 q 28 320 23 316 q 18 311 14 307 q 10 303 10 302 q 10 301 10 296 q 9 292 9 290 q 9 288 10 283 q 10 278 10 277 q 11 274 16 264 q 20 255 22 252 q 23 251 26 248 q 30 244 34 240 q 38 237 42 233 q 45 229 47 228 q 48 227 52 225 q 57 223 59 221 q 61 220 68 218 q 76 216 78 215 l 81 215 q 94 215 106 218 q 118 222 131 222 z"},"M":{"x_min":0,"x_max":748,"ha":748,"o":"m 522 297 q 524 297 526 297 q 528 297 528 296 q 529 296 531 294 q 533 292 534 290 q 536 288 538 284 q 540 280 540 278 q 541 276 543 267 q 545 258 547 253 q 548 249 550 238 q 552 226 553 222 q 554 218 556 208 q 557 198 559 186 q 561 174 562 163 q 564 152 565 148 q 565 146 566 140 q 567 134 568 126 q 569 119 570 112 q 571 106 571 105 q 572 101 574 92 q 577 84 580 75 q 583 66 586 59 q 589 52 590 50 q 591 48 595 42 q 599 36 604 29 q 609 22 614 16 q 618 10 621 7 q 621 6 628 1 q 635 -4 639 -6 q 641 -8 646 -10 q 651 -12 651 -12 l 664 -12 l 676 -12 q 679 -11 686 -9 q 693 -7 695 -6 q 698 -4 704 2 q 710 8 717 15 q 724 22 730 28 q 736 34 738 37 q 738 39 738 45 q 739 51 739 53 q 739 56 738 62 q 738 67 738 68 q 737 70 734 78 q 730 85 726 93 q 721 101 718 108 q 714 116 713 118 q 711 121 707 132 q 703 144 701 148 q 698 156 693 171 q 688 186 683 200 q 678 215 674 227 q 671 239 670 241 q 669 245 666 262 q 662 278 658 296 q 653 315 650 332 q 646 348 645 352 q 645 355 642 365 q 639 375 636 386 q 633 397 630 407 q 627 417 627 420 q 626 424 624 434 q 622 443 620 452 q 618 462 616 470 q 614 479 614 481 q 614 486 613 500 q 612 513 611 528 q 610 542 609 556 q 608 569 608 574 q 607 576 602 583 q 598 590 596 592 q 594 594 590 598 q 585 603 584 605 q 583 605 578 608 q 573 610 571 611 q 565 613 554 618 q 542 623 540 623 q 540 623 534 624 q 527 624 523 624 q 519 624 512 624 q 504 623 503 623 q 501 623 494 621 q 487 619 485 617 q 483 616 476 609 q 469 602 466 599 q 465 597 463 592 q 461 588 460 586 q 460 583 459 572 q 458 562 457 550 q 456 537 455 526 q 454 515 454 512 q 454 510 452 498 q 450 487 448 481 q 447 479 445 470 q 443 460 442 457 q 441 453 439 446 q 437 440 435 433 q 433 426 431 420 q 429 415 429 414 q 426 405 418 381 q 410 357 402 330 q 393 304 385 280 q 377 256 374 247 q 373 245 368 240 q 364 236 362 235 q 361 235 359 234 q 357 234 355 234 q 354 234 352 234 q 350 235 349 235 q 348 236 344 240 q 339 245 337 247 q 335 249 330 256 q 326 263 320 272 q 314 281 308 290 q 303 298 300 303 q 299 304 296 308 q 294 313 290 318 q 287 323 284 328 q 282 332 281 333 q 280 335 273 344 q 266 354 263 358 q 262 359 258 364 q 253 370 248 376 q 242 383 238 388 q 233 393 232 395 q 230 397 226 404 q 221 412 220 414 q 218 416 214 428 q 209 439 207 444 q 205 451 200 465 q 195 479 195 481 q 194 486 192 498 q 190 511 188 524 q 186 538 184 550 q 183 563 183 568 q 181 570 174 577 q 166 584 164 586 q 162 588 157 592 q 152 596 147 600 q 142 604 138 607 q 134 610 133 611 q 131 613 124 615 q 117 617 115 617 q 114 617 106 618 q 98 618 93 618 q 89 618 81 618 q 73 617 72 617 q 70 617 63 615 q 56 613 53 611 q 51 610 46 608 q 42 606 41 605 l 16 580 q 14 578 12 574 q 10 569 10 568 l 10 545 l 10 518 q 10 511 11 496 q 12 482 13 466 q 14 451 15 438 q 16 424 16 420 q 16 417 18 403 q 20 389 22 374 q 24 358 26 344 q 28 330 29 327 q 29 322 30 314 q 31 305 32 298 q 33 290 34 284 q 35 278 35 278 l 35 81 q 35 76 37 62 q 39 48 41 44 q 41 42 44 38 q 46 33 47 31 q 50 27 60 18 q 69 9 72 7 q 74 5 83 0 q 92 -4 96 -6 l 99 -6 l 103 -6 q 105 -5 112 -3 q 119 -1 121 0 q 126 2 135 7 q 144 12 146 13 q 147 14 152 20 q 156 27 158 31 q 160 36 165 45 q 170 54 170 56 q 171 56 171 61 q 171 67 171 70 q 171 73 171 79 q 171 86 170 87 q 170 88 169 94 q 168 99 167 105 q 166 111 165 116 q 164 122 164 124 q 164 126 163 135 q 162 144 161 154 q 160 165 159 174 q 158 183 158 185 q 158 187 157 194 q 156 200 155 207 q 154 214 153 220 q 152 227 152 229 q 152 230 152 240 q 151 251 151 256 q 151 259 152 270 q 152 281 152 284 q 152 285 154 288 q 157 290 158 290 q 158 290 160 290 q 163 291 164 291 q 166 291 168 290 q 170 290 170 290 q 171 290 176 285 q 181 280 183 278 q 185 276 192 266 q 199 257 201 253 q 202 251 208 243 q 213 235 220 226 q 226 216 231 208 q 236 200 238 198 q 240 196 248 186 q 255 175 257 173 q 260 168 266 157 q 271 146 277 134 q 283 123 288 112 q 292 102 294 99 q 294 98 295 94 q 296 89 297 84 q 298 78 299 74 q 300 69 300 68 q 301 66 308 57 q 315 48 318 44 q 321 41 326 36 q 331 30 336 26 q 341 21 344 17 q 348 13 349 13 q 350 12 355 12 q 360 12 363 12 q 366 12 372 12 q 379 12 380 13 q 382 13 390 15 q 397 17 399 19 q 401 20 408 24 q 415 29 417 31 l 436 50 q 437 51 439 58 q 441 66 442 68 q 443 70 445 74 q 447 79 448 81 q 450 89 455 110 q 460 131 466 155 q 472 179 477 200 q 482 221 485 229 q 486 231 489 239 q 492 247 496 257 q 500 267 504 276 q 508 285 510 290 q 510 292 512 294 q 515 296 516 296 q 516 297 518 297 q 520 297 522 297 z"},"g":{"x_min":0,"x_max":409,"ha":409,"o":"m 127 -142 l 127 -148 q 129 -151 134 -161 q 138 -171 140 -173 q 141 -175 148 -182 q 155 -189 158 -191 q 160 -193 167 -198 q 174 -202 177 -204 q 179 -205 184 -207 q 188 -209 189 -210 q 193 -212 202 -214 q 212 -216 214 -216 q 215 -216 230 -216 q 246 -217 254 -217 q 258 -217 264 -217 q 271 -217 278 -216 q 284 -216 288 -216 q 293 -216 294 -216 q 296 -216 303 -214 q 310 -212 312 -210 q 316 -208 324 -204 q 332 -200 340 -196 q 348 -192 354 -189 q 360 -186 362 -185 q 364 -183 371 -176 q 378 -169 380 -167 q 382 -165 386 -156 q 391 -146 393 -142 q 394 -138 396 -128 q 399 -119 399 -117 l 399 -57 l 399 0 q 399 4 397 22 q 395 39 393 59 q 391 79 389 96 q 387 113 386 117 q 386 119 385 128 q 384 137 383 148 q 382 158 381 168 q 380 177 380 179 q 380 180 379 184 q 378 189 377 194 q 376 200 375 204 q 374 209 374 210 q 374 213 375 224 q 376 236 377 250 q 378 263 379 275 q 380 287 380 290 q 380 292 380 301 q 381 310 381 315 q 381 319 380 326 q 380 333 380 333 q 380 335 375 342 q 370 349 368 352 q 366 354 362 358 q 359 361 355 365 q 351 369 348 372 q 344 376 343 377 q 340 379 330 384 q 321 388 319 389 q 318 389 311 390 q 304 390 300 390 q 296 390 289 390 q 282 389 282 389 q 280 389 274 386 q 267 383 260 380 q 253 377 246 374 q 240 371 238 370 q 237 370 232 368 q 226 366 220 364 q 214 362 208 360 q 202 358 201 358 q 200 358 196 356 q 191 354 186 352 q 181 350 176 348 q 171 346 170 346 q 169 345 164 344 q 158 342 152 340 q 146 337 140 336 q 134 334 133 333 q 131 332 126 330 q 120 327 114 324 q 108 321 103 318 q 98 316 96 315 q 94 313 84 306 q 75 299 72 296 q 70 294 66 290 q 61 286 56 281 q 51 276 46 272 q 42 267 41 265 q 39 263 34 256 q 30 249 29 247 q 29 246 27 242 q 25 238 23 233 q 21 228 19 224 q 17 219 16 216 q 14 212 12 205 q 10 198 10 198 q 10 196 10 188 q 9 180 9 175 q 9 170 10 162 q 10 155 10 154 q 10 153 15 139 q 20 125 22 117 q 24 111 29 100 q 34 88 35 86 q 36 84 45 72 q 54 61 59 56 q 61 53 68 46 q 76 39 78 37 q 81 34 91 27 q 101 20 103 19 q 106 17 114 13 q 121 9 129 5 q 137 1 144 -2 q 150 -6 152 -6 q 154 -7 160 -8 q 166 -9 173 -10 q 180 -11 186 -12 q 192 -12 195 -12 q 196 -12 201 -12 q 206 -11 212 -10 q 218 -9 224 -8 q 229 -7 232 -6 q 234 -6 242 -3 q 249 0 251 0 q 251 0 255 0 q 259 1 261 1 q 263 1 266 0 q 269 0 269 0 q 271 -1 273 -6 q 275 -10 275 -12 q 276 -13 276 -20 q 276 -27 276 -31 q 276 -34 276 -41 q 276 -49 275 -49 q 275 -51 273 -58 q 271 -65 269 -68 q 268 -70 266 -75 q 264 -80 263 -80 q 261 -82 254 -86 q 247 -91 245 -93 q 241 -93 232 -92 q 223 -92 213 -92 q 204 -92 195 -92 q 186 -93 183 -93 q 180 -93 170 -95 q 161 -97 158 -99 q 157 -99 150 -104 q 143 -109 140 -111 q 138 -112 136 -114 q 134 -117 133 -117 q 132 -119 130 -126 q 128 -134 127 -136 z m 139 164 q 139 167 139 172 q 139 178 140 179 q 140 181 142 185 q 144 189 146 191 q 149 195 158 204 q 168 214 170 216 q 172 217 181 222 q 190 226 195 228 q 197 229 204 232 q 212 234 214 235 l 217 235 l 220 235 q 222 234 226 232 q 231 229 232 228 q 236 226 243 219 q 250 212 251 210 q 251 209 254 200 q 256 190 257 185 q 257 182 258 176 q 259 171 260 165 q 261 159 262 154 q 263 149 263 148 q 263 146 264 136 q 264 127 264 122 q 264 119 264 112 q 263 105 263 105 l 251 93 q 249 92 242 92 q 234 91 230 91 q 225 91 214 92 q 203 92 201 93 q 199 93 194 95 q 190 97 184 100 q 178 103 172 106 q 167 109 164 111 q 162 113 155 120 q 148 127 146 130 q 144 132 142 139 q 140 146 140 148 q 139 149 139 155 q 139 161 139 164 z"},"j":{"x_min":0,"x_max":255,"ha":255,"o":"m 10 -151 l 10 -154 q 11 -157 14 -162 q 16 -168 19 -174 q 22 -180 25 -185 q 28 -190 29 -191 q 31 -193 38 -200 q 45 -207 47 -209 q 49 -211 58 -216 q 67 -220 72 -222 q 75 -223 82 -226 q 88 -228 90 -228 q 91 -228 96 -228 q 101 -229 103 -229 q 106 -229 110 -228 q 115 -228 115 -228 q 117 -228 126 -223 q 135 -218 140 -216 q 143 -214 150 -210 q 157 -205 158 -203 q 162 -199 170 -192 q 178 -184 186 -176 q 194 -169 200 -162 q 206 -156 208 -154 q 209 -153 212 -148 q 214 -143 217 -137 q 220 -131 222 -126 q 225 -120 226 -117 q 228 -111 231 -100 q 234 -89 237 -77 q 240 -65 242 -56 q 245 -46 245 -43 q 245 -42 245 -35 q 245 -29 246 -21 q 246 -13 246 -4 q 246 5 246 10 q 246 16 246 26 q 246 37 246 47 q 245 57 245 65 q 245 73 245 75 q 245 77 244 84 q 243 90 242 98 q 241 105 240 112 q 239 120 239 124 q 238 129 236 138 q 235 148 232 158 q 230 167 228 176 q 227 184 226 186 q 226 187 221 199 q 216 211 214 217 q 212 221 209 228 q 206 236 203 242 q 200 249 198 254 q 195 260 195 260 q 194 262 185 272 q 176 281 171 285 q 170 286 166 288 q 162 291 158 294 q 154 297 150 300 q 147 303 146 303 q 144 305 142 307 q 140 309 140 310 q 140 310 140 311 q 139 312 139 313 q 139 314 140 315 q 140 316 140 316 q 141 317 144 322 q 148 326 152 331 q 156 336 160 340 q 163 345 164 347 q 167 351 172 360 q 177 369 177 371 q 177 372 175 379 q 173 386 171 390 q 169 395 164 404 q 160 413 158 415 q 157 417 150 424 q 143 431 140 433 q 138 435 131 440 q 124 444 121 446 q 119 447 114 450 q 110 452 109 452 l 97 452 l 84 452 q 82 451 72 449 q 63 447 59 446 q 57 445 52 442 q 48 440 47 439 q 43 437 36 430 q 29 423 29 421 q 27 416 24 402 q 22 388 22 384 q 23 382 30 368 q 37 354 41 347 q 41 346 44 344 q 46 342 47 341 q 49 339 58 332 q 68 324 72 322 q 74 321 82 316 q 89 311 90 310 l 97 303 q 95 301 90 297 q 86 293 81 288 q 76 284 72 280 q 67 275 66 273 q 64 271 62 266 q 60 262 59 260 l 59 234 l 59 211 q 60 209 64 200 q 69 190 72 186 q 73 184 81 174 q 89 163 90 161 q 91 160 92 155 q 94 150 96 144 q 98 138 100 132 q 102 127 103 124 q 103 123 104 118 q 105 114 106 108 q 107 103 108 98 q 109 94 109 93 q 109 91 112 81 q 115 71 115 69 l 115 48 l 115 25 q 115 20 114 10 q 113 0 112 -10 q 111 -19 110 -27 q 109 -35 109 -36 q 108 -39 101 -54 q 94 -68 90 -74 q 89 -76 84 -80 q 80 -84 78 -86 q 76 -87 70 -90 q 65 -92 59 -95 q 53 -98 48 -100 q 42 -103 41 -104 q 39 -105 35 -110 q 31 -115 29 -117 q 27 -119 22 -126 q 18 -133 16 -135 q 15 -137 12 -142 q 10 -146 10 -148 z"},"i":{"x_min":0,"x_max":230,"ha":230,"o":"m 34 257 q 34 254 34 247 q 34 241 35 241 q 36 238 40 227 q 45 216 50 204 q 55 191 60 180 q 65 169 66 166 q 66 164 68 150 q 71 136 72 129 q 72 128 72 120 q 71 113 72 111 q 72 109 75 102 q 78 94 78 92 q 78 90 79 84 q 80 78 81 70 q 82 63 83 56 q 84 50 84 49 q 84 47 86 43 q 89 39 90 37 q 92 35 96 30 q 101 26 103 25 q 103 24 108 22 q 113 20 115 18 q 118 17 122 15 q 127 13 132 11 q 137 9 141 8 q 145 6 146 6 l 152 6 l 158 6 q 161 7 168 9 q 175 11 177 12 q 178 13 183 18 q 188 23 194 29 q 200 35 206 40 q 211 46 214 49 q 215 51 218 56 q 220 60 220 62 l 220 84 l 220 105 q 220 108 217 118 q 214 128 211 139 q 208 150 205 160 q 202 170 201 173 q 201 174 200 180 q 199 187 198 194 q 197 202 196 208 q 195 214 195 216 q 195 219 193 226 q 191 233 189 240 q 187 248 186 255 q 184 262 183 265 q 182 267 180 272 q 178 276 177 278 q 169 287 158 294 q 148 301 140 308 q 138 310 133 314 q 128 319 127 321 l 127 324 l 127 327 q 128 328 130 332 q 132 337 133 339 q 135 341 140 348 q 145 356 146 358 q 148 360 150 364 q 152 369 152 370 l 152 395 l 152 419 q 151 421 149 423 q 147 425 146 426 q 143 428 131 435 q 119 442 115 444 q 110 447 100 452 q 91 456 90 457 l 73 457 l 53 457 q 52 456 48 454 q 43 452 41 450 q 37 448 30 444 q 23 439 22 438 q 22 437 20 432 q 17 428 16 426 q 15 423 12 416 q 10 409 10 407 l 10 398 l 10 389 q 11 384 13 375 q 15 366 16 364 q 18 361 23 355 q 28 349 34 342 q 40 335 46 329 q 51 323 53 321 q 53 320 54 318 q 54 316 54 315 q 54 313 54 311 q 53 309 53 308 q 52 306 47 299 q 42 292 41 290 q 39 288 37 283 q 35 278 35 278 q 34 277 34 269 q 34 261 34 257 z"},"y":{"x_min":0,"x_max":378,"ha":378,"o":"m 151 -81 q 151 -85 152 -92 q 152 -98 152 -98 q 153 -101 158 -110 q 162 -120 164 -123 l 183 -142 q 185 -144 194 -148 q 204 -153 207 -154 l 213 -154 l 220 -154 q 226 -153 237 -149 q 248 -145 260 -141 q 272 -137 282 -134 q 291 -130 294 -129 q 295 -128 300 -125 q 305 -122 311 -118 q 317 -114 322 -110 q 328 -107 331 -105 q 334 -103 344 -93 q 353 -83 355 -80 q 357 -79 359 -74 q 361 -70 362 -68 q 363 -64 365 -54 q 367 -45 368 -43 l 368 -31 l 368 -18 q 366 -13 362 0 q 357 13 352 28 q 347 42 342 56 q 338 69 337 74 q 336 77 334 88 q 332 100 331 105 q 330 109 329 118 q 328 127 327 136 q 326 145 326 152 q 325 159 325 161 q 325 168 324 186 q 324 203 324 222 q 324 242 324 260 q 325 277 325 284 q 324 286 322 290 q 320 295 318 296 q 316 298 311 304 q 306 309 300 315 q 294 321 288 326 q 283 331 281 333 q 281 334 276 336 q 271 338 269 340 q 266 341 259 344 q 252 346 251 346 l 235 346 l 220 346 q 218 345 214 343 q 209 341 207 340 q 204 337 194 328 q 185 318 183 315 q 182 312 182 301 q 182 290 182 287 q 182 282 182 271 q 182 261 183 259 q 183 258 184 252 q 186 247 188 241 q 191 235 193 229 q 195 223 195 222 q 195 222 196 217 q 196 212 196 210 q 196 208 196 203 q 195 198 195 198 q 195 196 192 192 q 190 187 189 185 q 188 184 184 182 q 179 180 177 179 l 173 179 l 170 179 l 158 191 q 157 194 156 202 q 154 210 152 219 q 150 228 148 236 q 147 244 146 247 q 146 248 145 252 q 144 257 143 262 q 142 268 141 272 q 140 277 140 278 q 138 283 136 292 q 134 302 133 303 q 131 305 122 314 q 113 324 109 327 q 107 329 102 332 q 97 335 92 338 q 87 341 83 344 q 79 346 78 346 l 58 346 l 35 346 q 33 346 28 344 q 24 341 22 340 q 20 338 15 333 q 10 328 10 327 q 10 327 10 320 q 9 314 9 310 q 9 306 10 299 q 10 292 10 290 q 10 287 12 275 q 15 263 18 248 q 21 234 24 220 q 27 205 29 198 q 29 196 32 188 q 34 181 35 179 q 35 177 37 171 q 39 165 41 158 q 43 150 44 144 q 46 137 47 136 q 48 133 52 126 q 55 118 59 110 q 63 103 66 96 q 70 89 72 87 q 74 85 81 78 q 88 70 90 68 q 92 67 101 62 q 110 58 115 56 q 118 54 125 52 q 132 50 133 50 q 134 49 140 49 q 146 49 149 49 q 152 49 158 49 q 164 49 164 50 q 166 50 172 52 q 179 53 186 56 q 193 58 199 60 q 205 62 207 62 l 211 62 l 214 62 q 216 60 221 56 q 226 51 226 50 l 226 -6 q 226 -7 224 -9 q 222 -11 220 -12 q 218 -13 210 -16 q 203 -20 195 -24 q 187 -29 180 -32 q 172 -36 170 -37 q 169 -38 164 -42 q 160 -47 158 -49 q 156 -51 154 -56 q 152 -60 152 -61 q 152 -62 152 -70 q 151 -77 151 -81 z"},"@":{"x_min":0,"x_max":613,"ha":613,"o":"m 9 402 q 9 396 9 386 q 9 376 10 366 q 10 356 10 348 q 10 340 10 339 q 10 337 10 330 q 11 323 12 314 q 13 305 14 296 q 15 288 16 283 q 21 252 28 224 q 36 196 47 166 l 53 154 q 55 152 60 144 q 64 137 66 135 q 69 130 76 121 q 83 112 84 110 l 127 67 q 129 66 136 62 q 143 57 146 55 q 155 50 166 44 q 178 39 189 36 q 195 35 204 33 q 214 31 224 29 q 234 27 242 26 q 249 24 251 24 q 252 24 268 24 q 283 23 291 23 q 295 23 302 23 q 310 23 318 24 q 325 24 330 24 q 336 24 337 24 q 339 24 346 25 q 352 26 359 27 q 366 28 372 29 q 379 30 381 30 q 383 30 392 31 q 401 32 412 33 q 422 34 431 35 q 440 36 442 36 q 447 37 455 38 q 463 39 471 40 q 479 41 485 42 q 491 43 492 43 q 494 43 506 48 q 517 53 523 55 q 528 57 538 62 q 547 66 547 67 q 549 69 554 78 q 559 88 560 92 l 560 107 l 560 123 q 559 124 557 128 q 555 133 553 135 q 551 138 544 145 q 537 152 535 154 q 533 155 524 160 q 514 164 510 166 q 503 169 489 174 q 475 178 473 178 q 472 178 466 178 q 459 177 452 176 q 444 175 436 174 q 428 173 424 172 q 422 172 415 170 q 408 167 405 166 l 381 154 q 379 153 372 151 q 365 149 362 148 q 360 147 350 144 q 340 142 337 141 q 331 140 320 138 q 308 135 306 135 l 282 135 l 257 135 q 253 136 242 138 q 230 140 226 141 q 223 143 214 148 q 204 152 201 154 l 189 166 q 185 171 176 183 q 166 195 164 197 q 163 199 158 208 q 154 217 152 222 q 150 227 145 238 q 140 250 140 252 q 139 255 137 263 q 135 271 133 280 q 131 289 130 297 q 128 305 127 308 q 127 311 126 319 q 125 327 124 336 q 123 345 122 353 q 121 361 121 364 l 121 397 l 121 425 q 121 427 122 435 q 124 443 126 452 q 128 462 130 472 q 132 482 134 487 q 134 489 136 496 q 138 504 140 506 q 150 529 162 548 q 174 567 189 586 l 195 592 q 198 593 204 596 q 209 599 215 602 q 221 605 226 608 q 230 610 232 611 q 234 612 244 614 q 253 616 257 617 q 260 617 267 618 q 274 619 282 620 q 289 621 296 622 q 303 623 306 623 l 319 623 l 331 623 q 334 623 340 622 q 345 621 351 620 q 357 619 362 618 q 367 617 368 617 q 369 617 374 614 q 379 612 385 609 q 391 606 396 603 q 402 600 405 598 q 408 596 414 592 q 419 589 425 585 q 431 581 436 578 q 441 575 442 574 q 445 572 452 565 q 458 558 466 550 q 474 542 482 534 q 489 527 492 524 q 493 523 495 518 q 497 514 498 512 q 499 507 502 493 q 504 479 504 475 l 504 449 l 504 425 q 504 423 502 416 q 499 409 498 407 q 496 404 486 394 q 476 384 473 382 l 442 413 q 441 414 438 418 q 436 421 433 425 q 430 429 428 433 q 425 437 424 438 q 420 442 410 451 q 401 460 399 462 q 397 464 388 468 q 379 473 374 475 q 372 476 365 478 q 358 480 356 481 q 354 481 348 482 q 343 483 337 484 q 331 485 326 486 q 320 487 319 487 q 317 488 310 494 q 302 499 300 499 q 298 501 291 503 q 284 505 282 506 l 275 506 l 269 506 q 265 504 251 500 q 237 495 232 493 q 228 491 219 487 q 210 483 208 481 q 204 479 197 472 q 190 464 189 462 q 188 460 186 454 q 185 448 183 440 q 181 432 179 424 q 177 417 177 413 q 177 412 176 406 q 176 401 176 398 q 176 395 176 389 q 177 383 177 382 q 177 377 180 366 q 182 354 183 351 q 184 349 186 344 q 189 338 192 332 q 195 326 198 321 q 200 316 201 314 q 204 311 214 302 q 223 292 226 290 q 227 289 234 286 q 240 282 248 278 q 256 274 264 270 q 271 267 276 265 q 278 263 285 261 q 292 259 294 259 q 295 259 304 258 q 314 258 319 258 q 324 258 333 258 q 342 259 343 259 q 345 259 352 261 q 359 263 362 265 q 363 266 370 268 q 376 271 384 274 q 391 277 397 280 q 403 283 405 283 q 406 283 408 284 q 410 284 411 284 q 413 284 415 284 q 417 283 418 283 q 420 283 427 280 q 434 277 442 274 q 451 271 458 268 q 465 265 467 265 q 468 265 474 264 q 479 264 481 264 q 495 264 506 267 q 517 270 529 277 q 532 279 539 284 q 546 288 547 290 q 551 292 558 299 q 565 306 566 308 q 567 310 571 317 q 575 324 578 332 q 582 340 586 347 q 589 354 590 357 q 591 360 593 366 q 595 372 597 379 q 599 386 601 392 q 603 399 603 401 l 603 418 l 603 438 q 603 441 602 449 q 601 457 600 466 q 599 475 598 482 q 597 490 597 493 q 596 495 594 502 q 592 509 590 512 q 590 513 588 518 q 586 522 584 524 q 583 527 580 532 q 578 536 575 541 q 572 546 570 550 q 567 554 566 555 q 563 559 556 568 q 549 578 547 580 q 544 584 534 594 q 525 603 514 614 q 503 624 493 634 q 483 644 479 648 q 477 650 472 654 q 466 659 460 664 q 454 669 449 673 q 444 677 442 679 q 439 681 433 684 q 427 688 420 692 q 413 696 407 699 q 401 702 399 703 q 398 703 394 704 q 389 705 384 706 q 378 707 374 708 q 369 709 368 709 q 367 709 364 710 q 360 712 356 713 q 352 714 348 715 q 344 716 343 716 l 282 716 l 226 716 q 225 716 218 714 q 212 713 203 711 q 194 709 185 706 q 176 704 171 703 q 168 702 161 700 q 154 698 152 697 q 149 695 144 692 q 138 690 132 687 q 126 684 121 682 q 116 679 115 679 l 96 660 q 95 658 90 652 q 85 646 79 638 q 73 630 68 622 q 62 615 59 611 q 57 608 52 601 q 48 594 47 592 q 45 588 40 578 q 35 569 35 567 q 34 565 32 556 q 29 547 26 535 q 23 523 20 512 q 17 500 16 493 q 15 490 14 486 q 13 481 12 476 q 11 471 10 467 q 10 463 10 462 q 10 461 10 454 q 10 447 10 438 q 9 428 9 418 q 9 408 9 402 z m 288 385 l 288 388 q 289 391 291 396 q 293 400 294 401 q 294 401 298 402 q 301 402 303 402 q 305 402 308 402 q 312 401 313 401 q 314 400 321 393 q 328 386 331 382 q 332 380 334 376 q 337 372 337 370 q 337 369 338 367 q 338 365 338 363 q 338 361 338 360 q 337 358 337 357 q 336 355 332 353 q 327 351 325 351 q 323 352 314 356 q 305 361 300 364 q 299 364 297 366 q 295 369 294 370 l 288 382 z"},".":{"x_min":0,"x_max":168,"ha":168,"o":"m 10 85 l 10 73 q 10 72 12 68 q 15 63 16 61 q 18 59 22 54 q 26 50 28 48 q 31 46 38 42 q 45 37 47 36 q 49 35 59 32 q 69 30 72 30 q 73 30 82 30 q 90 29 95 29 q 99 29 106 30 q 114 30 115 30 q 117 30 126 35 q 136 40 139 42 q 141 44 146 48 q 150 53 152 55 q 153 57 156 62 q 158 66 158 67 l 158 95 l 158 122 q 158 123 156 128 q 153 133 152 135 q 150 137 146 144 q 141 151 139 153 q 137 155 133 160 q 129 165 127 166 q 124 167 118 170 q 113 173 107 176 q 101 179 96 182 q 91 184 90 184 q 90 184 85 184 q 80 185 78 185 q 76 185 71 184 q 66 184 65 184 q 63 183 54 178 q 44 174 41 172 q 39 170 32 163 q 24 156 22 153 l 16 141 q 16 139 15 133 q 14 127 13 120 q 12 114 11 108 q 10 101 10 98 z"},"p":{"x_min":0,"x_max":372,"ha":372,"o":"m 34 -87 q 34 -90 34 -97 q 35 -104 35 -104 q 35 -105 37 -110 q 39 -115 41 -117 q 43 -120 48 -127 q 52 -134 53 -135 q 55 -137 64 -144 q 73 -151 78 -154 q 80 -156 84 -158 q 89 -160 90 -160 q 91 -160 97 -160 q 103 -161 106 -161 q 109 -161 115 -160 q 121 -160 121 -160 q 123 -159 132 -154 q 142 -150 146 -148 q 147 -147 152 -142 q 156 -137 158 -135 q 161 -132 166 -125 q 170 -118 170 -117 l 170 19 l 177 25 l 220 25 q 221 25 226 26 q 231 27 237 28 q 243 29 248 30 q 254 31 257 31 q 259 32 266 34 q 273 36 275 38 q 277 39 282 42 q 287 44 292 47 q 297 50 301 52 q 305 55 306 56 q 307 57 310 60 q 314 64 318 68 q 322 72 326 76 q 329 79 331 81 q 333 83 337 90 q 341 97 343 99 q 347 106 354 120 q 361 134 362 136 l 362 156 l 362 179 q 361 183 359 192 q 357 202 356 204 q 355 206 352 211 q 348 216 344 222 q 340 228 336 234 q 333 239 331 241 l 312 260 q 310 262 304 266 q 299 271 294 276 q 288 281 282 285 q 277 289 275 291 q 273 292 267 296 q 261 301 254 306 q 247 311 241 315 q 235 319 232 321 q 224 327 214 330 q 205 332 195 334 q 193 334 188 335 q 184 336 178 337 q 172 338 166 339 q 161 340 158 340 q 154 341 146 342 q 138 343 130 344 q 123 345 116 346 q 110 346 109 346 q 108 346 100 346 q 91 347 86 347 q 82 347 74 346 q 66 346 66 346 q 61 346 52 344 q 43 341 41 340 q 38 338 33 334 q 28 329 23 324 q 18 319 14 314 q 11 310 10 309 q 10 309 10 300 q 9 292 9 287 q 9 282 10 272 q 10 261 10 260 q 10 258 12 252 q 14 247 16 241 q 19 235 20 230 q 22 224 22 223 q 22 223 23 217 q 24 211 25 203 q 26 195 27 186 q 28 178 29 173 q 29 171 30 163 q 31 155 32 146 q 33 136 34 128 q 35 120 35 118 q 35 116 36 110 q 37 103 38 96 q 39 89 40 82 q 41 76 41 75 l 41 18 l 41 -37 q 41 -38 40 -42 q 39 -47 38 -52 q 37 -57 36 -62 q 35 -66 35 -67 q 35 -68 34 -76 q 34 -83 34 -87 z m 145 189 q 145 191 146 194 q 146 198 146 198 q 146 199 148 204 q 150 208 152 210 q 153 212 155 214 q 157 216 158 217 l 170 217 l 183 217 q 184 216 191 214 q 198 212 201 210 q 203 209 208 207 q 213 205 214 204 q 216 203 220 198 q 224 194 226 192 q 228 190 230 186 q 232 181 232 179 q 232 179 232 176 q 233 172 233 170 q 233 168 232 164 q 232 161 232 161 q 232 160 227 156 q 222 151 220 149 q 218 148 214 146 q 210 143 208 142 q 203 141 194 138 q 185 136 183 136 q 181 136 174 138 q 166 141 164 142 q 162 144 158 148 q 153 153 152 155 q 151 157 149 166 q 147 175 146 179 q 146 180 146 184 q 145 187 145 189 z"},"X":{"x_min":0,"x_max":514,"ha":514,"o":"m 72 47 l 72 44 q 73 42 78 32 q 82 23 84 19 q 86 17 90 10 q 95 3 96 1 q 98 -1 102 -6 q 107 -11 109 -11 q 112 -13 118 -16 q 123 -19 129 -22 q 135 -25 140 -28 q 144 -30 146 -30 q 146 -30 152 -30 q 157 -31 160 -31 q 163 -31 170 -30 q 176 -30 177 -30 q 178 -30 182 -28 q 187 -25 189 -24 q 191 -23 195 -18 q 199 -13 201 -11 q 203 -9 210 1 q 218 11 220 13 q 221 14 223 19 q 225 24 226 26 q 228 29 232 40 q 237 52 238 56 q 239 58 242 66 q 244 73 245 75 q 246 78 250 86 q 253 95 256 105 q 260 115 264 124 q 267 133 269 137 q 271 141 274 148 q 277 154 280 161 q 283 168 286 174 q 288 179 288 180 q 289 181 291 184 q 293 186 294 186 q 294 186 298 186 q 302 187 304 187 q 306 187 309 186 q 312 186 312 186 q 314 185 318 180 q 323 176 325 174 q 326 172 330 164 q 335 155 340 146 q 345 136 350 128 q 354 120 356 118 q 357 116 361 112 q 365 107 370 102 q 375 97 380 92 q 385 88 387 87 q 388 87 392 84 q 397 82 403 79 q 409 76 415 73 q 421 70 424 69 q 427 67 434 64 q 441 62 442 63 q 444 63 454 68 q 463 73 467 75 l 479 87 q 481 89 486 96 q 490 104 491 106 q 494 111 498 120 q 503 129 504 130 l 504 142 l 504 155 q 504 157 502 162 q 499 166 498 168 q 497 169 494 174 q 490 178 486 182 q 482 187 478 192 q 474 196 473 198 q 471 201 463 210 q 455 219 446 230 q 436 240 428 249 q 419 258 417 260 q 415 262 410 268 q 406 273 401 279 q 396 285 392 290 q 388 295 387 297 q 384 300 380 307 q 375 314 374 316 q 374 316 374 321 q 373 326 373 328 q 373 330 374 335 q 374 340 374 340 q 375 342 380 351 q 384 360 387 365 q 389 370 396 382 q 403 393 405 396 q 406 397 408 400 q 411 404 414 408 q 418 412 420 416 q 423 420 424 421 q 425 423 428 428 q 432 433 436 439 q 440 445 444 450 q 447 456 448 458 q 449 459 452 464 q 454 468 458 473 q 461 478 464 482 q 466 487 467 489 q 468 490 473 498 q 478 505 479 507 q 480 509 482 514 q 485 518 485 519 q 487 523 489 530 q 491 537 491 538 q 492 539 492 549 q 492 560 492 566 q 492 569 492 579 q 492 590 491 593 q 489 597 480 606 q 470 616 467 618 q 465 620 456 624 q 446 628 442 630 q 439 631 434 633 q 428 635 422 637 q 416 639 411 641 q 406 643 405 643 l 396 643 l 387 643 q 385 642 380 640 q 376 638 374 637 q 370 633 360 624 q 351 614 350 612 q 348 610 344 598 q 339 586 337 581 q 337 580 336 576 q 335 571 334 566 q 333 560 332 556 q 331 551 331 550 q 330 548 328 541 q 326 534 325 532 q 322 526 316 515 q 311 504 305 492 q 299 480 294 470 q 289 461 288 458 q 286 456 282 451 q 277 446 275 445 l 269 445 l 263 445 q 262 446 258 450 q 255 453 251 457 q 247 461 243 464 q 239 468 238 470 q 237 471 234 476 q 232 480 229 486 q 226 491 224 496 q 221 500 220 501 q 219 503 214 510 q 209 517 208 519 q 206 521 204 526 q 202 531 201 532 q 201 533 200 540 q 199 546 198 554 q 197 561 196 567 q 195 573 195 575 q 195 576 193 580 q 191 585 189 587 q 184 597 178 604 q 173 611 164 618 q 162 620 155 624 q 148 629 146 630 q 141 633 132 638 q 122 643 121 643 q 120 643 110 644 q 100 644 95 644 q 89 644 78 644 q 67 643 66 643 q 64 643 60 640 q 55 638 53 637 q 50 635 40 628 q 31 620 29 618 q 24 615 17 608 q 10 601 10 600 q 10 599 10 594 q 9 589 9 586 q 9 570 13 555 q 17 540 22 526 q 23 524 26 519 q 28 514 29 513 l 47 495 q 48 494 52 492 q 55 489 59 486 q 63 482 67 480 q 71 477 72 476 q 76 472 84 464 q 93 456 102 447 q 111 438 118 430 q 125 423 127 421 q 128 419 132 414 q 135 408 140 402 q 144 396 148 390 q 151 385 152 384 q 154 382 162 374 q 169 365 177 356 q 185 347 192 338 q 199 330 201 328 q 202 327 204 322 q 207 318 208 316 l 208 313 l 208 310 q 207 308 204 303 q 202 298 199 292 q 196 286 193 280 q 190 275 189 272 q 187 269 180 256 q 172 244 164 230 q 156 215 148 202 q 141 189 140 186 q 139 184 136 179 q 134 174 130 168 q 127 161 124 156 q 122 150 121 149 q 121 148 118 144 q 116 140 113 135 q 110 130 107 125 q 104 120 103 118 q 101 116 96 109 q 91 102 90 100 q 88 96 84 86 q 79 77 78 75 q 77 73 75 64 q 73 55 72 50 z"},"*":{"x_min":0,"x_max":397,"ha":397,"o":"m 78 431 q 78 427 78 416 q 77 406 77 394 q 77 382 78 372 q 78 361 78 357 q 78 355 80 348 q 82 341 84 339 q 85 337 90 332 q 94 328 96 326 q 98 326 102 324 q 107 321 109 320 q 112 318 119 316 q 126 314 127 314 q 129 314 140 314 q 151 313 156 313 q 160 313 168 314 q 176 314 177 314 q 179 315 184 319 q 189 323 194 328 q 199 333 203 338 q 207 342 208 345 l 217 345 l 226 345 q 228 345 232 342 q 237 339 239 339 q 242 337 249 335 q 256 333 257 333 q 258 332 267 332 q 277 332 282 332 q 285 332 294 332 q 304 332 307 333 q 309 335 316 342 q 323 349 325 351 q 326 352 328 356 q 330 361 331 363 q 332 366 334 373 q 337 380 337 382 q 337 383 338 388 q 339 392 340 398 q 342 403 343 408 q 344 412 344 413 q 344 415 346 419 q 348 423 350 425 q 351 426 354 430 q 358 435 362 440 q 366 446 370 450 q 373 455 374 456 q 377 460 382 467 q 387 474 387 475 q 387 476 388 485 q 388 494 388 499 q 388 504 388 514 q 387 523 387 524 q 387 526 382 535 q 377 544 374 549 q 374 550 372 552 q 370 554 368 555 q 364 558 357 562 q 350 567 350 567 l 269 567 q 268 571 264 583 q 259 595 257 598 q 256 600 254 605 q 251 610 251 611 q 249 613 242 620 q 234 627 232 629 q 230 631 223 633 q 216 635 214 635 q 213 635 204 636 q 194 636 189 636 q 184 636 174 636 q 165 635 164 635 q 162 635 155 633 q 148 631 146 629 q 144 628 140 624 q 136 619 134 617 q 132 615 130 610 q 128 606 127 604 q 127 603 126 598 q 125 594 124 588 q 123 583 122 578 q 121 574 121 573 q 121 572 118 570 q 116 568 115 567 q 111 567 100 565 q 90 563 78 561 q 66 559 56 558 q 45 556 41 555 q 39 555 35 552 q 31 550 29 549 q 27 547 22 542 q 18 538 16 536 q 15 534 12 530 q 10 526 10 524 q 10 523 10 516 q 9 509 9 505 q 9 502 10 495 q 10 488 10 487 q 10 485 12 481 q 15 477 16 475 q 20 470 30 461 q 39 452 41 450 q 42 449 50 446 q 58 444 59 444 q 64 442 70 439 q 75 436 78 431 z"},"Y":{"x_min":0,"x_max":532,"ha":532,"o":"m 146 104 l 176 43 q 177 42 184 37 q 191 32 195 30 q 200 28 209 23 q 218 18 220 18 q 220 18 226 18 q 232 17 235 17 q 238 17 244 18 q 250 18 250 18 q 252 19 258 22 q 263 24 269 27 q 275 30 280 32 q 285 35 287 36 q 288 37 293 44 q 298 51 300 55 q 301 57 304 62 q 306 66 306 67 q 306 68 307 74 q 308 80 309 86 q 310 92 311 98 q 312 103 312 104 q 315 120 320 136 q 326 152 331 166 q 331 167 333 172 q 335 176 337 182 q 339 187 341 192 q 343 196 343 197 q 344 199 346 206 q 348 214 349 215 q 351 220 356 232 q 360 244 361 246 q 362 248 366 256 q 370 263 374 271 q 378 279 382 286 q 385 293 386 295 q 387 297 390 304 q 392 312 392 314 q 394 318 398 330 q 403 342 405 345 q 406 347 410 355 q 413 363 417 372 q 421 382 424 390 q 428 398 429 400 q 430 403 436 416 q 441 429 448 444 q 454 458 459 471 q 464 484 466 487 q 467 488 472 495 q 477 502 479 505 q 480 506 484 510 q 487 515 491 520 q 495 526 498 530 q 502 535 503 536 q 505 539 510 546 q 515 553 516 554 q 517 557 520 564 q 522 571 522 573 l 522 593 l 522 610 q 521 614 516 626 q 511 637 509 641 q 508 643 501 650 q 494 657 491 659 q 489 661 480 666 q 471 670 466 672 q 463 673 456 676 q 449 678 448 678 l 428 678 l 411 678 q 409 678 400 673 q 391 668 386 665 q 384 664 377 660 q 370 655 368 653 q 366 652 364 650 q 362 648 361 647 q 350 630 348 610 q 346 591 343 573 q 342 566 340 552 q 337 538 337 536 q 336 534 334 528 q 332 521 331 517 q 329 512 324 500 q 320 489 318 487 q 317 484 314 478 q 312 473 309 467 q 306 461 304 456 q 301 451 300 450 q 298 448 294 444 q 289 439 287 437 q 284 440 274 450 q 265 459 263 462 q 262 463 258 468 q 255 473 251 479 q 247 485 244 490 q 240 496 238 499 q 237 501 232 509 q 228 517 223 526 q 218 536 213 544 q 208 552 207 554 q 204 558 198 567 q 193 576 187 585 q 181 594 176 601 q 171 608 170 610 q 168 613 163 618 q 158 624 152 630 q 146 636 140 640 q 135 645 133 647 q 131 648 126 651 q 121 654 115 657 q 109 660 104 662 q 98 665 96 665 q 96 666 89 666 q 83 666 79 666 q 75 666 67 666 q 60 666 59 665 q 58 665 54 663 q 49 661 47 659 q 45 657 40 653 q 36 649 31 644 q 26 639 22 634 q 17 630 16 628 q 15 627 13 622 q 11 618 10 616 l 10 610 l 10 604 q 11 601 13 594 q 15 587 16 585 q 17 583 26 572 q 36 560 41 554 q 42 552 48 545 q 55 538 62 530 q 70 522 76 514 q 82 507 84 505 q 87 502 97 488 q 107 475 118 459 q 129 443 139 430 q 149 416 152 413 q 155 409 166 396 q 176 382 189 366 q 202 350 212 336 q 223 323 226 320 q 227 318 230 314 q 232 310 232 308 l 232 299 l 232 289 q 229 283 221 268 q 213 252 204 234 q 195 216 187 200 q 179 184 176 178 q 176 177 173 172 q 170 168 167 163 q 164 158 162 153 q 159 148 158 147 q 156 145 154 140 q 152 136 152 135 q 150 129 148 117 q 145 105 146 104 z"},"c":{"x_min":0,"x_max":384,"ha":384,"o":"m 10 170 l 10 154 q 10 151 12 142 q 15 132 16 129 q 18 125 22 116 q 27 107 28 105 q 29 103 34 98 q 39 93 45 87 q 51 81 56 76 q 62 70 65 68 q 67 66 74 62 q 81 57 84 55 q 89 53 98 48 q 107 43 109 43 q 109 43 120 41 q 130 39 144 36 q 157 33 172 30 q 186 26 195 24 q 200 23 212 21 q 224 19 226 18 q 227 18 234 17 q 240 16 248 15 q 255 14 261 13 q 267 12 269 12 q 270 12 276 11 q 281 10 288 9 q 294 8 299 7 q 304 6 306 6 q 307 6 312 8 q 317 9 323 11 q 329 13 334 15 q 340 17 343 18 q 344 19 348 24 q 353 29 355 31 q 357 33 362 40 q 367 47 368 49 q 369 51 371 60 q 373 70 374 74 l 374 80 l 374 86 q 373 90 371 100 q 369 109 368 111 q 367 111 365 114 q 363 116 361 117 q 359 119 352 123 q 345 127 343 129 q 341 130 337 132 q 333 135 331 135 q 326 136 314 137 q 301 138 288 139 q 274 140 262 141 q 249 142 244 142 q 243 142 236 142 q 228 141 226 142 q 225 142 220 142 q 216 143 210 144 q 204 145 198 146 q 192 147 189 148 q 182 149 170 152 q 159 154 158 154 q 156 155 152 160 q 147 164 146 166 q 146 167 146 170 q 145 173 145 175 q 145 177 146 180 q 146 184 146 185 q 146 187 148 192 q 150 196 152 197 q 153 199 158 204 q 163 209 169 215 q 175 221 180 226 q 186 232 189 234 q 191 236 200 243 q 209 250 213 253 q 214 254 220 258 q 226 261 232 265 q 238 269 244 272 q 249 276 250 277 q 252 279 256 284 q 261 288 263 290 q 265 293 270 300 q 275 307 275 308 q 275 309 276 314 q 276 320 276 323 q 276 326 276 332 q 275 338 275 339 q 275 341 270 350 q 265 360 263 364 q 261 366 256 370 q 252 375 250 376 q 247 378 242 381 q 236 384 230 387 q 224 390 219 392 q 214 394 213 394 q 213 395 206 395 q 199 395 195 395 q 192 395 184 395 q 177 395 176 394 q 173 394 164 389 q 154 384 152 382 q 147 377 134 365 q 122 353 108 340 q 95 326 82 314 q 70 301 65 296 q 63 293 56 284 q 49 274 47 271 q 45 268 42 262 q 38 255 34 247 q 31 239 27 232 q 23 225 22 222 q 21 219 19 214 q 17 208 15 202 q 13 196 12 191 q 10 186 10 185 z"},"!":{"x_min":0,"x_max":211,"ha":211,"o":"m 40 90 q 40 85 40 76 q 41 68 41 67 q 41 66 46 59 q 51 52 53 49 q 55 46 62 39 q 70 32 72 30 q 75 28 84 24 q 94 19 96 18 q 97 18 104 18 q 111 17 114 17 q 118 17 125 18 q 132 18 133 18 q 135 18 149 23 q 163 28 170 30 q 172 31 176 33 q 181 35 182 36 q 187 40 190 45 q 193 50 195 55 q 196 58 198 65 q 201 72 201 73 l 201 83 l 201 92 q 200 93 196 105 q 191 117 189 123 q 187 128 184 133 q 181 138 176 141 q 174 143 164 148 q 154 152 152 153 q 148 155 134 160 q 120 164 115 166 l 112 166 l 109 166 q 105 165 96 163 q 86 161 84 160 q 82 159 78 156 q 73 154 72 153 q 69 151 59 142 q 49 132 47 129 q 45 127 43 122 q 41 118 41 117 q 41 115 40 105 q 40 95 40 90 z m 41 338 q 42 334 46 322 q 51 311 53 307 q 55 304 64 294 q 74 285 78 283 q 80 281 87 279 q 94 277 96 277 q 97 276 104 276 q 111 276 115 276 q 119 276 125 276 q 132 276 133 277 q 135 277 140 279 q 144 281 145 283 q 147 284 152 288 q 156 293 161 298 q 166 303 170 308 q 174 312 176 314 q 178 315 180 320 q 182 324 182 326 q 182 326 182 332 q 183 338 183 341 q 183 343 182 350 q 182 356 182 357 q 182 360 180 374 q 178 387 176 403 q 174 419 172 432 q 170 446 170 449 q 170 450 170 458 q 169 466 168 476 q 167 487 166 498 q 165 510 164 517 q 163 525 162 545 q 160 565 158 588 q 156 610 154 630 q 152 650 152 658 q 151 660 149 664 q 147 669 145 671 q 143 673 136 680 q 129 687 127 689 q 125 691 116 696 q 106 700 102 701 q 100 703 90 705 q 80 707 78 708 l 64 708 l 53 708 q 51 707 42 702 q 32 697 28 695 l 16 683 q 14 681 12 676 q 10 672 10 671 l 10 650 l 10 627 q 10 625 12 614 q 15 602 16 597 q 16 595 18 588 q 20 582 22 575 q 25 568 26 562 q 28 555 28 554 q 28 554 29 542 q 30 529 31 512 q 32 496 33 478 q 34 461 35 449 q 35 443 36 427 q 37 411 38 394 q 39 376 40 360 q 41 344 41 338 z"},"/":{"x_min":0,"x_max":390,"ha":390,"o":"m 9 99 q 9 95 10 88 q 10 80 10 80 q 11 76 18 62 q 25 48 28 43 l 53 18 l 65 12 l 71 12 l 78 12 q 80 13 87 15 q 94 17 96 18 q 98 19 105 24 q 112 28 115 30 q 116 32 118 34 q 121 36 121 37 q 122 39 126 48 q 131 56 136 66 q 141 75 146 84 q 150 94 152 98 q 152 99 156 106 q 159 113 162 122 q 166 131 170 140 q 174 149 176 154 q 177 157 180 163 q 183 169 186 176 q 189 183 192 189 q 194 195 195 197 q 197 202 202 214 q 206 226 207 228 q 208 229 210 234 q 211 240 214 246 q 216 252 218 258 q 219 263 220 265 q 221 268 226 280 q 230 293 235 308 q 240 322 244 335 q 249 348 250 351 q 251 353 254 361 q 256 369 260 378 q 263 388 266 396 q 268 404 269 406 q 270 410 274 422 q 279 433 281 437 q 282 439 286 448 q 290 457 295 468 q 300 479 304 490 q 309 500 312 505 q 313 507 316 512 q 318 517 318 517 q 320 520 328 531 q 335 542 343 554 q 351 567 358 578 q 366 588 368 591 q 368 593 370 598 q 373 602 374 604 q 375 607 378 614 q 380 621 380 622 l 380 641 l 380 659 q 380 661 378 666 q 375 670 374 672 q 372 674 364 681 q 357 688 355 690 q 352 692 342 697 q 333 702 331 702 q 329 703 320 703 q 311 703 306 703 q 301 703 291 703 q 282 703 281 702 q 277 702 268 697 q 259 692 257 690 q 256 689 252 682 q 248 676 243 668 q 238 661 233 653 q 228 645 226 641 q 222 634 215 620 q 208 607 202 594 q 195 580 190 568 q 184 557 183 554 q 180 547 171 520 q 162 493 152 462 q 141 431 132 404 q 123 377 121 370 q 120 367 115 355 q 110 343 104 328 q 98 313 92 298 q 87 284 84 277 q 83 275 80 268 q 77 261 73 252 q 69 244 65 235 q 61 226 59 222 q 58 220 56 216 q 54 211 53 209 q 52 207 48 201 q 45 195 41 188 q 37 180 33 174 q 29 167 28 166 q 26 163 22 153 q 17 143 16 141 q 14 139 12 132 q 10 125 10 123 q 10 122 10 113 q 9 104 9 99 z"},"[":{"x_min":0,"x_max":384,"ha":384,"o":"m 90 12 q 100 12 124 11 q 149 10 176 9 q 204 8 228 7 q 253 6 263 6 l 280 6 l 294 6 q 298 7 312 9 q 326 11 331 12 q 332 13 336 15 q 341 17 343 18 l 349 24 q 351 28 355 36 q 359 44 363 52 q 367 60 370 66 q 373 72 374 74 l 374 82 l 374 92 q 373 94 371 98 q 369 103 368 105 q 366 106 362 110 q 357 115 355 117 q 351 120 345 124 q 339 129 333 134 q 327 138 322 142 q 318 145 318 145 l 213 145 l 201 160 q 200 164 198 174 q 197 185 195 197 q 193 209 192 220 q 190 230 189 234 q 189 235 188 240 q 187 244 186 250 q 185 255 184 260 q 183 264 183 265 q 183 266 180 284 q 178 301 175 324 q 172 346 169 370 q 166 393 164 407 q 164 409 163 416 q 162 423 161 432 q 160 440 159 447 q 158 454 158 456 q 158 458 156 466 q 154 475 152 484 q 150 493 148 502 q 146 510 146 512 q 146 512 146 514 q 145 517 145 518 q 145 520 146 522 q 146 524 146 524 q 147 526 152 530 q 156 534 158 536 q 161 538 171 543 q 181 548 183 549 q 184 549 191 550 q 198 551 209 552 q 220 554 226 555 q 231 556 244 558 q 257 559 272 561 q 287 563 300 564 q 313 566 318 567 q 320 569 328 573 q 335 577 337 579 q 339 581 346 588 q 353 596 355 598 q 357 600 359 604 q 361 609 361 610 q 362 611 362 618 q 362 625 362 629 q 362 633 362 640 q 362 647 361 647 q 361 649 359 654 q 357 658 355 660 q 353 663 347 669 q 341 675 334 682 q 327 689 321 695 q 315 701 312 703 q 310 704 306 706 q 302 709 300 709 q 299 709 290 710 q 282 710 278 710 q 273 710 266 710 q 258 709 257 709 q 255 709 248 707 q 242 705 235 703 q 228 701 222 699 q 215 697 213 697 q 208 696 198 694 q 188 692 178 690 q 167 688 158 686 q 149 684 146 684 q 141 684 128 683 q 114 682 100 681 q 85 680 72 679 q 58 678 53 678 q 51 678 46 676 q 42 673 41 672 q 37 669 28 659 q 18 649 16 647 q 15 645 12 638 q 10 631 10 629 q 10 628 10 616 q 9 605 9 600 q 9 595 10 585 q 10 575 10 573 q 11 567 14 544 q 18 522 22 496 q 26 470 30 448 q 34 425 35 419 q 36 414 38 403 q 39 392 41 379 q 43 366 44 354 q 46 343 47 339 q 47 337 48 331 q 49 325 50 318 q 51 310 52 304 q 53 297 53 296 q 53 293 55 282 q 57 271 60 258 q 62 246 64 236 q 65 225 65 222 q 66 221 66 216 q 66 211 66 209 q 66 207 66 202 q 66 198 65 197 q 65 195 63 188 q 61 181 59 179 q 59 177 56 172 q 53 167 50 160 q 47 154 44 148 q 41 143 41 142 q 40 140 40 126 q 39 112 39 105 q 39 100 40 86 q 40 72 41 68 q 41 66 44 62 q 46 57 47 55 q 49 52 55 46 q 61 40 68 33 q 75 26 81 20 q 87 14 90 12 z"},"6":{"x_min":0,"x_max":446,"ha":446,"o":"m 9 215 q 9 209 9 200 q 9 191 10 182 q 10 174 10 167 q 10 161 10 160 q 10 158 12 152 q 13 145 15 137 q 17 129 19 122 q 21 114 22 111 q 22 110 24 105 q 27 100 30 94 q 33 88 36 82 q 39 77 41 74 q 43 72 47 65 q 51 58 53 56 q 55 54 60 50 q 64 45 66 43 q 68 41 72 38 q 77 34 82 30 q 87 26 91 23 q 95 20 96 19 q 98 18 102 16 q 107 13 109 12 q 111 11 118 9 q 125 7 127 6 q 132 4 142 2 q 151 0 152 0 q 153 0 159 0 q 165 0 172 0 q 180 -1 188 -1 q 196 -1 201 -1 q 205 -1 212 -1 q 219 -1 226 0 q 233 0 238 0 q 244 0 245 0 q 247 0 254 2 q 260 3 268 5 q 276 7 284 9 q 291 11 294 12 q 295 12 300 14 q 304 17 310 20 q 316 23 322 26 q 328 29 331 31 q 334 32 338 35 q 343 38 348 41 q 353 44 357 46 q 361 49 362 49 l 399 86 q 400 88 404 95 q 409 102 411 105 q 416 112 418 120 q 421 128 423 136 q 423 137 424 142 q 425 146 426 152 q 428 157 429 162 q 430 166 430 167 q 430 169 432 179 q 435 189 436 191 l 436 197 l 436 204 q 436 208 435 216 q 434 225 433 234 q 432 243 431 250 q 430 257 430 259 q 429 262 427 272 q 425 282 423 284 q 422 288 418 298 q 413 307 411 309 q 409 311 402 318 q 395 325 393 327 q 388 330 376 337 q 365 344 362 346 q 361 346 349 348 q 337 350 331 352 q 324 353 310 356 q 296 358 294 358 q 291 358 281 359 q 271 360 259 361 q 247 362 236 363 q 225 364 220 364 l 210 364 l 201 364 q 200 364 194 363 q 189 362 183 361 q 177 360 171 359 q 165 358 164 358 q 162 358 158 360 q 153 362 152 364 q 152 366 152 374 q 151 381 151 383 q 151 386 152 393 q 152 400 152 401 q 152 402 154 409 q 156 416 159 425 q 162 434 165 443 q 168 452 170 457 q 172 461 176 473 q 181 485 183 488 q 184 491 188 500 q 193 509 198 518 q 203 528 208 537 q 212 546 214 549 q 214 550 217 554 q 220 559 223 564 q 226 570 229 574 q 232 579 232 580 q 233 582 236 594 q 238 606 238 611 q 238 612 238 618 q 239 624 239 627 q 239 630 238 636 q 238 641 238 642 q 238 644 236 651 q 234 658 232 660 q 231 662 224 669 q 217 676 214 679 q 212 681 204 686 q 197 690 195 691 q 193 693 186 695 q 179 697 177 697 q 176 698 167 698 q 159 698 155 698 q 150 698 142 698 q 134 698 133 697 q 132 697 128 695 q 123 693 121 691 q 118 689 108 680 q 99 670 96 667 q 95 665 93 660 q 91 656 90 654 q 90 652 89 646 q 88 640 87 632 q 86 625 85 618 q 84 612 84 611 q 84 610 82 606 q 80 601 78 596 q 76 590 74 586 q 72 581 72 580 q 71 577 68 566 q 64 556 60 543 q 56 530 52 518 q 49 506 47 500 q 46 498 44 488 q 42 479 41 475 q 40 472 38 464 q 37 456 35 448 q 33 439 31 431 q 29 423 29 420 q 27 414 25 402 q 23 390 22 389 q 22 386 21 376 q 20 366 19 355 q 18 344 17 334 q 16 324 16 321 q 16 319 15 313 q 14 307 13 300 q 12 292 11 286 q 10 279 10 278 q 10 277 10 269 q 10 261 10 251 q 9 241 9 231 q 9 221 9 215 z m 133 188 l 133 191 q 134 193 136 198 q 138 202 140 204 q 141 206 146 213 q 150 220 152 222 q 153 224 155 226 q 157 228 158 228 q 160 230 170 234 q 179 239 183 241 q 186 242 193 244 q 200 247 201 247 l 216 247 l 232 247 q 233 247 237 246 q 241 245 246 244 q 251 243 256 242 q 261 241 263 241 q 266 240 273 238 q 280 235 282 235 q 283 234 288 229 q 292 224 294 222 q 295 220 298 216 q 300 212 300 210 l 300 203 l 300 197 q 298 193 291 179 q 284 165 282 160 q 281 159 276 154 q 271 150 269 148 q 267 147 260 142 q 253 138 251 136 q 249 135 244 132 q 240 130 238 130 q 235 128 228 126 q 221 124 220 123 l 198 123 l 177 123 q 175 124 170 126 q 166 128 164 130 q 162 132 155 139 q 148 146 146 148 q 145 149 142 154 q 140 158 140 160 q 139 162 136 172 q 134 182 133 185 z"},"r":{"x_min":0,"x_max":360,"ha":360,"o":"m 10 228 q 10 227 11 224 q 12 220 13 216 q 14 212 15 208 q 16 204 16 203 q 16 201 17 196 q 18 190 19 184 q 20 177 21 170 q 22 163 22 160 q 22 158 23 150 q 24 142 26 132 q 27 123 28 114 q 29 106 29 104 q 30 96 32 82 q 34 68 35 67 q 36 65 42 59 q 47 53 54 46 q 61 40 68 34 q 74 27 78 24 q 79 23 86 21 q 93 19 96 18 l 106 18 l 115 18 q 117 18 121 20 q 125 23 127 24 q 130 26 134 30 q 139 33 144 37 q 149 41 153 44 q 157 48 158 49 q 160 51 164 58 q 169 65 171 67 q 172 69 174 78 q 176 88 177 92 l 177 98 q 177 119 174 140 q 170 161 170 183 q 170 186 170 192 q 171 197 171 197 q 171 199 173 204 q 175 208 177 210 q 179 212 184 217 q 188 222 189 222 l 313 222 q 313 222 317 226 q 321 229 326 234 q 331 239 336 244 q 341 250 344 253 q 345 255 348 259 q 350 263 350 265 l 350 281 l 350 296 q 348 299 342 305 q 336 311 329 318 q 322 325 316 331 q 310 337 307 339 q 305 341 298 343 q 291 345 288 345 q 287 345 274 346 q 262 347 246 348 q 229 349 212 350 q 194 351 183 352 l 180 352 l 177 352 q 173 351 166 350 q 159 349 152 348 q 145 347 140 346 q 134 345 134 345 q 133 345 129 344 q 125 342 120 340 q 115 338 110 336 q 105 334 103 333 q 101 332 96 330 q 90 327 84 324 q 78 321 72 318 q 67 315 66 315 q 64 314 54 312 q 43 310 41 308 q 39 307 32 300 q 25 293 22 290 q 21 288 19 284 q 17 279 16 277 q 15 274 14 266 q 13 259 12 252 q 11 244 10 237 q 10 230 10 228 z"},"2":{"x_min":0,"x_max":532,"ha":532,"o":"m 71 102 q 71 99 72 93 q 72 87 72 86 q 72 84 74 76 q 76 69 78 67 q 79 65 86 56 q 93 47 96 43 l 109 30 q 111 29 117 26 q 123 24 130 21 q 136 18 142 16 q 149 13 152 12 l 157 12 l 164 12 q 168 12 184 13 q 199 14 217 15 q 235 16 250 17 q 265 18 269 18 q 270 18 277 18 q 284 18 294 18 q 303 19 312 19 q 321 19 327 19 q 332 19 341 19 q 350 19 358 18 q 366 18 372 18 q 379 18 380 18 q 381 18 388 17 q 394 16 402 15 q 409 14 415 13 q 421 12 423 12 l 442 12 l 460 12 q 463 12 470 14 q 477 17 479 18 q 483 21 494 32 q 506 44 509 49 q 512 52 516 62 q 521 71 522 74 q 522 75 522 86 q 523 96 523 101 q 523 105 522 116 q 522 126 522 129 q 521 130 519 132 q 517 135 516 135 q 513 137 504 142 q 494 146 491 148 l 439 148 l 386 148 q 384 148 375 147 q 366 146 356 144 q 345 143 336 142 q 327 141 324 141 l 321 141 l 318 141 q 316 143 311 145 q 306 147 306 148 q 306 148 306 152 q 305 155 305 157 q 305 158 306 162 q 306 165 306 166 q 310 169 319 178 q 328 187 338 196 q 347 206 356 215 q 365 224 368 228 q 372 232 380 243 q 388 254 397 266 q 406 278 414 288 q 421 298 423 302 q 424 303 428 317 q 433 331 435 339 q 437 344 440 353 q 442 362 442 363 l 442 419 l 442 474 q 442 476 440 485 q 437 494 435 499 q 435 501 432 508 q 430 516 429 518 q 428 520 426 524 q 424 529 423 530 q 420 534 414 542 q 409 549 403 557 q 397 565 392 571 q 387 577 386 579 q 384 582 376 590 q 369 597 360 606 q 351 615 343 623 q 335 631 331 635 q 329 636 322 640 q 315 645 312 647 q 290 660 268 670 q 245 679 220 684 q 215 685 202 688 q 190 690 189 690 q 188 690 185 690 q 182 691 180 691 q 178 691 174 690 q 171 690 170 690 q 165 690 154 689 q 144 688 133 687 q 122 686 113 685 q 104 684 102 684 q 101 684 94 682 q 87 680 84 678 q 82 677 77 674 q 72 672 72 672 q 69 669 61 661 q 53 653 44 644 q 35 635 27 627 q 19 619 16 616 q 15 615 12 610 q 10 606 10 604 l 10 594 l 10 585 q 11 582 16 572 q 20 563 22 561 q 23 559 27 555 q 31 551 36 546 q 41 541 46 536 q 51 532 53 530 q 55 528 60 526 q 64 524 65 524 q 66 524 72 524 q 78 523 81 523 q 95 523 105 526 q 115 529 127 536 q 128 537 132 540 q 137 543 142 546 q 148 549 152 552 q 157 555 158 555 q 159 555 166 556 q 174 556 178 556 q 183 556 192 556 q 200 555 201 555 q 203 554 217 550 q 231 545 238 542 q 240 541 245 539 q 250 537 250 536 q 253 534 259 528 q 265 522 272 515 q 279 508 285 502 q 291 496 294 493 q 296 491 300 484 q 305 476 306 474 q 308 472 310 462 q 312 453 312 450 q 312 449 312 440 q 313 430 313 425 q 313 420 312 411 q 312 402 312 400 q 312 398 310 388 q 308 379 306 376 q 305 374 300 364 q 296 355 294 351 q 293 349 288 342 q 283 335 281 333 q 278 328 271 318 q 264 309 263 308 l 109 154 q 107 152 100 148 q 92 143 90 141 q 88 140 84 136 q 79 131 78 129 q 76 127 74 122 q 72 118 72 117 q 72 116 72 110 q 71 105 71 102 z"},"{":{"x_min":0,"x_max":434,"ha":434,"o":"m 10 345 l 10 339 q 10 337 12 330 q 15 323 16 321 q 17 319 19 314 q 21 310 22 308 q 24 305 28 298 q 33 291 35 290 q 37 287 44 280 q 51 273 53 271 q 54 270 61 268 q 68 266 72 265 q 73 265 78 264 q 82 263 88 262 q 93 261 98 260 q 102 259 103 259 q 105 258 110 254 q 114 249 115 247 q 115 245 116 238 q 117 232 118 225 q 119 218 120 212 q 121 205 121 203 q 126 177 132 152 q 139 127 152 104 q 154 102 158 95 q 163 88 164 86 q 167 82 174 76 q 181 69 188 62 q 194 55 200 50 q 206 44 208 43 q 209 42 214 39 q 219 36 225 33 q 231 30 236 28 q 242 25 245 24 q 248 23 258 20 q 267 18 269 18 l 294 18 l 319 18 q 321 18 330 20 q 340 23 344 24 q 347 26 356 30 q 366 35 368 37 q 371 39 380 48 q 390 57 393 61 q 395 63 397 68 q 399 72 399 74 q 399 74 400 80 q 400 86 400 89 q 400 92 400 98 q 399 104 399 104 q 399 106 397 110 q 395 115 393 117 q 392 119 388 123 q 383 127 381 129 q 378 131 371 136 q 364 141 362 142 q 361 142 349 144 q 337 146 331 148 q 329 148 323 148 q 317 149 310 150 q 302 151 296 152 q 289 153 288 154 q 286 155 279 162 q 272 169 269 172 q 269 173 266 178 q 264 183 263 185 q 262 187 260 194 q 257 201 257 203 q 257 206 256 212 q 255 218 254 225 q 253 232 252 238 q 251 244 251 247 l 251 262 l 251 277 q 251 280 252 288 q 253 296 254 305 q 255 314 256 322 q 257 330 257 333 q 258 337 260 346 q 261 356 263 366 q 265 375 266 384 q 268 392 269 395 q 270 398 275 410 q 280 421 282 426 q 283 428 287 435 q 291 442 296 451 q 301 460 306 468 q 310 477 313 481 q 314 483 318 490 q 323 498 325 500 q 327 502 330 507 q 334 512 338 517 q 342 522 346 526 q 349 530 350 531 q 352 533 360 541 q 368 549 378 558 q 387 567 395 576 q 403 584 405 586 q 406 587 411 594 q 416 601 418 605 q 419 607 422 612 q 424 616 424 617 l 424 634 l 424 648 q 424 649 422 654 q 419 659 416 665 q 413 671 410 676 q 407 682 405 685 q 404 687 400 692 q 395 696 393 697 q 391 698 385 700 q 379 703 371 706 q 363 709 356 712 q 348 714 344 716 l 341 716 l 337 716 q 334 715 324 713 q 315 711 313 710 q 311 709 306 707 q 302 705 300 704 q 298 702 291 694 q 284 687 282 685 q 280 683 276 676 q 271 668 269 667 q 268 665 262 658 q 257 650 251 642 q 245 634 239 626 q 233 619 232 617 q 231 615 226 608 q 221 600 220 599 q 219 598 216 594 q 214 590 210 586 q 207 582 204 578 q 202 575 201 574 q 198 569 192 560 q 187 551 181 541 q 175 531 170 523 q 165 515 164 512 q 163 510 160 502 q 156 495 152 486 q 149 477 145 469 q 141 461 140 457 q 139 455 138 450 q 136 444 134 438 q 131 432 130 426 q 128 420 127 419 q 126 417 122 412 q 117 408 115 407 q 112 407 105 408 q 98 408 90 408 q 83 408 76 408 q 69 407 66 407 q 62 407 52 404 q 43 402 41 401 q 39 400 32 393 q 25 386 22 382 q 22 381 20 376 q 17 372 16 370 q 15 367 12 360 q 10 353 10 352 z"},"9":{"x_min":0,"x_max":397,"ha":397,"o":"m 214 80 q 215 78 217 70 q 219 63 220 61 q 222 58 226 48 q 231 39 232 37 q 234 32 239 30 q 243 28 252 24 q 261 19 263 18 q 264 18 269 18 q 274 17 276 17 q 278 17 282 18 q 287 18 288 18 q 289 18 296 22 q 302 25 310 29 q 318 33 326 37 q 333 41 337 43 q 338 43 340 46 q 343 48 344 49 q 345 51 347 56 q 349 60 350 61 q 352 66 354 78 q 356 90 356 92 q 356 95 355 105 q 354 115 353 126 q 352 137 351 147 q 350 157 350 160 q 350 161 350 172 q 349 183 349 188 q 349 234 355 280 q 361 325 368 370 q 370 378 372 394 q 374 411 374 413 q 374 416 375 428 q 376 440 378 454 q 379 467 380 479 q 381 491 381 494 q 381 496 382 505 q 383 514 384 524 q 385 535 386 544 q 387 553 387 555 l 387 581 l 387 605 q 387 607 384 617 q 382 627 381 630 q 380 630 378 632 q 376 635 374 636 q 373 637 368 639 q 364 641 362 642 q 355 644 341 649 q 327 654 325 654 q 323 654 318 654 q 313 654 306 654 q 300 654 294 654 q 289 654 288 654 q 287 654 282 656 q 278 658 272 660 q 267 663 262 665 q 258 667 257 667 q 254 668 248 670 q 243 672 237 674 q 231 676 226 678 q 221 679 220 679 q 218 679 214 680 q 209 681 203 682 q 197 683 192 684 q 186 685 183 685 l 173 685 l 164 685 q 162 685 152 682 q 143 680 140 679 q 136 677 128 674 q 120 672 112 669 q 104 666 98 664 q 91 661 90 660 q 89 660 80 653 q 71 646 66 642 q 65 641 62 639 q 60 637 59 636 q 57 634 50 624 q 43 614 41 611 q 33 600 26 588 q 19 576 16 562 q 16 559 15 554 q 14 548 13 542 q 12 536 11 531 q 10 526 10 525 q 10 523 10 513 q 9 503 9 498 q 9 493 10 484 q 10 476 10 475 q 11 471 16 457 q 20 443 22 438 q 23 436 26 431 q 30 426 34 420 q 38 414 42 408 q 45 403 47 401 q 50 398 56 392 q 61 387 67 381 q 73 375 78 370 q 82 365 84 364 q 85 363 91 360 q 97 357 105 353 q 113 349 121 345 q 129 341 134 339 q 135 339 142 336 q 149 334 152 333 q 155 332 165 330 q 175 327 177 327 q 178 327 184 326 q 189 325 195 324 q 201 323 206 322 q 212 321 214 321 q 216 320 221 318 q 226 316 226 315 q 226 314 226 310 q 227 306 227 304 q 227 302 226 296 q 226 291 226 290 q 226 289 226 282 q 225 274 224 264 q 223 254 222 244 q 221 234 220 228 q 220 226 219 218 q 218 210 217 200 q 216 191 215 182 q 214 174 214 172 q 214 171 214 165 q 214 160 214 152 q 213 145 213 137 q 213 130 213 126 q 213 123 213 116 q 213 110 214 103 q 214 96 214 89 q 214 83 214 80 z m 139 500 q 139 505 140 514 q 140 524 140 525 q 140 526 142 530 q 144 535 146 537 q 147 539 152 544 q 156 548 161 553 q 166 558 170 562 q 175 566 177 568 l 208 568 l 239 568 q 241 568 246 566 q 250 563 251 562 q 252 560 254 550 q 257 541 257 537 q 257 536 258 524 q 258 512 258 506 q 258 500 258 488 q 257 476 257 475 q 257 474 255 467 q 253 460 251 457 q 249 452 246 446 q 244 441 239 438 q 237 436 232 434 q 227 432 226 432 q 225 432 217 432 q 209 431 205 431 q 200 431 192 432 q 184 432 183 432 q 181 432 177 434 q 173 436 171 438 q 168 440 158 450 q 148 460 146 463 q 144 465 142 469 q 140 473 140 475 q 140 476 140 486 q 139 495 139 500 z"}," ":{"x_min":0,"x_max":400,"ha":400,"o":""},"I":{"x_min":0,"x_max":489,"ha":489,"o":"m 15 103 q 15 98 16 90 q 16 81 16 80 q 16 79 18 74 q 21 69 22 67 q 24 64 28 58 q 33 51 35 49 q 37 47 41 42 q 45 37 47 36 q 51 34 60 29 q 70 24 72 24 q 72 24 81 24 q 90 23 95 23 q 100 23 110 24 q 120 24 121 24 q 123 24 134 27 q 144 30 146 30 q 148 31 153 32 q 158 33 163 34 q 168 35 172 36 q 176 36 177 36 l 182 36 l 189 36 q 195 36 210 35 q 226 34 242 33 q 259 32 274 31 q 289 30 294 30 q 297 30 308 29 q 320 28 334 27 q 347 26 359 25 q 371 24 374 24 q 376 24 390 24 q 404 23 410 23 q 416 23 426 24 q 435 24 436 24 q 439 25 446 31 q 453 37 460 44 q 466 50 472 57 q 477 64 479 67 q 479 70 480 80 q 481 89 481 92 q 481 97 480 106 q 479 115 479 117 q 478 118 468 127 q 459 136 454 141 q 453 142 446 147 q 439 152 436 154 q 434 155 429 158 q 424 160 423 160 q 420 160 412 161 q 404 162 396 163 q 387 164 379 165 q 371 166 368 166 q 366 168 358 175 q 351 182 349 184 q 348 186 346 190 q 343 195 343 197 q 343 199 342 208 q 341 217 340 228 q 339 238 338 247 q 337 256 337 258 q 337 261 336 268 q 335 275 334 282 q 333 289 332 294 q 331 300 331 302 q 330 303 328 310 q 325 318 325 320 q 324 326 322 340 q 320 354 318 370 q 316 385 314 399 q 313 413 312 419 l 312 438 l 312 456 q 313 459 315 468 q 317 478 318 480 q 320 485 325 487 q 328 486 335 486 q 342 487 350 488 q 357 489 364 490 q 371 491 374 493 q 375 493 380 498 q 386 504 393 511 q 400 518 406 525 q 413 532 417 536 q 419 538 421 542 q 423 546 423 548 q 423 549 424 556 q 424 563 424 567 q 424 571 424 578 q 423 585 423 585 q 423 587 421 592 q 419 596 417 598 q 416 600 412 604 q 407 608 405 610 q 403 612 396 616 q 389 621 386 622 q 381 625 372 630 q 363 634 362 635 l 345 635 l 325 635 q 323 634 312 632 q 302 629 300 629 q 299 629 292 628 q 285 628 275 628 q 266 628 256 628 q 247 628 241 628 q 238 628 230 628 q 222 628 212 628 q 203 628 194 628 q 186 629 183 629 q 180 630 172 632 q 164 635 155 638 q 146 641 138 644 q 130 646 127 647 q 126 647 122 649 q 117 651 112 653 q 106 655 102 657 q 97 659 96 659 q 92 661 85 664 q 78 666 78 666 q 76 665 62 660 q 48 656 41 653 q 39 652 34 650 q 30 648 29 647 q 27 645 22 640 q 17 636 16 635 q 15 633 12 626 q 10 618 10 616 l 10 604 l 10 592 q 10 590 12 583 q 15 576 16 573 q 18 568 22 559 q 27 550 29 548 q 30 546 37 539 q 44 532 47 530 q 49 529 56 524 q 63 520 66 518 q 68 516 72 514 q 77 512 78 511 q 81 510 90 508 q 99 507 108 505 q 118 503 127 501 q 136 499 140 499 q 142 497 149 490 q 156 483 158 480 q 159 478 162 470 q 164 462 167 452 q 170 443 173 434 q 176 424 177 419 q 178 415 180 402 q 183 389 186 373 q 189 357 192 342 q 194 327 195 320 q 196 316 197 308 q 198 301 199 294 q 200 286 200 280 q 201 273 201 271 q 201 270 201 265 q 201 260 202 254 q 202 247 202 240 q 202 233 202 229 q 202 221 202 206 q 201 192 201 191 q 201 189 199 182 q 197 174 195 172 q 194 170 190 166 q 185 161 183 160 l 140 160 q 137 160 128 159 q 119 158 110 157 q 100 156 91 155 q 82 154 78 154 q 74 153 62 151 q 50 149 47 147 q 45 147 40 144 q 36 142 35 141 q 31 138 24 131 q 17 124 16 123 q 16 122 16 115 q 15 108 15 103 z"},"H":{"x_min":0,"x_max":557,"ha":557,"o":"m 380 259 q 380 254 381 243 q 382 232 383 219 q 384 206 385 194 q 386 183 386 179 q 386 176 387 168 q 388 160 390 151 q 391 142 392 134 q 393 126 393 123 q 393 120 394 115 q 395 110 396 104 q 397 98 398 93 q 399 88 399 86 q 403 70 411 57 q 419 44 430 31 q 432 28 439 21 q 446 14 448 12 q 451 10 460 6 q 470 1 473 0 l 482 0 l 491 0 q 493 0 498 2 q 502 5 504 6 l 541 43 q 542 45 544 54 q 546 63 547 68 l 547 84 l 547 99 q 547 101 545 108 q 543 115 541 124 q 539 132 537 139 q 535 146 534 148 q 534 149 533 154 q 532 158 531 164 q 530 169 529 174 q 528 178 528 179 q 528 181 526 192 q 523 202 522 204 q 514 242 510 281 q 505 320 497 358 q 496 362 494 374 q 491 385 488 398 q 485 411 482 422 q 480 433 479 438 q 479 439 476 448 q 473 458 469 471 q 465 484 461 497 q 457 510 454 518 q 454 520 451 528 q 448 535 448 537 q 448 539 447 548 q 446 557 445 568 q 444 578 443 587 q 442 596 442 599 q 442 600 440 607 q 437 614 436 617 l 430 629 q 426 635 419 646 q 412 658 411 660 q 409 662 405 666 q 401 671 399 673 q 395 675 386 680 q 376 684 374 685 q 373 685 366 686 q 360 686 357 686 q 353 686 346 686 q 338 685 337 685 q 336 685 329 682 q 322 680 319 679 q 297 670 288 648 q 286 645 284 638 q 282 631 281 629 l 281 614 l 281 599 q 282 597 284 590 q 286 582 288 580 q 289 578 294 569 q 298 560 304 550 q 309 539 314 530 q 318 521 319 518 q 320 516 324 506 q 328 497 333 485 q 338 473 342 462 q 347 450 349 444 q 351 442 353 435 q 355 428 356 426 l 356 419 l 356 413 q 354 411 350 406 q 345 402 343 401 l 312 401 l 281 401 q 277 401 268 402 q 259 403 250 404 q 240 405 232 406 q 223 407 220 407 q 219 407 214 410 q 209 412 207 413 q 206 414 204 416 q 202 418 201 420 q 200 421 198 426 q 196 430 195 432 q 194 434 192 441 q 190 448 189 450 q 188 455 186 463 q 184 471 182 479 q 180 487 178 493 q 177 499 177 500 q 176 506 175 520 q 174 534 173 550 q 172 565 171 579 q 170 593 170 599 q 170 601 168 605 q 166 609 164 611 q 162 613 158 616 q 155 620 152 624 q 148 628 144 632 q 141 635 140 636 q 139 636 134 638 q 129 641 123 644 q 117 647 112 650 q 106 652 103 654 q 101 655 94 658 q 86 660 84 660 l 78 660 l 72 660 q 69 660 60 658 q 50 655 47 654 q 45 653 40 651 q 36 649 35 648 q 32 646 25 638 q 18 631 16 629 q 15 628 13 621 q 11 614 10 611 l 10 602 l 10 592 q 11 589 12 582 q 14 574 16 566 q 18 559 20 552 q 21 545 22 543 q 23 541 26 532 q 30 524 34 515 q 39 506 42 498 q 46 489 47 487 q 48 486 50 481 q 51 476 53 470 q 55 464 56 458 q 58 453 59 450 q 60 448 62 438 q 65 428 66 426 q 66 424 68 416 q 71 409 72 407 q 72 405 74 395 q 77 385 78 383 q 78 381 81 374 q 84 366 84 364 q 92 331 96 297 q 100 263 103 228 q 103 225 104 213 q 105 201 106 188 q 107 174 108 162 q 109 151 109 148 q 109 146 111 139 q 113 132 115 130 q 117 126 122 116 q 126 107 127 105 q 129 103 136 94 q 143 85 146 80 l 152 74 q 155 72 162 68 q 169 63 170 62 q 173 60 180 58 q 187 55 189 56 q 194 56 208 61 q 222 66 226 68 q 229 70 238 79 q 248 88 251 93 q 252 95 254 102 q 257 109 257 111 q 257 113 258 124 q 258 135 258 141 q 258 146 258 156 q 257 166 257 167 q 257 169 254 177 q 251 185 248 194 q 245 204 242 212 q 239 220 238 222 q 237 226 234 236 q 232 245 232 247 l 232 260 l 232 271 q 233 273 238 278 q 242 283 244 284 l 278 284 l 312 284 q 314 284 322 281 q 329 278 331 278 q 332 278 338 277 q 343 276 349 275 q 355 274 360 273 q 366 272 368 271 q 370 270 374 266 q 379 261 380 259 z"},"4":{"x_min":0,"x_max":446,"ha":446,"o":"m 238 49 l 238 37 q 239 35 244 25 q 249 15 251 13 q 254 8 264 -2 q 273 -11 275 -12 q 276 -12 281 -12 q 286 -13 289 -13 q 292 -13 298 -12 q 305 -12 306 -12 q 308 -12 316 -10 q 323 -7 325 -6 q 326 -5 333 0 q 340 4 343 7 q 347 9 356 16 q 366 23 368 25 q 369 26 372 28 q 374 30 374 31 q 376 35 381 44 q 386 54 386 56 q 386 57 387 62 q 388 66 390 72 q 391 78 392 84 q 393 90 393 93 q 393 98 394 108 q 395 118 396 128 q 397 137 398 145 q 399 153 399 155 q 399 162 399 191 q 399 220 399 253 q 399 287 399 316 q 399 345 399 352 q 399 353 400 362 q 402 371 404 383 q 406 395 408 407 q 410 419 411 426 q 412 428 414 438 q 417 449 417 451 q 418 457 420 468 q 422 479 424 491 q 426 503 428 512 q 430 522 430 525 q 430 528 431 538 q 432 548 433 560 q 434 572 435 583 q 436 594 436 599 l 436 616 l 436 630 q 436 632 434 636 q 431 640 430 642 l 411 661 q 410 661 406 664 q 401 666 399 667 q 395 669 388 671 q 382 673 380 673 q 379 673 371 674 q 363 674 359 674 q 354 674 346 674 q 338 673 337 673 q 335 673 328 670 q 321 668 319 667 q 318 666 316 664 q 314 662 312 661 q 311 659 306 652 q 302 644 300 642 q 298 640 296 636 q 294 631 294 630 q 294 627 293 618 q 292 609 291 598 q 290 588 289 578 q 288 567 288 562 q 288 561 288 555 q 287 549 287 546 q 287 543 288 538 q 288 532 288 531 q 288 530 289 526 q 290 521 291 516 q 292 510 293 506 q 294 501 294 500 l 294 482 l 294 463 q 294 460 292 450 q 289 441 288 439 q 287 438 285 436 q 283 433 282 432 q 280 431 276 429 q 271 427 269 426 q 264 425 250 422 q 236 420 232 420 q 230 420 218 420 q 205 419 199 419 q 194 419 186 420 q 177 420 177 420 l 164 432 q 164 433 164 439 q 164 445 164 452 q 163 460 163 468 q 163 476 163 481 q 163 488 163 499 q 163 511 164 523 q 164 535 164 544 q 164 554 164 556 q 164 557 165 562 q 166 566 167 572 q 168 577 169 582 q 170 586 170 587 q 171 587 171 593 q 171 600 171 602 q 171 605 171 611 q 171 617 170 617 q 170 619 168 626 q 166 634 164 636 q 164 637 162 639 q 160 641 158 642 q 157 643 152 645 q 148 647 146 648 q 143 650 136 652 q 129 654 127 655 l 121 655 l 115 655 q 110 654 98 652 q 86 649 84 648 q 80 647 70 642 q 61 638 59 636 q 57 635 53 631 q 49 627 44 622 q 40 617 36 612 q 31 607 29 605 q 28 604 26 600 q 24 595 22 593 q 21 590 18 583 q 16 576 16 574 l 16 559 l 16 543 q 16 541 19 531 q 22 521 22 519 q 22 518 22 513 q 22 509 22 503 q 22 498 22 493 q 22 489 22 488 q 22 486 23 480 q 24 474 26 466 q 27 459 28 452 q 29 446 29 445 l 29 438 l 29 432 q 28 427 26 413 q 23 399 22 395 q 22 393 20 387 q 18 381 16 374 q 14 366 12 360 q 10 353 10 352 l 10 346 l 10 340 q 10 337 11 332 q 12 326 13 320 q 14 314 15 309 q 16 304 16 303 q 17 301 19 296 q 21 292 22 290 q 24 288 32 281 q 39 274 41 272 q 43 270 48 268 q 52 266 53 266 q 54 266 62 266 q 69 265 73 265 q 76 265 83 266 q 90 266 90 266 q 92 266 98 269 q 105 272 112 275 q 119 278 125 281 q 131 284 133 284 q 135 285 142 287 q 150 289 152 290 q 156 292 166 294 q 175 296 177 297 q 181 297 188 298 q 196 299 204 300 q 212 301 218 302 q 224 303 226 303 q 229 303 238 300 q 248 298 251 297 q 253 295 258 290 q 262 286 263 284 q 263 281 263 272 q 263 263 264 254 q 264 244 264 235 q 264 226 264 223 q 264 217 264 206 q 264 196 264 186 q 263 177 263 169 q 263 162 263 161 q 263 158 261 144 q 259 130 257 124 q 256 122 254 114 q 251 107 251 105 q 249 101 247 94 q 245 87 243 80 q 241 73 240 68 q 238 63 238 62 z"},"~":{"x_min":0,"x_max":539,"ha":539,"o":"m 10 341 l 10 326 q 10 322 11 315 q 12 308 13 301 q 14 294 15 289 q 16 284 16 283 l 53 246 q 55 245 60 242 q 64 240 66 240 q 66 240 71 240 q 76 239 79 239 q 81 239 86 240 q 90 240 90 240 q 91 240 96 242 q 101 245 107 248 q 113 251 118 254 q 124 257 127 259 q 141 267 153 276 q 165 286 177 296 q 180 298 187 303 q 194 308 195 308 q 196 308 200 308 q 203 309 205 309 q 206 309 209 308 q 212 308 214 308 q 216 306 222 302 q 229 297 236 292 q 242 288 248 284 q 255 279 257 277 q 259 275 270 268 q 280 260 282 259 q 283 258 288 256 q 293 255 299 252 q 305 250 310 248 q 316 247 319 246 q 324 245 336 242 q 347 240 350 240 l 381 240 l 411 240 q 414 240 426 242 q 438 245 442 246 q 446 248 458 252 q 470 257 473 259 q 475 260 482 264 q 490 269 492 271 q 495 274 504 284 q 514 293 516 296 q 517 296 520 301 q 522 306 523 308 q 524 310 526 317 q 528 324 529 326 l 529 330 l 529 333 q 527 336 524 344 q 520 351 516 359 q 512 367 508 374 q 505 380 504 382 q 503 383 498 388 q 494 392 492 394 q 490 396 483 400 q 476 405 473 407 q 471 408 466 410 q 462 413 461 413 q 460 413 455 414 q 450 414 448 414 q 446 414 442 414 q 437 413 436 413 q 434 412 427 408 q 420 405 412 400 q 403 396 396 392 q 389 389 387 388 q 384 387 377 384 q 370 382 368 382 l 356 382 l 344 382 q 342 382 338 384 q 333 387 331 388 l 306 413 q 296 424 288 438 q 279 451 263 456 q 259 458 250 460 q 241 462 239 462 q 237 463 229 463 q 221 463 217 463 q 214 463 208 463 q 202 463 201 462 l 41 382 q 39 381 34 377 q 30 373 25 368 q 20 363 16 358 q 11 354 10 351 z"}}}
